<svg width="26" height="30" viewBox="0 0 26 30" fill="none" xmlns="http://www.w3.org/2000/svg">
<path d="M13.0703 5.47062C13.5683 5.47062 14.7516 5.78555 14.7516 5.78555C17.957 6.5201 20.2133 9.47266 20.2133 12.8063V20.85V21.779L20.8687 22.4374L21.4163 22.9874H4.58373L5.13133 22.4374L5.78671 21.779V20.85V12.8062C5.78671 9.47273 8.04297 6.5201 11.2484 5.78555C11.2484 5.78555 12.5171 5.47062 12.9297 5.47062M13 0.375C11.7624 0.375 10.8162 1.32548 10.8162 2.56875V3.59243C6.66667 4.54327 3.53671 8.34562 3.53671 12.8062V20.85L0.625 23.775V25.2375H25.375V23.775L22.4633 20.85V12.8062C22.4633 8.34562 19.3333 4.54327 15.1838 3.59243V2.56875C15.1838 1.32548 14.2376 0.375 13 0.375ZM15.9117 26.7H10.0882C10.0882 28.3088 11.3984 29.625 13 29.625C14.6016 29.625 15.9117 28.3088 15.9117 26.7Z" fill="black"/>
</svg>
