<svg width="472" height="382" viewBox="0 0 472 382" fill="none" xmlns="http://www.w3.org/2000/svg">
<path d="M208.915 1.18954C211.966 1.09603 224.74 -2.49204 235.306 7.94493C245.31 17.8209 253.644 51.4108 256.577 58.5519C259.511 65.693 269.434 65.2606 273.068 73.4418C276.224 80.5362 271.268 84.1242 271.572 89.6408C271.818 93.9301 277.077 99.5752 274.225 106.424C271.642 112.654 265.296 112.443 261.86 114.816C258.424 117.188 257.489 126.153 250.979 129.577C244.469 133.001 237.398 127.695 233.752 128.315C230.105 128.934 227.569 140.82 215.507 141.744C203.446 142.667 198.397 133.142 193.161 131.938C187.925 130.734 176.132 136.145 169.517 130.898C162.902 125.65 160.623 117.609 157.596 115.003C154.569 112.396 149.344 113.717 145.078 107.23C140.812 100.744 146.586 95.2742 146.539 89.0681C146.539 84.7437 142.133 81.4595 143.734 74.5872C145.943 65.1437 157.093 65.3073 159.781 55.5366C161.885 47.8812 163.626 15.799 181.169 5.10486C193.324 -2.19985 208.915 1.18954 208.915 1.18954Z" fill="#263238"/>
<path d="M255.935 56.8223C256.903 58.2857 258.215 59.4895 259.756 60.3285L264.163 63.0517C267.142 64.6713 269.847 66.7499 272.18 69.211C274.381 71.5921 275.341 74.8659 274.775 78.0585C274.4 79.6555 273.781 81.1851 272.94 82.5933C271.963 84.1394 271.218 85.8209 270.731 87.5839C270.568 89.5246 271.053 91.4648 272.11 93.1004C272.916 94.6665 273.781 96.1392 274.506 97.6585C275.967 100.651 276.75 103.958 275.675 107.009C275.203 108.524 274.236 109.837 272.928 110.737C271.53 111.622 269.975 112.229 268.347 112.525C266.687 112.911 264.981 113.133 263.263 113.425C261.512 113.573 259.846 114.245 258.482 115.353C259.936 114.441 261.616 113.955 263.333 113.951C265.051 113.799 266.78 113.729 268.522 113.472C270.31 113.248 272.037 112.676 273.606 111.789C275.216 110.796 276.45 109.295 277.112 107.523C278.597 104.017 277.591 100.019 276.119 96.8755C275.394 95.2626 274.529 93.7315 273.781 92.2005C272.939 90.9213 272.529 89.4055 272.613 87.8761C273.197 85.0009 275.873 82.0323 276.481 78.3624C277.131 74.6334 275.923 70.8218 273.244 68.1475C270.692 65.7098 267.769 63.6938 264.583 62.1752L259.908 59.8377C258.381 59.1324 257.025 58.1035 255.935 56.8223Z" fill="#263238"/>
<path d="M166.712 25.4414C164.305 31.18 163.206 37.3393 161.546 43.2532C160.705 46.2102 159.968 49.2022 158.917 52.0539C158.445 53.4501 157.822 54.7904 157.058 56.0511C156.904 56.3431 156.703 56.6076 156.462 56.8341C156.25 57.09 156.002 57.3143 155.726 57.5003C155.142 57.9445 154.557 58.3535 153.868 58.7509C151.195 60.3651 148.605 62.1126 146.107 63.9869C143.466 65.938 141.497 68.6624 140.474 71.7825C139.997 73.3806 139.933 75.0733 140.287 76.7029C140.715 78.2662 141.437 79.7337 142.414 81.0273C144.272 83.5168 146.049 86.0179 146.633 89.1151C146.516 85.9595 144.786 83.1077 143.22 80.5014C142.404 79.2674 141.826 77.892 141.514 76.4458C141.292 75.0266 141.437 73.574 141.935 72.2266C143.003 69.4848 144.842 67.1105 147.229 65.3894C149.714 63.5998 152.289 61.938 154.943 60.4106C155.597 59.9781 156.252 59.534 156.895 59.0314C157.563 58.4944 158.119 57.8312 158.531 57.0795C159.352 55.6851 160.014 54.2033 160.506 52.6617C161.495 49.6991 162.299 46.6779 162.914 43.6155L164.69 34.4993C165.187 31.443 165.862 28.4186 166.712 25.4414Z" fill="#263238"/>
<path d="M154.394 113.436C155.971 114.978 156.509 117.234 157.339 119.279C158.169 121.325 158.94 123.417 159.852 125.462C160.738 127.548 161.843 129.534 163.148 131.388C164.486 133.345 166.278 134.949 168.372 136.063C172.965 138.061 177.85 136.951 182 135.49C184.115 134.742 186.149 133.889 188.229 133.152C190.254 132.314 192.449 131.97 194.634 132.147C192.442 131.583 190.14 131.607 187.96 132.217C185.775 132.732 183.671 133.386 181.544 133.994C177.406 135.163 172.895 135.899 169.213 134.228C167.397 133.253 165.832 131.868 164.644 130.184C163.352 128.452 162.203 126.619 161.207 124.702C160.156 122.774 159.209 120.787 158.215 118.859C157.701 117.865 157.175 116.883 156.602 115.925C156.09 114.921 155.33 114.064 154.394 113.436Z" fill="#263238"/>
<path d="M269.153 380.929H167.916L161.896 255.709H252.358L269.153 380.929Z" fill="#37474F"/>
<path d="M224.027 255.709L213.333 340.514L213.322 340.642L213.088 342.407L212.655 345.878L212.165 349.747L211.989 351.126L211.849 352.236L208.238 380.929H167.916L161.896 255.709H224.027Z" fill="#263238"/>
<path d="M248.594 380.929H245.918C245.778 379.819 245.649 378.72 245.509 377.61C241.909 348.391 238.414 319.172 235.376 289.953C235.095 287.277 234.815 284.589 234.546 281.912C234.546 281.491 235.224 281.41 235.282 281.83C235.528 283.63 235.785 285.43 236.019 287.23C240.343 318.436 244.457 349.688 248.594 380.929Z" fill="#263238"/>
<path d="M243.172 255.615C243.176 255.646 243.176 255.678 243.172 255.709C242.903 256.959 239.946 270.68 236.043 287.265C235.832 288.165 235.622 289.077 235.4 289.988C233.67 297.223 231.789 304.878 229.883 312.195C225.769 328.078 221.55 342.313 218.675 347C218.362 347.58 217.927 348.087 217.401 348.484C216.466 349.034 214.479 350.015 212.013 351.172L210.377 351.932L208.974 352.575C203.364 355.146 196.621 358.091 193.5 359.389V359.634L192.413 380.952H97.0547L107.153 320.177L119.343 255.674L243.172 255.615Z" fill="#37474F"/>
<path d="M225.641 344.311C214.547 348.349 203.824 353.343 193.594 359.236C193.432 359.33 193.368 359.532 193.447 359.702C193.526 359.872 193.721 359.954 193.897 359.891C204.685 355.215 215.695 350.821 226.213 345.597C226.568 345.439 226.728 345.023 226.57 344.668C226.412 344.313 225.996 344.153 225.641 344.311Z" fill="#263238"/>
<path d="M228.89 270.4C228.89 270.026 228.212 269.944 228.212 270.4C228.294 283.256 227.476 294.476 226.4 306.456C225.898 312.007 221.433 342.687 211.791 340.49C210.178 340.116 209.348 338.526 209.103 336.095C208.799 333.162 209.898 329.585 210.377 326.675C211.452 320.247 212.305 313.819 212.855 307.297C213.983 295.204 213.854 283.027 212.469 270.961C212.44 270.813 212.31 270.706 212.159 270.706C212.008 270.706 211.878 270.813 211.849 270.961C211.849 287.744 211.417 304.492 208.916 321.124C207.747 329.106 203.68 341.133 212.036 342.372C220.393 343.611 226.061 323.473 227.09 317.956C229.988 302.517 230.105 285.968 228.89 270.4Z" fill="#263238"/>
<path d="M212.048 341.273C211.185 343.342 210.458 345.466 209.874 347.63C209.26 349.307 208.955 351.081 208.975 352.867C208.974 353.206 209.465 353.241 209.641 353.007C210.644 351.437 211.401 349.722 211.885 347.923C212.621 345.948 213.392 343.996 214.07 342.009C214.274 341.45 213.986 340.833 213.427 340.63C212.869 340.426 212.252 340.714 212.048 341.273Z" fill="#263238"/>
<path d="M140.719 347.653C139.761 358.756 138.627 369.86 137.435 380.928H136.395C137.563 369.825 138.896 358.721 140.333 347.642C140.368 347.396 140.742 347.396 140.719 347.653Z" fill="#263238"/>
<path d="M206.158 143.637C214.888 172.108 252.674 273.801 278.012 289.299C294.597 299.432 377.894 305.194 393.918 297.761C402.812 293.623 400.042 226.35 389.558 225.976C376.48 225.508 312.187 223.779 305.069 220.377C297.951 216.976 249.927 152.753 231.625 133.294C200.08 99.7271 200.337 124.68 206.158 143.637Z" fill="#AD6359"/>
<path d="M369.631 220.926L357.756 303.206C357.756 303.206 290.109 305.193 271.666 290.105C245.381 268.623 207.688 159.929 203.411 142.923C193.278 102.602 215.858 109.334 233.623 128.898C245.159 141.638 290.541 206.808 307.348 218.811C312.117 222.258 369.631 220.926 369.631 220.926Z" fill="#EBEBEB"/>
<path d="M341.09 299.175C342.481 286.961 349.996 237.231 352.345 226.56C352.509 225.824 353.023 225.742 352.953 226.56C349.668 263.247 343.603 287.335 341.581 299.233C341.522 299.513 341.055 299.49 341.09 299.175Z" fill="#263238"/>
<path d="M252.393 225.157L263.695 302.879C263.695 302.879 137.025 304.749 105.574 302.54C105.574 302.54 131.228 157.229 165.04 120.506C181.952 102.145 201.809 103.524 214.467 116.357C217.669 119.606 255.876 170.12 259.896 189.393C263.403 206.41 252.393 225.157 252.393 225.157Z" fill="#393A3B"/>
<path d="M203.036 216.485C209.79 215.876 216.579 215.762 223.349 216.146C226.704 216.392 230.035 216.777 233.366 217.245C235.025 217.479 236.697 217.654 238.356 217.817C240.103 218.034 241.869 218.034 243.616 217.817C243.768 217.817 243.803 218.028 243.616 218.063C241.998 218.433 240.358 218.698 238.707 218.858C237.104 218.969 235.495 218.969 233.892 218.858C230.479 218.647 227.078 218.285 223.665 218.04C216.793 217.549 209.92 217.046 203.025 217.058C202.733 217.058 202.721 216.52 203.036 216.485Z" fill="#263238"/>
<path d="M187.749 225.379C193.129 223.813 198.591 222.548 204.112 221.592C206.87 221.125 209.64 220.821 212.433 220.587C213.754 220.482 215.098 220.388 216.431 220.318C217.763 220.248 219.376 220.318 220.837 220.318C220.989 220.318 221.035 220.54 220.837 220.564C219.458 220.692 218.09 221.055 216.723 221.277L212.585 221.908C209.839 222.34 207.092 222.808 204.322 223.217C198.806 224.023 193.313 224.888 187.819 225.893C187.469 225.858 187.422 225.437 187.749 225.379Z" fill="#263238"/>
<path d="M187.025 380.928H87.085C98.7725 307.507 112.798 232.309 126.297 194.465C155.352 112.874 179.066 109.754 179.066 109.754V109.847C179.194 113.295 182.572 205.779 185.167 303.592C185.868 329.514 186.511 355.811 187.025 380.928Z" fill="#EBEBEB"/>
<path d="M170.522 337.112C170.522 334.26 169.891 320.75 169.634 318.026C169.634 317.711 169.517 317.08 169.26 317.08C165.532 317.08 152.593 318.4 139.562 318.4C130.243 318.225 120.943 317.499 111.71 316.227C111.278 316.355 111.278 331.198 111.044 338.374C110.577 353.346 111.266 370.281 114.457 373.437C120.418 379.281 136.301 378.778 141.338 378.731C146.376 378.685 164.129 378.673 168.301 369.51C170.078 365.408 170.569 344.51 170.522 337.112ZM168.185 352.306C167.974 359.692 167.741 366.331 164.9 370.223C162.469 373.507 155.609 376.815 139.819 376.803C128.412 376.803 118.781 374.711 116.152 371.672C112.996 368.037 112.645 357.589 112.645 351.348C112.645 342.734 112.645 335.85 112.645 327.248C134.7 332.367 158.963 329.842 168.161 327.984C168.196 328.347 168.395 346.521 168.22 352.306H168.185ZM168.243 326.593C139.597 330.275 121.867 327.201 112.681 325.425C112.681 322.666 112.681 320.516 112.681 317.746C116.619 318.739 129.873 320.317 139.807 320.317C149.052 320.317 162.633 319.032 168.395 318.342C168.231 320.609 168.348 325.542 168.278 326.582L168.243 326.593Z" fill="#DBDBDB"/>
<path d="M176.062 148.113C170.44 171.383 141.525 254.154 134.337 261.33C125.771 269.885 88.4172 296.194 75.3973 261.167C66.3745 236.915 127.687 151.9 156.661 124.422C170.803 111.087 185.47 109.123 176.062 148.113Z" fill="#EBEBEB"/>
<path d="M166.174 190.515C164.421 193.752 162.493 196.896 160.599 200.052C161.043 198.883 161.476 197.714 161.896 196.545C163.72 191.508 165.403 186.412 167.261 181.352C167.331 181.188 167.074 181.129 167.004 181.281C165.052 185.664 162.983 190.012 161.078 194.43C159.173 198.848 157.572 203.102 155.842 207.485C152.441 216.309 148.993 225.121 145.838 234.039C143.97 238.967 142.371 243.992 141.046 249.092C141.046 249.233 141.221 249.338 141.291 249.198C143.383 244.978 145.031 240.537 146.714 236.143C148.397 231.748 150.08 227.4 151.717 223.006C153.353 218.611 155.094 214.065 156.824 209.612C157.689 207.368 158.589 205.147 159.465 202.915C162.15 199.018 164.433 194.86 166.279 190.503C166.303 190.503 166.197 190.456 166.174 190.515Z" fill="#263238"/>
<path d="M178.014 109.859C174.897 116.436 171.874 123.059 168.944 129.728C166.023 136.39 163.007 143.005 160.179 149.714L159.828 150.555L160.588 151.07L172.848 159.356L172.556 157.591C169.225 162.57 165.999 167.607 162.75 172.633L162.434 173.124L162.61 173.662C165.894 183.841 169.061 194.056 172.509 204.189C175.957 214.323 179.335 224.467 182.958 234.577C180.176 224.23 177.262 213.933 174.215 203.687C171.27 193.402 168.044 183.21 164.936 172.972L164.795 174.001C168.091 169.01 171.41 164.031 174.636 158.982L175.302 157.93L174.286 157.264L161.873 149.2L162.294 150.555C165.076 143.835 167.647 137.033 170.335 130.278C173.023 123.522 175.513 116.685 178.014 109.859Z" fill="#DBDBDB"/>
<path d="M275.909 380.929H239.818C237.679 355.649 235.482 329.224 233.308 303.242C230.211 266.111 227.149 229.88 224.297 199.141C221.748 170.537 217.246 142.14 210.821 114.15C210.658 113.437 210.552 112.981 210.529 112.922C211.973 113.821 213.263 114.946 214.351 116.253C214.387 116.295 214.426 116.334 214.468 116.37L214.853 116.803C214.957 116.906 215.055 117.015 215.146 117.13C221.352 123.944 231.73 137.875 240.963 152.193C249.869 165.984 257.723 180.114 259.663 188.506L259.769 188.973C259.827 189.242 259.874 189.499 259.92 189.756C260.302 191.981 260.517 194.231 260.563 196.488C260.65 205.71 258.265 214.786 253.656 222.774C253.626 222.842 253.59 222.908 253.551 222.972C253.247 223.486 253.06 223.755 253.06 223.755V223.884L264.888 304.855L275.909 380.929Z" fill="#EBEBEB"/>
<path d="M247.426 164.044C243.92 158.41 240.262 152.835 236.79 147.155C236.685 146.992 236.942 146.805 237.059 146.957C240.565 151.632 244.072 156.307 247.473 161.063C246.304 158.527 245.24 155.979 244.224 153.385C244.107 153.092 244.516 152.847 244.656 153.139C246.234 156.47 247.648 159.86 249.051 163.272C252.103 167.503 254.808 171.975 257.138 176.643C261.965 186.566 264.046 197.412 261.428 208.258C260.718 211.254 259.659 214.157 258.272 216.906C257.337 218.776 254.287 222.844 254.31 222.96C256.297 234.04 257.816 245.249 259.347 256.399C260.878 267.548 262.526 278.955 263.847 290.292C264.583 296.697 265.016 303.149 265.998 309.542C265.998 309.775 265.67 309.869 265.635 309.635C264.829 304.072 263.625 298.567 262.631 293.027C261.638 287.487 260.715 281.947 259.815 276.384C258.015 265.164 256.402 253.897 254.777 242.642C253.866 236.284 252.861 229.915 252.136 223.521C252.054 222.82 254.929 218.285 255.783 216.509C256.919 214.155 257.85 211.707 258.564 209.193C260.027 204.081 260.48 198.734 259.897 193.449C258.669 182.674 253.083 173.078 247.426 164.044Z" fill="#263238"/>
<path d="M210.82 114.148C214.545 119.805 218.335 125.411 222.192 130.967C226.073 136.507 229.859 142.117 233.81 147.598L233.891 146.289L224.401 156.235L223.618 157.053L224.448 157.86C228.445 161.728 232.512 165.527 236.568 169.337L236.229 168.355C234.756 178.664 233.179 188.949 231.87 199.28C230.561 209.612 229.17 219.932 228.036 230.287C230 220.049 231.788 209.799 233.506 199.526C235.224 189.252 236.825 178.967 238.461 168.694L238.555 168.11L238.122 167.701C234.114 163.844 230.105 159.975 226.038 156.188V157.813L235.388 147.692L235.972 147.06L235.469 146.383C231.484 140.925 227.288 135.583 223.268 130.172C219.247 124.761 215.04 119.455 210.82 114.148Z" fill="#DBDBDB"/>
<path d="M165.192 127.285C164.246 113.459 180.994 107.966 191.349 106.54C203.609 104.857 211.779 105.874 217.681 117.772C223.899 130.312 227.16 144.863 229.602 158.596C230.058 161.156 234.055 160.513 233.599 157.942C230.783 142.129 226.739 112.618 210.984 104.039C196.48 96.1264 159.559 104.506 161.195 127.928C161.371 130.534 165.368 129.868 165.192 127.285Z" fill="#455A64"/>
<path d="M242.003 164.335C242.631 168.074 240.938 171.823 237.718 173.825C234.497 175.826 230.386 175.684 227.311 173.466C224.236 171.247 222.806 167.391 223.69 163.704C224.574 160.016 227.597 157.228 231.344 156.644C236.411 155.823 241.185 159.267 242.003 164.335Z" fill="#263238"/>
<path d="M238.345 164.931C238.816 167.982 236.726 170.839 233.675 171.315C230.624 171.791 227.764 169.707 227.282 166.657C226.801 163.607 228.879 160.743 231.929 160.255C233.4 160.017 234.907 160.377 236.112 161.255C237.317 162.133 238.121 163.456 238.345 164.931Z" fill="#EBEBEB"/>
<path d="M179.253 170.6C189.479 209.437 187.901 218.928 184.676 223.392C182.244 226.516 179.124 229.035 175.559 230.755L174.391 228.196C177.505 226.666 180.24 224.462 182.397 221.744C184.734 218.518 186.651 209.776 176.553 171.313L179.253 170.6Z" fill="#C7C7C7"/>
<path d="M172.656 234.136C172.119 234.433 171.444 234.239 171.147 233.703L169.312 230.39C169.015 229.853 169.209 229.178 169.745 228.881L176.35 225.222C176.887 224.925 177.562 225.119 177.859 225.656L179.694 228.969C179.991 229.505 179.797 230.181 179.261 230.478L172.656 234.136Z" fill="#263238"/>
<path d="M153.856 171.617C146.154 200.836 144.295 216.918 148.012 222.049C150.168 224.764 152.903 226.964 156.018 228.489L154.849 231.06C151.284 229.34 148.164 226.82 145.733 223.697C141.315 217.596 142.881 202.297 151.144 170.904L153.856 171.617Z" fill="#C7C7C7"/>
<path d="M154.279 235.283C153.743 234.987 153.548 234.311 153.845 233.775L155.677 230.46C155.974 229.924 156.649 229.729 157.186 230.026L163.794 233.68C164.33 233.976 164.525 234.652 164.228 235.188L162.395 238.503C162.099 239.039 161.423 239.234 160.887 238.937L154.279 235.283Z" fill="#263238"/>
<path d="M150.197 169.629C151.482 163.151 153.164 156.757 155.234 150.485C156.459 147.716 158.405 145.327 160.868 143.566C161.429 143.508 161.183 138.575 160.868 134.555C160.611 131.049 160.237 126.864 161.09 125.719C162.114 124.618 163.827 124.53 164.958 125.52C165.928 126.561 165.987 130.721 166.127 134.286C166.267 138.318 166.548 143.239 167.109 143.239C169.6 144.854 171.665 147.048 173.128 149.632C175.852 155.822 178.103 162.21 179.86 168.741C180.76 172.902 179.392 173.416 178.2 173.837C176.517 174.409 175.442 173.252 174.121 168.647C172.018 161.354 169.365 149.071 164.28 149.106C159.243 149.62 157.198 162.628 155.585 169.886C154.568 174.433 153.61 174.865 151.868 174.468C150.653 174.176 149.402 173.661 150.197 169.629Z" fill="#263238"/>
<path d="M211.65 110.596C211.65 110.596 212.819 133.118 208.658 133.492C196.047 134.661 182.022 117.317 181.251 114.57C181.052 113.869 182.069 96.3842 182.899 82.7916C183.425 74.0493 183.88 66.9199 183.88 66.9199L216.103 85.3862L211.954 108.913L211.65 110.596Z" fill="#E6BCB6"/>
<path d="M216.104 85.3862L211.955 108.913C198.998 104.729 188.434 95.2311 182.899 82.7916C183.425 74.0493 183.881 66.9199 183.881 66.9199L187.937 69.0704L216.104 85.3862Z" fill="#263238"/>
<path d="M249.273 47.9166C255.993 89.3138 231.952 98.0093 223.023 99.4469C214.923 100.756 187.165 104.18 176.202 63.6947C165.239 23.2091 182.362 7.01022 200.746 3.03645C219.131 -0.937317 242.552 6.51933 249.273 47.9166Z" fill="#E6BCB6"/>
<path d="M239.174 42.8094C238.207 42.749 237.243 42.6359 236.288 42.4704C235.26 42.4933 234.254 42.1771 233.424 41.5705C232.967 41.0729 232.9 40.3304 233.261 39.7589C234.135 38.7684 235.473 38.3224 236.767 38.5902C238.118 38.6539 239.396 39.2258 240.343 40.1914C240.739 40.6576 240.833 41.3098 240.583 41.8684C240.334 42.427 239.786 42.793 239.174 42.8094Z" fill="#263238"/>
<path d="M211.125 46.4076C212.095 46.1972 212.948 45.8466 213.883 45.5544C214.903 45.3904 215.84 44.8931 216.548 44.1402C216.91 43.5671 216.838 42.8216 216.373 42.3286C215.326 41.4895 213.906 41.2879 212.668 41.8027C211.354 42.1163 210.204 42.9079 209.442 44.0233C209.123 44.5656 209.151 45.2446 209.514 45.7587C209.877 46.2728 210.507 46.5266 211.125 46.4076Z" fill="#263238"/>
<path d="M218.99 55.8392C218.99 55.734 218.791 55.9911 218.803 56.108C219.224 58.9364 219.224 62.2439 216.758 63.4828C216.688 63.4828 216.758 63.6581 216.758 63.6348C219.878 62.84 219.843 58.4455 218.99 55.8392Z" fill="#263238"/>
<path d="M216.116 53.164C211.522 53.3393 212.212 62.514 216.478 62.3737C220.744 62.2335 219.972 53.012 216.116 53.164Z" fill="#263238"/>
<path d="M214.35 53.783C213.59 54.3674 212.866 55.3491 211.907 55.5128C210.949 55.6764 209.874 54.8115 209.079 53.9349C208.997 53.8531 208.915 53.9349 208.927 54.0635C209.032 55.8167 209.85 57.5698 211.755 57.6983C213.66 57.8269 214.619 56.1556 214.923 54.344C214.981 54.0168 214.63 53.5726 214.35 53.783Z" fill="#263238"/>
<path d="M234.64 53.7252C234.64 53.6083 234.874 53.8421 234.874 53.959C234.979 56.8107 235.575 60.0598 238.217 60.8312C238.298 60.8312 238.298 61.0065 238.217 60.9948C235.026 60.7728 234.278 56.4367 234.64 53.7252Z" fill="#263238"/>
<path d="M236.978 50.5686C241.536 49.9141 242.518 59.0771 238.298 59.6849C234.079 60.2926 233.156 51.1296 236.978 50.5686Z" fill="#263238"/>
<path d="M238.952 50.9655C239.735 51.3745 240.542 52.1342 241.418 52.1342C242.295 52.1342 243.055 50.9655 243.592 50.0071C243.651 49.9019 243.732 50.0071 243.744 50.0889C243.99 51.842 243.604 53.7237 241.956 54.238C240.308 54.7522 239.163 53.3263 238.555 51.6316C238.45 51.3278 238.637 50.8018 238.952 50.9655Z" fill="#263238"/>
<path d="M221.363 78.1172C222.064 78.76 222.777 79.66 223.817 79.7184C224.879 79.666 225.918 79.3913 226.867 78.9119C226.906 78.8918 226.954 78.9015 226.982 78.9352C227.01 78.9688 227.011 79.0175 226.984 79.0522C226.202 80.1995 224.861 80.8344 223.478 80.7118C222.273 80.4445 221.349 79.4744 221.141 78.2574C221.047 78.1172 221.257 78.1172 221.363 78.1172Z" fill="#263238"/>
<path d="M232.36 66.8268C232.36 66.8268 233.319 71.0226 233.529 73.0329C233.529 73.2199 233.062 73.3485 232.36 73.4536C232.36 73.4536 232.36 73.4536 232.29 73.4536C228.841 74.4041 225.149 73.3436 222.73 70.7071C222.566 70.5201 222.8 70.298 222.999 70.4032C225.708 71.9245 228.835 72.5311 231.916 72.1329C232.01 71.5719 230.035 65.0036 230.35 64.9568C231.93 64.9493 233.504 65.1617 235.025 65.5879C233.284 56.7872 230.14 48.3371 228.539 39.5481C228.529 39.4205 228.607 39.3024 228.728 39.2611C228.849 39.2198 228.983 39.2658 229.053 39.3728C232.968 47.9982 235.201 58.0728 237.234 67.119C237.445 68.241 233.19 67.0956 232.36 66.8268Z" fill="#263238"/>
<path d="M230.082 73.0556C229.141 74.4077 227.864 75.4913 226.377 76.1996C225.556 76.5691 224.639 76.6674 223.759 76.4801C221.842 76.071 221.725 74.3296 222.006 72.8219C222.16 72.0154 222.411 71.2305 222.754 70.4844C224.856 72.1084 227.426 73.0102 230.082 73.0556Z" fill="#263238"/>
<path d="M226.377 76.2C225.556 76.5695 224.639 76.6678 223.759 76.4805C221.842 76.0714 221.725 74.33 222.006 72.8223C224.039 72.9508 226.12 74.2365 226.377 76.2Z" fill="#FF99BA"/>
<path d="M176.202 65.2602C181.692 62.6277 185.391 57.2992 185.938 51.2352C193.279 48.0595 199.641 42.9843 204.369 36.5322C204.089 37.3971 202.032 43.6266 200.863 46.7588C227.464 41.9202 235.785 21.619 235.785 21.619C244.376 30.256 246.07 35.7726 247.297 38.5191C247.297 38.5191 247.578 22.1566 239.233 11.2521C233.499 3.51643 223.71 -0.0634974 214.339 2.14752C201.537 -2.27378 187.332 1.41094 178.294 11.4976C160.938 30.1976 176.202 65.2602 176.202 65.2602Z" fill="#263238"/>
<path d="M221.106 42.5167C216.826 44.8321 212.225 46.4983 207.455 47.4605C214.934 45.4534 221.707 41.407 227.02 35.773C229.276 33.364 231.216 30.6777 232.793 27.7787C234.644 24.6742 235.864 21.2345 236.381 17.6573C236.404 17.5627 236.489 17.4961 236.586 17.4961C236.683 17.4961 236.768 17.5627 236.79 17.6573C236.667 21.2603 235.936 24.8166 234.628 28.176C233.18 31.4087 231.157 34.3512 228.656 36.8599C226.415 39.0926 223.869 40.9971 221.094 42.5166" fill="#263238"/>
<path d="M213.801 71.1043C206.994 71.2605 201.205 66.1736 200.484 59.4039C199.763 52.6341 204.351 46.4419 211.038 45.1613C217.724 43.8807 224.276 47.9392 226.108 54.4963C228.045 61.4604 223.976 68.6778 217.015 70.6251C215.967 70.9149 214.887 71.0758 213.801 71.1043ZM213.24 46.6773C212.294 46.6978 211.356 46.8392 210.446 47.0981C204.69 48.7193 201.187 54.5364 202.445 60.3825C203.703 66.2285 209.29 70.0888 215.203 69.198C221.117 68.3073 225.319 62.9726 224.799 57.0152C224.279 51.0579 219.218 46.531 213.24 46.6773Z" fill="#232527"/>
<path d="M243.522 66.7788C238.52 66.8957 233.857 61.87 232.899 55.0913C232.39 51.8669 232.905 48.5643 234.371 45.6477C235.504 43.0363 237.913 41.2015 240.732 40.8032C243.551 40.405 246.374 41.5006 248.186 43.6959C250.402 46.0984 251.808 49.1357 252.206 52.3797C253.211 59.5208 249.705 65.949 244.376 66.697C244.094 66.748 243.809 66.7753 243.522 66.7788ZM241.641 42.4687C241.419 42.4571 241.196 42.4571 240.975 42.4687C238.746 42.8931 236.861 44.3693 235.914 46.4308C234.625 49.0228 234.18 51.9529 234.64 54.8108C235.505 61.0051 239.759 65.5516 244.13 64.9321C248.501 64.3127 251.341 58.7728 250.476 52.5901C250.131 49.7189 248.906 47.0246 246.97 44.8764C245.615 43.3547 243.678 42.4796 241.641 42.4687Z" fill="#232527"/>
<path d="M225.886 56.0744L224.577 54.9056C226.319 52.9772 230.549 50.1254 234.184 53.059L233.086 54.4264C229.825 51.7851 226.038 55.9108 225.886 56.0744Z" fill="#232527"/>
<path d="M168.593 67.5981L166.945 67.0137C167.214 66.2423 169.692 59.4519 173.467 58.2831C176.973 57.1962 200.547 56.0976 201.517 56.0625L201.599 57.804C194.855 58.1078 176.693 59.1129 173.97 59.9545C171.492 60.6791 169.248 65.6813 168.593 67.5981Z" fill="#232527"/>
<path d="M183.297 65.8096C183.297 65.8096 173.199 53.4325 167.507 57.1374C161.815 60.8423 170.101 79.2853 177.231 81.3072C179.044 81.972 181.05 81.8675 182.784 81.018C184.519 80.1685 185.831 78.6476 186.417 76.8075L183.297 65.8096Z" fill="#E6BCB6"/>
<path d="M170.019 62.3496C169.968 62.3496 169.926 62.3915 169.926 62.4431C169.926 62.4948 169.968 62.5366 170.019 62.5366C175.033 64.1495 177.943 68.4855 180.094 73.0554C178.504 71.3607 176.459 70.5192 174.168 72.4243C174.051 72.5294 174.168 72.7165 174.32 72.6814C176.035 71.9901 178 72.4589 179.217 73.8502C180.209 74.9889 181.075 76.231 181.8 77.5551C182.057 77.9758 182.829 77.6837 182.63 77.1928V77.0759C182.221 70.8231 176.74 62.4782 170.019 62.3496Z" fill="#263238"/>
<path d="M181.041 79.1689C181.108 79.7173 180.863 80.2575 180.406 80.568C179.949 80.8784 179.357 80.9067 178.872 80.6413C178.387 80.3759 178.092 79.8615 178.107 79.3091C178.128 78.539 178.739 77.9154 179.509 77.8787C180.278 77.8419 180.946 78.4044 181.041 79.1689Z" fill="white"/>
<path d="M176.81 76.8309C176.836 77.3408 176.443 77.7751 175.933 77.8009C175.423 77.8268 174.989 77.4343 174.963 76.9244C174.937 76.4145 175.33 75.9801 175.84 75.9543C176.35 75.9285 176.784 76.321 176.81 76.8309Z" fill="white"/>
<path d="M211.663 111.729L204.65 130.102L181.555 107.463L175.279 114.99C175.279 114.99 198.14 151.221 198.245 149.561L205.456 133.701L216.513 144.431L215.11 117L211.663 111.729Z" fill="#90CAF9"/>
<path d="M216.618 130.828C216.244 126.305 215.975 121.747 215.449 117.247C215.449 117.084 215.168 117.014 215.133 117.247C214.315 121.63 215.87 138.916 215.928 143.065C215.472 142.598 205.69 133.633 205.596 133.785C204.018 136.31 198.724 147.81 198.362 148.909C194.75 143.159 179.44 120.485 175.185 115.015C175.14 114.941 175.043 114.917 174.969 114.962C174.895 115.008 174.871 115.104 174.917 115.179C178.131 121.268 197.929 151.188 198.198 151.094C200.997 145.641 203.513 140.047 205.737 134.334C207.396 136.298 217.284 146.431 217.307 145.765C217.342 140.777 217.112 135.791 216.618 130.828Z" fill="#263238"/>
<path d="M213.298 171.148C213.298 171.148 204.264 159.227 212.889 153.722C221.515 148.217 228.516 161.436 228.516 161.436L213.298 171.148Z" fill="#455A64"/>
<path d="M284.756 249.595L286.006 264.17L286.45 268.985L282.231 266.589L269.562 259.272L213.006 170.634L228.2 160.922L284.756 249.595Z" fill="#455A64"/>
<path d="M286.042 264.193L286.462 268.997L282.255 266.601L286.042 264.193Z" fill="#37474F"/>
<rect x="214.72" y="163.838" width="21.0726" height="4.18414" transform="rotate(-32.54 214.72 163.838)" fill="#263238"/>
<rect x="217.195" y="167.748" width="21.0726" height="4.18414" transform="rotate(-32.54 217.195 167.748)" fill="#263238"/>
<path d="M216.139 178.406L221.866 174.748L239.175 208.841L236.989 210.056L216.139 178.406Z" fill="#263238"/>
<path d="M180.737 202.438C189.421 200.72 215.8 274.959 203.119 278.103C146.832 292.128 100.748 283.292 89.8317 278.103C75.5145 271.242 74.3224 252.858 80.3064 244.372C90.7434 229.658 167.273 205.114 180.737 202.438Z" fill="#E6BCB6"/>
<path d="M288.835 198.497C288.695 207.064 267.599 204.937 267.599 204.937C270.644 207.032 272.857 210.131 273.851 213.691C275.312 220.037 266.009 225.11 266.009 225.11C268.707 227.944 270.49 231.523 271.128 235.383C271.911 241.601 263.251 248.052 263.251 248.052C264.301 252.022 263.886 256.238 262.082 259.927C256.858 269.581 198.56 278.907 191.302 280.228L177.277 204.259C177.277 204.259 223.081 178.359 235.715 179.224C246.339 179.867 289.045 185.372 288.835 198.497Z" fill="#E6BCB6"/>
<path d="M267.435 204.657C256.309 201.15 244.364 200.344 232.84 199.678C232.731 199.678 232.642 199.767 232.642 199.876C232.642 199.986 232.731 200.075 232.84 200.075C244.317 200.601 255.923 204.212 267.354 205.206C267.493 205.207 267.612 205.105 267.633 204.967C267.653 204.829 267.569 204.696 267.435 204.657Z" fill="#263238"/>
<path d="M265.717 224.211C263.113 223.664 260.449 223.459 257.793 223.603C254.972 223.603 252.156 223.626 249.343 223.673C243.702 223.813 238.068 224.098 232.443 224.526C232.197 224.526 232.162 224.924 232.443 224.924C238.053 224.795 243.674 224.748 249.296 224.854C252.113 224.854 254.918 224.982 257.734 225.076C260.379 225.337 263.044 225.306 265.682 224.982C265.848 224.932 265.965 224.783 265.973 224.609C265.981 224.435 265.878 224.276 265.717 224.211Z" fill="#263238"/>
<path d="M263.006 248.019C260.832 247.318 258.109 247.75 255.853 247.855L248.139 248.171C243.008 248.346 237.877 248.521 232.735 248.521C232.478 248.521 232.454 248.919 232.735 248.919C237.959 248.919 243.184 249.047 248.396 249.024C250.967 249.024 253.527 249.024 256.098 248.954C258.272 248.954 261.007 249.129 263.111 248.276C263.171 248.241 263.197 248.166 263.17 248.102C263.144 248.037 263.073 248.002 263.006 248.019Z" fill="#263238"/>
<path d="M172.182 203.418L197.392 287.066C197.392 287.066 105.575 291.542 85.8812 277.225C72.1951 267.267 73.3288 248.532 79.5115 242.08C93.0106 227.997 172.182 203.418 172.182 203.418Z" fill="#EBEBEB"/>
<path d="M173.199 283.817C169.237 272.129 154.756 223.977 152.325 213.353C152.161 212.616 152.582 212.336 152.862 213.072C165.578 247.656 170.394 272.036 173.654 283.642C173.725 283.957 173.304 284.132 173.199 283.817Z" fill="#263238"/>
<path d="M172.205 202.554C171.702 202.449 162.855 204.74 160.026 205.57C154.502 207.214 149.017 208.998 143.57 210.923C132.725 214.744 122.083 219.121 111.687 224.036L110.132 224.784C106.334 225.696 102.629 227.005 98.9357 228.22C98.8305 228.22 98.9357 228.419 98.9357 228.384C101.893 227.402 104.896 226.631 107.9 225.836C106.24 226.642 104.569 227.46 102.933 228.314C100.023 229.821 97.1825 231.446 94.2957 232.989C94.2666 233.001 94.2473 233.029 94.2461 233.061C94.245 233.092 94.2622 233.122 94.2903 233.136C94.3184 233.151 94.3524 233.148 94.3775 233.129C99.2279 230.616 104.265 228.384 109.244 226.116C114.223 223.849 119.412 221.64 124.555 219.56C134.688 215.457 145.02 211.787 155.48 208.562C158.425 207.662 161.324 206.797 164.339 205.955C165.788 205.546 171.819 203.501 172.076 203.478C172.217 203.694 172.323 203.93 172.392 204.179C172.462 204.424 172.742 204.424 172.684 204.179C172.588 203.621 172.427 203.075 172.205 202.554Z" fill="#263238"/>
<path d="M184.641 287.441C181.976 287.254 172.147 287.733 169.517 287.733C164.211 287.733 158.917 287.733 153.61 287.639C142.951 287.359 132.339 286.588 121.727 285.571C118.793 285.29 115.883 284.975 112.914 284.659C109.946 284.344 106.755 284.11 103.74 283.561C103.623 283.561 103.576 283.724 103.74 283.748C106.381 284.133 108.976 284.753 111.605 285.209C114.235 285.664 116.876 286.062 119.53 286.436C124.836 287.184 130.165 287.71 135.506 288.154C146.165 289.03 156.895 289.323 167.589 289.124C170.604 289.065 181.859 288.598 184.781 287.955C185.073 287.943 184.945 287.464 184.641 287.441Z" fill="#263238"/>
<path d="M361.157 303.884L264.735 310.873L300.78 183.923L397.202 176.934L361.157 303.884Z" fill="white"/>
<path d="M367.749 303.405L271.339 310.394L307.383 183.444L403.794 176.455L367.749 303.405Z" fill="#37474F"/>
<path d="M317.621 182.719C317.129 184.927 315.774 186.846 313.858 188.049C312.981 188.61 312.689 187.429 313.519 186.88C314.735 186.079 315.641 184.887 316.09 183.502C316.149 183.28 316.219 183.023 316.254 182.801C316.461 182.036 316.461 181.229 316.254 180.464C316.154 180.134 315.943 179.849 315.658 179.657C315.631 179.643 315.607 179.623 315.588 179.599C315.588 179.599 315.483 179.599 315.471 179.599C315.409 179.607 315.346 179.607 315.284 179.599C315.053 179.571 314.818 179.608 314.606 179.704C314.197 179.881 313.836 180.154 313.554 180.499C313.207 180.91 312.916 181.366 312.689 181.854C312.551 182.093 312.426 182.338 312.315 182.591V182.766C312.272 182.847 312.241 182.934 312.222 183.023C312.222 183.023 312.152 183.128 312.163 183.187L310.796 183.292C311.075 182.418 311.468 181.585 311.965 180.814C312.698 179.471 313.977 178.512 315.471 178.185C316.615 178.06 317.651 178.868 317.808 180.008C317.974 180.913 317.909 181.845 317.621 182.719Z" fill="#90CAF9"/>
<path d="M325.171 182.136C324.669 184.34 323.316 186.255 321.408 187.466C320.52 188.027 320.239 186.846 321.069 186.297C322.285 185.498 323.188 184.306 323.629 182.919C323.703 182.69 323.762 182.456 323.804 182.218C324.011 181.453 324.011 180.646 323.804 179.881C323.7 179.55 323.485 179.265 323.196 179.074C323.177 179.078 323.157 179.078 323.138 179.074C323.138 179.074 323.033 179.074 323.009 179.074H322.834C322.603 179.047 322.368 179.083 322.156 179.179C321.747 179.357 321.386 179.629 321.104 179.974C320.749 180.38 320.457 180.837 320.239 181.33C320.101 181.572 319.976 181.822 319.865 182.078V182.241C319.815 182.32 319.78 182.407 319.76 182.499C319.76 182.557 319.702 182.615 319.76 182.662L318.393 182.767C318.666 181.892 319.06 181.058 319.561 180.29C320.292 178.945 321.572 177.985 323.068 177.66C324.21 177.542 325.242 178.346 325.405 179.483C325.54 180.374 325.46 181.283 325.171 182.136Z" fill="#90CAF9"/>
<path d="M332.675 181.621C332.17 183.83 330.814 185.75 328.9 186.963C328.024 187.512 327.731 186.331 328.561 185.794C329.78 184.996 330.688 183.803 331.133 182.416C331.133 182.194 331.273 181.949 331.308 181.727C331.506 180.96 331.506 180.156 331.308 179.389C331.212 179.057 331.001 178.771 330.712 178.583L330.642 178.583C330.642 178.583 330.548 178.583 330.525 178.583H330.338C330.111 178.548 329.88 178.58 329.672 178.676C329.259 178.853 328.894 179.125 328.608 179.471C328.261 179.882 327.97 180.338 327.743 180.827C327.603 181.06 327.498 181.317 327.369 181.575V181.738C327.328 181.82 327.297 181.906 327.276 181.995C327.276 182.054 327.217 182.112 327.276 182.159L325.908 182.264C326.181 181.388 326.575 180.554 327.077 179.786C327.809 178.445 329.089 177.489 330.583 177.168C331.725 177.037 332.763 177.841 332.921 178.98C333.05 179.867 332.966 180.773 332.675 181.621Z" fill="#90CAF9"/>
<path d="M340.26 181.072C339.764 183.282 338.41 185.203 336.497 186.414C335.62 186.975 335.328 185.783 336.158 185.245C337.371 184.441 338.277 183.251 338.729 181.867C338.787 181.633 338.858 181.388 338.893 181.166C339.098 180.4 339.098 179.594 338.893 178.828C338.79 178.5 338.58 178.216 338.297 178.022H338.226C338.226 178.022 338.121 178.022 338.11 178.022H337.923C337.691 177.983 337.453 178.02 337.245 178.127C336.834 178.296 336.472 178.565 336.193 178.91C335.845 179.322 335.555 179.778 335.328 180.266C335.189 180.508 335.064 180.758 334.954 181.014L334.954 181.178C334.914 181.26 334.883 181.346 334.86 181.435C334.86 181.493 334.79 181.552 334.802 181.61L333.435 181.704C333.713 180.83 334.106 179.997 334.603 179.226C335.336 177.885 336.616 176.93 338.11 176.608C339.252 176.476 340.289 177.281 340.447 178.419C340.602 179.306 340.538 180.217 340.26 181.072Z" fill="#90CAF9"/>
<path d="M347.869 180.522C347.364 182.728 346.012 184.647 344.105 185.864C343.217 186.425 342.936 185.233 343.766 184.695C344.979 183.893 345.882 182.702 346.326 181.317C346.401 181.088 346.459 180.854 346.501 180.616C346.709 179.851 346.709 179.044 346.501 178.278C346.397 177.945 346.183 177.656 345.893 177.46C345.874 177.464 345.854 177.464 345.835 177.46C345.835 177.46 345.73 177.46 345.706 177.46H345.531C345.3 177.427 345.064 177.463 344.853 177.566C344.445 177.738 344.084 178.007 343.801 178.349C343.448 178.76 343.157 179.221 342.937 179.716C342.796 179.953 342.671 180.199 342.562 180.452V180.616C342.515 180.696 342.479 180.783 342.457 180.873C342.457 180.932 342.399 180.99 342.457 181.048L341.09 181.142C341.364 180.266 341.757 179.432 342.259 178.664C342.993 177.325 344.272 176.369 345.765 176.046C346.905 175.921 347.939 176.722 348.102 177.858C348.239 178.752 348.159 179.666 347.869 180.522Z" fill="#90CAF9"/>
<path d="M355.36 179.985C354.851 182.188 353.495 184.103 351.585 185.314C350.708 185.875 350.416 184.683 351.246 184.145C352.462 183.344 353.369 182.153 353.817 180.768C353.876 180.546 353.957 180.288 353.992 180.066C354.194 179.3 354.194 178.495 353.992 177.729C353.894 177.396 353.683 177.107 353.396 176.911L353.326 176.911C353.326 176.911 353.233 176.911 353.209 176.911C353.147 176.919 353.084 176.919 353.022 176.911C352.795 176.88 352.563 176.916 352.356 177.016C351.941 177.189 351.576 177.462 351.293 177.811C350.945 178.222 350.654 178.678 350.428 179.166C350.287 179.388 350.182 179.646 350.054 179.903V180.078C350.012 180.156 349.981 180.238 349.96 180.323C349.944 180.381 349.944 180.441 349.96 180.499L348.593 180.592C348.868 179.721 349.262 178.891 349.762 178.126C350.496 176.784 351.774 175.825 353.268 175.497C354.41 175.365 355.448 176.169 355.605 177.308C355.739 178.207 355.655 179.125 355.36 179.985Z" fill="#90CAF9"/>
<path d="M362.899 179.436C362.406 181.644 361.051 183.563 359.135 184.766C358.259 185.327 357.967 184.146 358.797 183.597C360.012 182.795 360.919 181.604 361.368 180.219C361.426 179.997 361.496 179.74 361.531 179.518C361.738 178.753 361.738 177.946 361.531 177.18C361.431 176.851 361.221 176.566 360.935 176.374C360.908 176.36 360.884 176.34 360.865 176.316C360.865 176.316 360.76 176.316 360.748 176.316C360.686 176.324 360.623 176.324 360.561 176.316C360.33 176.288 360.096 176.324 359.884 176.421C359.474 176.598 359.114 176.87 358.832 177.216C358.48 177.624 358.189 178.08 357.967 178.571C357.828 178.809 357.703 179.055 357.593 179.308V179.483C357.551 179.566 357.516 179.652 357.488 179.74C357.488 179.74 357.429 179.845 357.488 179.904L356.12 180.009C356.399 179.135 356.792 178.302 357.289 177.531C358.022 176.188 359.301 175.229 360.795 174.901C361.939 174.777 362.975 175.585 363.133 176.725C363.283 177.634 363.203 178.566 362.899 179.436Z" fill="#90CAF9"/>
<path d="M370.449 178.886C369.946 181.09 368.593 183.005 366.685 184.216C365.797 184.777 365.516 183.596 366.346 183.047C367.56 182.251 368.463 181.063 368.906 179.681C368.981 179.452 369.039 179.217 369.081 178.98C369.283 178.214 369.283 177.408 369.081 176.642C368.977 176.312 368.763 176.027 368.473 175.836C368.454 175.839 368.434 175.839 368.415 175.836C368.415 175.836 368.31 175.836 368.286 175.836H368.111C367.88 175.808 367.645 175.845 367.433 175.941C367.024 176.118 366.664 176.391 366.381 176.736C366.026 177.141 365.734 177.598 365.517 178.092C365.378 178.334 365.253 178.583 365.143 178.84L365.143 179.003C365.093 179.082 365.057 179.169 365.037 179.26C365.037 179.319 364.979 179.377 365.037 179.424L363.67 179.529C363.944 178.653 364.337 177.82 364.839 177.051C365.569 175.706 366.849 174.746 368.345 174.422C369.487 174.303 370.519 175.108 370.682 176.245C370.815 177.132 370.735 178.037 370.449 178.886Z" fill="#90CAF9"/>
<path d="M378 178.336C377.495 180.545 376.138 182.464 374.224 183.677C373.348 184.227 373.056 183.046 373.885 182.509C375.104 181.711 376.012 180.518 376.457 179.131C376.515 178.909 376.597 178.663 376.632 178.441C376.83 177.675 376.83 176.87 376.632 176.104C376.537 175.772 376.325 175.486 376.036 175.297H375.966C375.966 175.297 375.872 175.297 375.849 175.297H375.662C375.436 175.263 375.204 175.295 374.996 175.391C374.583 175.568 374.219 175.84 373.932 176.186C373.585 176.597 373.294 177.053 373.067 177.541C372.927 177.775 372.822 178.032 372.693 178.289V178.453C372.654 178.535 372.622 178.622 372.6 178.71C372.6 178.769 372.6 178.827 372.6 178.874L371.232 178.979C371.505 178.103 371.899 177.269 372.401 176.501C373.133 175.16 374.413 174.204 375.907 173.883C377.049 173.752 378.087 174.556 378.245 175.695C378.375 176.582 378.29 177.488 378 178.336Z" fill="#90CAF9"/>
<path d="M385.538 177.787C385.041 179.997 383.688 181.918 381.774 183.129C380.898 183.69 380.605 182.497 381.435 181.96C382.646 181.153 383.551 179.964 384.007 178.582C384.065 178.348 384.135 178.103 384.17 177.881C384.375 177.115 384.375 176.309 384.17 175.543C384.068 175.215 383.858 174.931 383.574 174.737H383.504C383.504 174.737 383.399 174.737 383.387 174.737H383.2C382.969 174.698 382.731 174.735 382.522 174.842C382.111 175.011 381.75 175.28 381.47 175.625C381.119 176.034 380.828 176.49 380.605 176.981C380.467 177.223 380.342 177.473 380.231 177.729V177.892C380.188 177.975 380.153 178.061 380.126 178.15C380.126 178.208 380.068 178.267 380.126 178.325L378.759 178.418C379.037 177.545 379.43 176.711 379.928 175.941C380.661 174.6 381.94 173.645 383.434 173.323C384.576 173.191 385.614 173.996 385.771 175.134C385.912 176.024 385.831 176.935 385.538 177.787Z" fill="#90CAF9"/>
<path d="M393.087 177.239C392.583 179.445 391.231 181.363 389.324 182.58C388.436 183.141 388.155 181.949 388.985 181.412C390.198 180.61 391.101 179.419 391.545 178.034C391.619 177.805 391.678 177.57 391.72 177.333C391.921 176.567 391.921 175.761 391.72 174.995C391.616 174.662 391.402 174.373 391.112 174.177C391.093 174.181 391.073 174.181 391.054 174.177C391.054 174.177 390.948 174.177 390.925 174.177H390.75C390.518 174.144 390.282 174.18 390.072 174.282C389.664 174.455 389.303 174.724 389.02 175.065C388.667 175.479 388.372 175.939 388.144 176.433C388.007 176.67 387.885 176.916 387.781 177.169V177.333C387.733 177.413 387.698 177.499 387.676 177.59C387.676 177.648 387.618 177.707 387.676 177.765L386.309 177.859C386.582 176.983 386.976 176.149 387.477 175.381C388.212 174.041 389.491 173.086 390.984 172.763C392.124 172.638 393.158 173.439 393.321 174.574C393.458 175.469 393.378 176.383 393.087 177.239Z" fill="#90CAF9"/>
<path d="M400.638 176.701C400.129 178.905 398.773 180.82 396.863 182.031C395.987 182.592 395.694 181.4 396.524 180.862C397.74 180.061 398.647 178.87 399.095 177.484C399.154 177.262 399.224 177.005 399.271 176.783C399.472 176.017 399.472 175.212 399.271 174.446C399.172 174.112 398.962 173.823 398.675 173.627H398.605C398.605 173.627 398.511 173.627 398.488 173.627C398.426 173.636 398.363 173.636 398.301 173.627C398.073 173.596 397.841 173.633 397.635 173.733C397.22 173.905 396.854 174.178 396.571 174.527C396.224 174.939 395.933 175.395 395.706 175.883C395.566 176.105 395.461 176.362 395.332 176.619V176.795C395.291 176.872 395.259 176.955 395.239 177.04C395.223 177.098 395.223 177.158 395.239 177.216L393.871 177.309C394.149 176.435 394.542 175.602 395.04 174.831C395.779 173.496 397.056 172.542 398.546 172.213C399.688 172.082 400.726 172.886 400.884 174.025C401.017 174.924 400.933 175.842 400.638 176.701Z" fill="#90CAF9"/>
<path d="M399.048 204.996C404.156 215.433 416.848 228.371 417.982 236.891C418.706 241.203 416.516 245.478 412.594 247.41C412.594 247.41 421.208 251.583 420.951 259.518C420.81 263.609 414.172 266.975 414.172 266.975C414.172 266.975 420.916 270.622 420.261 277.669C419.723 283.279 413.155 285.85 413.155 285.85C413.155 285.85 417.994 292.337 415.656 297.842C410.853 309.085 362.454 309.646 354.776 291.905C351.188 283.642 363.015 284.144 363.015 284.144C363.015 284.144 346.185 279.317 345.811 269.336C345.437 259.355 360.771 260.944 360.771 260.944C360.771 260.944 344.502 256.117 345.157 245.751C345.846 234.951 360.912 239.159 360.912 239.159C360.912 239.159 350.066 231.983 352.392 224.152C356.225 211.226 376.783 227.191 387.454 224.549L393.123 206.936L399.048 204.996Z" fill="#E6BCB6"/>
<path d="M408.924 220.131C404.962 209.823 417.632 196.896 415.247 186.506C412.033 172.481 396.314 186.436 393.041 206.959L393.275 223.322L408.924 220.131Z" fill="#E6BCB6"/>
<path d="M412.15 286.377C412.302 286.377 412.36 286.588 412.15 286.623C396.278 290.69 377.59 290.293 362.268 284.285C361.765 284.086 361.87 283.187 362.466 283.303C379.53 286.459 394.864 287.967 412.15 286.377Z" fill="#263238"/>
<path d="M414.405 267.08C414.592 267.08 414.627 267.372 414.405 267.419C398.043 271.521 377.005 270.493 360.152 261.423C359.567 261.119 359.369 260.255 360.058 260.57C371.734 265.736 398.837 268.623 414.405 267.08Z" fill="#263238"/>
<path d="M359.848 238.13C376.339 246.195 393.742 248.17 411.939 247.62C412.173 247.62 412.161 247.948 411.939 248.006C403.115 250.694 391.498 249.841 382.51 248.403C374.144 247.233 366.23 243.893 359.556 238.715C359.299 238.504 359.556 237.966 359.848 238.13Z" fill="#263238"/>
<path d="M0.000976562 380.928L58.9178 380.648L117.835 380.542L235.668 380.344L353.502 380.542L412.419 380.648L471.336 380.928L412.419 381.22L353.502 381.314L235.668 381.512L117.835 381.314L58.9178 381.209L0.000976562 380.928Z" fill="#263238"/>
</svg>
