<svg width="32" height="33" viewBox="0 0 32 33" fill="none" xmlns="http://www.w3.org/2000/svg">
<path d="M28.125 0.75H3.375C1.51104 0.75 -4.76837e-07 2.26104 0 4.125V28.875C0 30.739 1.51104 32.25 3.375 32.25H13.0254V21.5407H8.5957V16.5H13.0254V12.6581C13.0254 8.2882 15.627 5.87437 19.6116 5.87437C21.5198 5.87437 23.5153 6.21469 23.5153 6.21469V10.5037H21.3166C19.1503 10.5037 18.4746 11.8481 18.4746 13.227V16.5H23.3107L22.5373 21.5407H18.4746V32.25H28.125C29.989 32.25 31.5 30.739 31.5 28.875L31.5 4.125C31.5 2.26104 29.989 0.75 28.125 0.75Z" fill="white"/>
</svg>
