<svg width="255" height="49" viewBox="0 0 255 49" fill="none" xmlns="http://www.w3.org/2000/svg">
<path d="M10.7832 15.7949L0 42.2539H12.5352L17.0492 31.1747L23.3181 15.7949L17.0492 0.412598L10.7832 15.7949Z" fill="#C8EDD8"/>
<path d="M185.825 8.56885C176.472 8.56885 168.89 16.1511 168.89 25.5046C168.89 34.858 176.472 42.4403 185.825 42.4403C195.178 42.4403 202.76 34.858 202.76 25.5046C202.76 16.1511 195.178 8.56885 185.825 8.56885ZM185.825 34.1404C181.055 34.1404 177.189 30.2741 177.189 25.5046C177.189 20.7351 181.055 16.8687 185.825 16.8687C190.594 16.8687 194.46 20.7351 194.46 25.5046C194.46 30.2741 190.594 34.1404 185.825 34.1404Z" fill="#03AD4A"/>
<path d="M74.333 34.3109C72.9901 34.3109 71.719 34.0037 70.5864 33.4549L73.1294 32.0607L82.8879 26.7102L88.2281 23.7814L90.8889 22.3221C90.3208 19.5186 89.0578 16.9668 87.2884 14.8548C84.19 11.1557 79.5359 8.80322 74.333 8.80322C65.0031 8.80322 57.4404 16.3662 57.4404 25.6963C57.4404 35.0265 65.0031 42.5903 74.333 42.5903C81.4113 42.5903 87.4731 38.2362 89.9864 32.0607H80.1388C78.6076 33.4588 76.5696 34.3109 74.333 34.3109ZM65.7195 25.6963C65.7195 25.0385 65.7938 24.3972 65.9331 23.7814C66.8036 19.9458 70.2343 17.0826 74.333 17.0826C76.3819 17.0826 78.2634 17.7973 79.7422 18.9922L71.0085 23.7814L65.7722 26.653C65.7372 26.3385 65.7195 26.0198 65.7195 25.6963Z" fill="#03AD4A"/>
<g opacity="0.211761">
<mask id="mask0_1_5387" style="mask-type:alpha" maskUnits="userSpaceOnUse" x="21" y="0" width="24" height="43">
<rect x="21.6562" y="0.410645" width="23.317" height="41.8426" fill="#D9D9D9"/>
</mask>
<g mask="url(#mask0_1_5387)">
<path d="M44.9733 15.7932L38.7229 31.131L38.7061 31.173L34.1906 42.2531H21.6562L27.8786 26.9826L32.4389 15.7932L38.7061 0.410645L38.7229 0.452687L44.9733 15.7932Z" fill="#03AD4A"/>
</g>
</g>
<g filter="url(#filter0_d_1_5387)">
<path d="M34.103 42.2531H21.563L17.0504 31.173L10.7832 15.7932L17.0504 0.410645L23.3176 15.7932L27.8778 26.9826L34.103 42.2531Z" fill="#03AD4A"/>
</g>
<g filter="url(#filter1_d_1_5387)">
<path d="M55.7906 42.2531H43.2534L38.738 31.173L38.7212 31.131L32.4736 15.7932L38.7212 0.452687L38.738 0.410645L45.008 15.7932L55.7906 42.2531Z" fill="#03AD4A"/>
</g>
<path d="M121.333 0.410645V11.0871C118.788 9.56228 115.811 8.68495 112.633 8.68495C103.274 8.68495 95.6865 16.2725 95.6865 25.6316C95.6865 34.9906 103.274 42.5754 112.633 42.5754C115.811 42.5754 118.788 41.7009 121.333 40.1761V42.2419H128.836V0.410645H121.333ZM112.633 34.3319C109.778 34.3319 107.246 32.9582 105.66 30.8364C104.574 29.3847 103.931 27.5827 103.931 25.6302C103.931 20.8254 107.827 16.9304 112.631 16.9304C114.134 16.9304 115.546 17.311 116.78 17.9812C119.491 19.4542 121.333 22.3269 121.333 25.6316C121.333 30.4358 117.437 34.3319 112.633 34.3319Z" fill="#03AD4A"/>
<path d="M148.318 8.68495C145.137 8.68495 142.161 9.56228 139.618 11.0871V0.410645H132.154V42.2419H139.618V40.1761C142.161 41.7009 145.137 42.5754 148.318 42.5754C157.677 42.5754 165.265 34.9906 165.265 25.6316C165.265 16.2725 157.677 8.68495 148.318 8.68495ZM148.318 34.3319C146.066 34.3319 144.013 33.4754 142.468 32.0705C140.717 30.479 139.618 28.1831 139.618 25.6302C139.618 20.8254 143.513 16.9304 148.318 16.9304C151.021 16.9304 153.436 18.1628 155.031 20.0963C156.273 21.6001 157.018 23.5285 157.018 25.6316C157.018 30.4358 153.122 34.3319 148.318 34.3319Z" fill="#03AD4A"/>
<path d="M246.665 0.410645V11.0871C244.12 9.56228 241.143 8.68495 237.965 8.68495C228.606 8.68495 221.019 16.2725 221.019 25.6316C221.019 34.9906 228.606 42.5754 237.965 42.5754C241.143 42.5754 244.12 41.7009 246.665 40.1761V42.2419H254.115V0.410645H246.665ZM246.488 27.3703L246.485 27.3876C246.459 27.5132 246.43 27.6377 246.399 27.7613C246.393 27.7817 246.389 27.8022 246.384 27.8227C246.354 27.9339 246.323 28.0441 246.29 28.1537C246.279 28.187 246.27 28.2204 246.259 28.2535C246.229 28.3502 246.196 28.446 246.162 28.5411C246.145 28.5887 246.128 28.6361 246.111 28.6829C246.08 28.7628 246.049 28.8418 246.017 28.9203C245.99 28.9859 245.963 29.0512 245.934 29.1159C245.92 29.1473 245.908 29.1796 245.894 29.211C245.838 29.3399 245.779 29.466 245.709 29.5922C245.699 29.6143 245.684 29.6362 245.674 29.6583C245.641 29.7205 245.608 29.7825 245.574 29.8436C245.561 29.868 245.55 29.8932 245.535 29.9173C245.518 29.9453 245.502 29.9762 245.485 30.0042C245.472 30.0269 245.456 30.0488 245.444 30.0712C245.411 30.1258 245.378 30.1799 245.344 30.234C245.334 30.2486 245.327 30.264 245.317 30.2789C245.309 30.2909 245.3 30.3024 245.292 30.3145C245.211 30.4415 245.126 30.5665 245.039 30.689C245.033 30.6971 245.028 30.7052 245.022 30.7133C245.017 30.7209 245.011 30.7282 245.005 30.736C244.958 30.8016 244.909 30.8664 244.86 30.9306C244.842 30.9541 244.825 30.9785 244.807 31.002C244.789 31.025 244.768 31.0472 244.75 31.0702C244.699 31.1341 244.647 31.1971 244.594 31.2596C244.575 31.2809 244.559 31.3036 244.54 31.3244C244.495 31.3776 244.448 31.4309 244.403 31.4813C244.307 31.5851 244.212 31.686 244.114 31.7841C244.016 31.8822 243.915 31.9775 243.812 32.0728C243.716 32.1588 243.617 32.2435 243.517 32.3264C243.47 32.3657 243.421 32.4032 243.373 32.4414C243.34 32.4669 243.309 32.4935 243.276 32.5184C243.267 32.526 243.257 32.5322 243.248 32.5395C243.193 32.5815 243.137 32.623 243.081 32.6639C243.069 32.6729 243.056 32.6835 243.043 32.6922C243.03 32.7018 243.016 32.7102 243.003 32.7197C242.891 32.7987 242.779 32.8755 242.664 32.9495C242.645 32.9613 242.628 32.9748 242.609 32.9865C242.585 33.0022 242.561 33.0157 242.537 33.0308C242.501 33.053 242.465 33.0754 242.429 33.097C242.406 33.1104 242.385 33.125 242.362 33.1379C242.301 33.1743 242.236 33.2108 242.175 33.2444C242.168 33.2483 242.16 33.2517 242.153 33.2553C242.064 33.3049 241.973 33.3515 241.881 33.3977C241.832 33.4227 241.784 33.4499 241.735 33.4742C241.606 33.5359 241.477 33.592 241.348 33.648C241.283 33.6761 241.219 33.7013 241.152 33.7293C241.104 33.7472 241.056 33.7635 241.009 33.7812C240.968 33.7963 240.928 33.8109 240.887 33.8255C240.841 33.8417 240.797 33.8599 240.751 33.8751C240.725 33.8838 240.698 33.8896 240.672 33.8983C240.491 33.9575 240.308 34.0127 240.123 34.0601C240.074 34.0727 240.023 34.0828 239.974 34.0945C239.821 34.1307 239.667 34.1627 239.511 34.1907C239.451 34.2013 239.392 34.2131 239.332 34.2226C239.146 34.2521 238.957 34.275 238.766 34.2924C238.704 34.298 238.641 34.3022 238.578 34.3067C238.397 34.3193 238.215 34.3277 238.031 34.3291C238.008 34.3291 237.985 34.3319 237.962 34.3319C233.158 34.3319 229.262 30.4358 229.262 25.6316C229.262 23.3155 230.168 21.2133 231.643 19.6546C233.228 17.9781 235.472 16.9304 237.962 16.9304C238.168 16.9304 238.371 16.9402 238.572 16.9542C238.612 16.957 238.651 16.9598 238.69 16.9632C239.222 17.0072 239.74 17.0986 240.24 17.234C240.275 17.2435 240.309 17.2522 240.344 17.262C240.363 17.267 240.38 17.2735 240.398 17.2785C240.497 17.3074 240.595 17.3377 240.692 17.3699C240.711 17.3761 240.731 17.3817 240.751 17.3881C240.764 17.3926 240.777 17.3985 240.79 17.403C241.303 17.5796 241.795 17.8024 242.26 18.067C242.309 18.0947 242.359 18.1214 242.407 18.1505C242.414 18.1544 242.42 18.1592 242.427 18.1631C242.578 18.2537 242.727 18.349 242.871 18.4482C242.875 18.451 242.88 18.4532 242.884 18.456C242.979 18.5205 243.074 18.5906 243.167 18.6579C243.208 18.6884 243.246 18.7209 243.287 18.7523C244.017 19.3182 244.656 19.9963 245.175 20.7629L245.176 20.7657C245.238 20.8554 245.297 20.9451 245.35 21.0348C245.358 21.0474 245.365 21.0605 245.374 21.0732C245.393 21.1051 245.413 21.1373 245.432 21.1696C245.439 21.1819 245.447 21.1931 245.454 21.2057C245.493 21.2674 245.53 21.3291 245.563 21.3935C245.573 21.4101 245.58 21.4272 245.59 21.4437C245.623 21.5045 245.655 21.5668 245.687 21.6287C245.693 21.641 245.7 21.6528 245.706 21.6654L245.712 21.671C245.731 21.7077 245.747 21.7461 245.766 21.7834C245.79 21.8311 245.813 21.8793 245.836 21.9275C245.849 21.9561 245.865 21.9841 245.877 22.013C245.888 22.0382 245.9 22.0634 245.911 22.0859C245.925 22.1181 245.938 22.1512 245.951 22.1837C245.973 22.2336 245.994 22.284 246.015 22.3345C246.05 22.4219 246.086 22.5099 246.119 22.5991C246.133 22.6375 246.147 22.6764 246.161 22.7154C246.196 22.816 246.231 22.9172 246.263 23.0195C246.272 23.0467 246.28 23.0742 246.288 23.1016C246.323 23.2154 246.356 23.3298 246.386 23.4453C246.389 23.4604 246.393 23.4756 246.397 23.4907C246.57 24.1755 246.665 24.8919 246.665 25.6316C246.665 26.2269 246.603 26.808 246.488 27.3703Z" fill="#03AD4A"/>
<path d="M213.893 11.0878V8.5708H206.404V42.2426H213.893V25.6324C213.893 25.5595 213.893 25.4922 213.896 25.4221V25.3829C213.899 25.3352 213.899 25.2876 213.902 25.2399C213.905 25.2063 213.905 25.1755 213.908 25.1418C213.91 25.0774 213.916 25.0129 213.919 24.9512C213.924 24.8812 213.93 24.8111 213.938 24.741C213.944 24.6794 213.952 24.6149 213.961 24.5504C213.961 24.5336 213.964 24.5168 213.966 24.5C213.972 24.4495 213.98 24.3962 213.989 24.3458C213.997 24.2701 214.011 24.1944 214.025 24.1188C214.028 24.0907 214.034 24.0627 214.039 24.0319C214.048 23.9926 214.056 23.9506 214.065 23.9113C214.067 23.8833 214.073 23.8581 214.079 23.8329C214.087 23.802 214.092 23.7712 214.098 23.7432L214.123 23.6338C214.137 23.5806 214.149 23.5273 214.163 23.4741C214.174 23.432 214.185 23.3928 214.196 23.3507C214.208 23.3059 214.221 23.2583 214.233 23.2134C214.244 23.177 214.255 23.1405 214.266 23.1013C214.278 23.0677 214.289 23.034 214.297 23.0004C214.319 22.9331 214.342 22.8686 214.364 22.8014C214.384 22.7481 214.401 22.6949 214.42 22.6388C214.446 22.5771 214.468 22.5155 214.493 22.451C214.493 22.4454 214.499 22.4398 214.499 22.4342C214.524 22.3753 214.547 22.3165 214.572 22.2604C214.594 22.2015 214.619 22.1455 214.645 22.0894C214.667 22.0418 214.687 21.9969 214.709 21.9493C214.709 21.9465 214.712 21.9437 214.715 21.9409C214.734 21.896 214.754 21.8512 214.776 21.8063L214.852 21.655C214.883 21.5989 214.914 21.54 214.945 21.484C214.967 21.4391 214.992 21.3943 215.017 21.3522L215.085 21.2345C215.138 21.142 215.197 21.0495 215.253 20.9598C215.281 20.915 215.312 20.8701 215.34 20.8253C215.371 20.7804 215.399 20.7384 215.43 20.6936C215.46 20.6487 215.491 20.6067 215.522 20.5618C215.589 20.4693 215.656 20.3796 215.727 20.2871C215.752 20.2591 215.774 20.2283 215.797 20.2002C215.805 20.189 215.814 20.1778 215.825 20.1666C215.853 20.1302 215.884 20.0937 215.912 20.0601C215.979 19.976 216.049 19.8975 216.122 19.8162C216.155 19.777 216.192 19.7377 216.228 19.7013C216.301 19.6228 216.374 19.5443 216.45 19.4715C216.523 19.3986 216.595 19.3285 216.671 19.2612C216.702 19.2304 216.733 19.2024 216.764 19.1744C216.786 19.1519 216.811 19.1323 216.837 19.1099C216.935 19.0202 217.038 18.9333 217.145 18.8492C217.153 18.8408 217.164 18.8324 217.176 18.824C217.209 18.7988 217.243 18.7707 217.277 18.7455C217.316 18.7147 217.352 18.6866 217.391 18.6586C217.425 18.6306 217.461 18.6054 217.495 18.5801L217.546 18.5465C217.588 18.5157 217.633 18.4848 217.677 18.454C217.719 18.4232 217.764 18.3951 217.809 18.3643C217.854 18.3363 217.899 18.3054 217.944 18.2774C218.028 18.2242 218.115 18.1709 218.204 18.1204C218.21 18.1148 218.216 18.112 218.224 18.1064C218.263 18.084 218.302 18.0616 218.345 18.0392C218.35 18.0336 218.358 18.0308 218.367 18.0251C218.409 18.0027 218.454 17.9775 218.496 17.9551C218.591 17.9046 218.686 17.8542 218.785 17.8093C218.832 17.7841 218.88 17.7617 218.93 17.7392C218.978 17.7168 219.026 17.6944 219.076 17.672H219.079C219.126 17.6495 219.177 17.6271 219.225 17.6075C219.275 17.5879 219.323 17.5655 219.373 17.5458V8.99124C217.406 9.36964 215.556 10.09 213.893 11.0878ZM219.227 42.2426C219.278 42.2538 219.325 42.2623 219.373 42.2707V42.2426H219.227Z" fill="#03AD4A"/>
<path d="M179.406 25.4204C179.404 25.4902 179.403 25.5597 179.403 25.6303V25.4204H179.406Z" fill="#03AD4A"/>
<defs>
<filter id="filter0_d_1_5387" x="7.7832" y="0.410645" width="29.3198" height="47.8423" filterUnits="userSpaceOnUse" color-interpolation-filters="sRGB">
<feFlood flood-opacity="0" result="BackgroundImageFix"/>
<feColorMatrix in="SourceAlpha" type="matrix" values="0 0 0 0 0 0 0 0 0 0 0 0 0 0 0 0 0 0 127 0" result="hardAlpha"/>
<feOffset dy="3"/>
<feGaussianBlur stdDeviation="1.5"/>
<feComposite in2="hardAlpha" operator="out"/>
<feColorMatrix type="matrix" values="0 0 0 0 0 0 0 0 0 0 0 0 0 0 0 0 0 0 0.160784 0"/>
<feBlend mode="normal" in2="BackgroundImageFix" result="effect1_dropShadow_1_5387"/>
<feBlend mode="normal" in="SourceGraphic" in2="effect1_dropShadow_1_5387" result="shape"/>
</filter>
<filter id="filter1_d_1_5387" x="29.4736" y="0.410645" width="29.317" height="47.8423" filterUnits="userSpaceOnUse" color-interpolation-filters="sRGB">
<feFlood flood-opacity="0" result="BackgroundImageFix"/>
<feColorMatrix in="SourceAlpha" type="matrix" values="0 0 0 0 0 0 0 0 0 0 0 0 0 0 0 0 0 0 127 0" result="hardAlpha"/>
<feOffset dy="3"/>
<feGaussianBlur stdDeviation="1.5"/>
<feComposite in2="hardAlpha" operator="out"/>
<feColorMatrix type="matrix" values="0 0 0 0 0 0 0 0 0 0 0 0 0 0 0 0 0 0 0.160784 0"/>
<feBlend mode="normal" in2="BackgroundImageFix" result="effect1_dropShadow_1_5387"/>
<feBlend mode="normal" in="SourceGraphic" in2="effect1_dropShadow_1_5387" result="shape"/>
</filter>
</defs>
</svg>
