<svg width="33" height="33" viewBox="0 0 33 33" fill="none" xmlns="http://www.w3.org/2000/svg">
<path d="M28.6914 0.75H3.94141C2.07812 0.75 0.566406 2.26172 0.566406 4.125V28.875C0.566406 30.7383 2.07812 32.25 3.94141 32.25H28.6914C30.5547 32.25 32.0664 30.7383 32.0664 28.875V4.125C32.0664 2.26172 30.5547 0.75 28.6914 0.75ZM12.0977 23.5312C8.20937 23.5312 5.06641 20.3883 5.06641 16.5C5.06641 12.6117 8.20937 9.46875 12.0977 9.46875C13.9961 9.46875 15.5781 10.1578 16.8086 11.3109L14.9031 13.1461C14.3828 12.6469 13.4758 12.0633 12.1047 12.0633C9.70703 12.0633 7.75234 14.0461 7.75234 16.507C7.75234 18.9609 9.70703 20.9508 12.1047 20.9508C14.8891 20.9508 15.9297 18.9469 16.0984 17.9203H12.0977V15.5016H18.7352C18.8055 15.8531 18.8477 16.2117 18.8477 16.6688C18.8477 20.6836 16.1547 23.5312 12.0977 23.5312ZM27.5664 17.7797H25.5273V19.8188H23.4742V17.7797H21.4352V15.7266H23.4742V13.6875H25.5273V15.7266H27.5664V17.7797Z" fill="white"/>
</svg>
