<svg width="698" height="413" viewBox="0 0 698 413" fill="none" xmlns="http://www.w3.org/2000/svg">
<circle cx="628.25" cy="171.678" r="15.2318" stroke="#E0E0E0"/>
<path d="M639.167 161.062L614.825 178.877C615.639 180.392 616.701 181.752 617.957 182.905L641.817 164.758C641.12 163.393 640.224 162.149 639.167 161.062Z" stroke="#E0E0E0"/>
<circle cx="343.403" cy="217.084" r="11.0767" transform="rotate(-76.6447 343.403 217.084)" stroke="#EAEAEA"/>
<path d="M334.291 208.771L316.591 221.726C317.183 222.828 317.955 223.817 318.868 224.655L336.218 211.459C335.712 210.467 335.06 209.562 334.291 208.771Z" stroke="#EAEAEA"/>
<path d="M286.859 124.444C286.859 131.405 281.216 137.047 274.256 137.047C267.295 137.047 261.653 131.404 261.653 124.444C261.653 117.483 267.296 111.841 274.256 111.841C281.216 111.841 286.859 117.483 286.859 124.444Z" fill="white" stroke="#F5F5F5"/>
<path d="M283.288 115.659L263.147 130.401C263.821 131.654 264.7 132.779 265.74 133.733L285.481 118.718C284.904 117.589 284.163 116.559 283.288 115.659Z" stroke="#F5F5F5"/>
<path d="M171.339 283.99C163.53 287.117 154.664 283.321 151.538 275.511C148.411 267.702 152.207 258.836 160.017 255.71C167.826 252.583 176.692 256.379 179.819 264.189C182.945 271.998 179.149 280.865 171.339 283.99Z" stroke="#E0E0E0"/>
<path d="M179.592 276.039L154.005 260.063C152.902 261.381 152.033 262.874 151.431 264.468L177.145 279.873C178.153 278.72 178.976 277.425 179.592 276.039Z" stroke="#E0E0E0"/>
<path d="M503.647 224.404H497.272V218.03C497.272 217.044 496.473 216.245 495.488 216.245C494.502 216.245 493.703 217.044 493.703 218.03V224.404H487.329C486.343 224.404 485.544 225.204 485.544 226.189C485.544 227.174 486.343 227.974 487.329 227.974H493.703V234.348C493.703 235.333 494.502 236.133 495.488 236.133C496.473 236.133 497.272 235.333 497.272 234.348V227.974H503.647C504.632 227.974 505.432 227.174 505.432 226.189C505.432 225.204 504.633 224.404 503.647 224.404Z" fill="#EAEAEA"/>
<path d="M629.212 254.461H623.352V248.601C623.352 247.695 622.617 246.96 621.711 246.96C620.805 246.96 620.07 247.695 620.07 248.601V254.461H614.21C613.304 254.461 612.569 255.195 612.569 256.102C612.569 257.007 613.303 257.742 614.21 257.742H620.07V263.603C620.07 264.508 620.805 265.243 621.711 265.243C622.617 265.243 623.352 264.508 623.352 263.603V257.742H629.212C630.118 257.742 630.853 257.007 630.853 256.102C630.853 255.195 630.118 254.461 629.212 254.461Z" fill="#E0E0E0"/>
<path d="M120.119 191.781H113.745V185.407C113.745 184.421 112.946 183.622 111.96 183.622C110.975 183.622 110.176 184.421 110.176 185.407V191.781H103.801C102.816 191.781 102.017 192.581 102.017 193.566C102.017 194.551 102.816 195.351 103.801 195.351H110.176V201.725C110.176 202.71 110.975 203.51 111.96 203.51C112.946 203.51 113.745 202.71 113.745 201.725V195.351H120.119C121.105 195.351 121.904 194.551 121.904 193.566C121.903 192.58 121.105 191.781 120.119 191.781Z" fill="#E6E6E6"/>
<path d="M673.756 126.043H667.382V119.669C667.382 118.683 666.583 117.884 665.597 117.884C664.612 117.884 663.812 118.683 663.812 119.669V126.043H657.438C656.453 126.043 655.653 126.842 655.653 127.828C655.653 128.813 656.453 129.612 657.438 129.612H663.812V135.987C663.812 136.972 664.612 137.771 665.597 137.771C666.583 137.771 667.382 136.972 667.382 135.987V129.612H673.756C674.741 129.612 675.541 128.813 675.541 127.828C675.541 126.842 674.741 126.043 673.756 126.043Z" fill="#E6E6E6"/>
<path d="M378.686 85.09H373.416V79.8181C373.416 79.0036 372.755 78.3428 371.939 78.3428C371.124 78.3428 370.463 79.0036 370.463 79.8181V85.09H365.192C364.377 85.09 363.716 85.7508 363.716 86.5662C363.716 87.3808 364.377 88.0416 365.192 88.0416H370.463V93.3135C370.463 94.128 371.124 94.7888 371.939 94.7888C372.755 94.7888 373.416 94.128 373.416 93.3135V88.0416H378.686C379.502 88.0416 380.163 87.3808 380.163 86.5662C380.163 85.7508 379.502 85.09 378.686 85.09Z" fill="#EAEAEA"/>
<rect x="134.862" y="97.7529" width="108.991" height="141.236" fill="white" stroke="#E0E0E0"/>
<rect x="141.778" y="104.989" width="95.1586" height="126.764" stroke="#E0E0E0"/>
<line x1="135.224" y1="97.4074" x2="142.14" y2="104.643" stroke="#E0E0E0"/>
<line x1="134.501" y1="238.644" x2="141.417" y2="231.408" stroke="#E0E0E0"/>
<line x1="237.298" y1="231.407" x2="244.214" y2="238.643" stroke="#E0E0E0"/>
<line x1="244.214" y1="98.0984" x2="237.298" y2="105.334" stroke="#E0E0E0"/>
<rect x="173.847" y="131.509" width="55.7339" height="93.6421" stroke="#E0E0E0"/>
<path d="M168.781 142.296C168.781 142.296 167.096 130.442 168.781 127.211C170.467 123.981 175.845 118.784 175.845 118.784L178.894 112.042L182.974 114.008C182.974 114.008 180.099 120.329 181.253 125.104C181.253 125.104 180.439 119.486 183.951 116.396L188.304 118.502C188.304 118.502 186.139 121.171 187.152 126.227C187.152 126.227 187.602 121.591 189.99 119.344L193.521 121.311C193.521 121.311 188.164 125.946 190.27 129.177C192.377 132.407 196.169 134.725 192.588 138.165C188.911 141.698 186.175 136.972 182.974 138.235C179.773 139.499 182.125 147.435 182.125 147.435L173.276 156.635C173.276 156.635 167.798 146.005 168.781 142.296Z" fill="#F0F0F0"/>
<path d="M166.394 160.499C166.394 160.499 160.213 149.123 161.057 138.026C161.899 126.931 171.178 109.515 171.178 109.515L176.466 112.042L173.978 117.801L178.332 116.817V122.857C178.332 122.857 168.561 124.683 169.654 136.762C170.746 148.841 177.301 157.409 177.301 157.409L166.394 160.499Z" fill="#EAEAEA"/>
<path d="M152.488 169.207C152.488 169.207 148.275 163.87 150.803 152.915C153.331 141.96 163.981 139.653 167.773 145.207C171.565 150.76 171.168 151.23 175.382 154.601C179.595 157.972 153.632 171.341 152.488 169.207Z" fill="#E0E0E0"/>
<path d="M197.573 149.403C197.573 149.403 201.645 149.684 204.876 150.808L204.455 155.584L201.224 155.232L201.645 157.169L205.789 158.392L205.087 162.044L201.224 161.482V163.027L204.595 163.94L203.893 167.732C203.893 167.732 201.154 166.679 201.154 166.89C201.154 167.101 201.382 170.542 198.319 173.913C195.256 177.284 180.508 169.067 181.28 160.078C182.053 151.089 194.693 148.7 197.573 149.403Z" fill="#E0E0E0"/>
<path d="M150.053 180.444C150.053 180.444 149.304 169.021 155.484 162.373C161.664 155.725 166.439 154.789 169.529 153.665C172.619 152.541 174.306 152.166 177.301 149.077C180.297 145.987 181.701 140.556 200.71 147.017V151.23C200.71 151.23 189.192 149.731 188.631 158.066C188.069 166.399 195.279 166.868 199.211 172.111C203.144 177.354 205.385 187.561 198.319 201.138C191.253 214.715 183.762 217.805 181.234 218.085C178.706 218.366 169.248 216.119 160.446 204.695C151.645 193.272 150.24 187.279 150.053 180.444Z" fill="#F5F5F5"/>
<path d="M170.829 174.467C169.257 172.637 167.328 170.868 165.683 169.359C164.437 168.218 163.363 167.23 162.669 166.442C160.06 163.474 161.865 156.697 161.881 156.636L161.175 157.168C161.108 157.428 159.587 163.588 162.346 166.726C162.874 167.327 163.611 168.033 164.471 168.829C164.584 169.233 165.297 171.996 164.455 174.857C163.55 177.933 159.424 181.081 159.382 181.112L159.641 181.456C159.798 181.338 163.123 178.796 164.483 175.95C166.301 179.187 164.904 181.808 164.889 181.835L165.265 182.045C165.333 181.922 166.889 179.039 164.698 175.458C164.759 175.297 164.82 175.138 164.867 174.977C165.551 172.651 165.264 170.442 165.039 169.352C165.155 169.459 165.272 169.566 165.391 169.676C168.843 172.841 173.569 177.177 173.434 180.619C173.35 182.754 172.785 185.245 172.074 187.501C170.207 186.98 169.027 187.745 167.158 189.115C165.341 190.446 163.011 190.062 162.988 190.06L162.914 190.485C162.951 190.492 163.303 190.55 163.829 190.55C164.738 190.55 166.168 190.376 167.413 189.463C169.217 188.142 170.271 187.455 171.943 187.912C171.107 190.472 170.104 192.673 169.446 193.613L169.8 193.861C171.124 191.968 173.674 185.51 173.864 180.636C173.935 178.833 172.79 176.84 171.19 174.896C172.949 174.93 179.548 175.492 182.584 181.798L182.973 181.611C179.562 174.523 171.801 174.447 170.829 174.467Z" fill="#E0E0E0"/>
<path d="M196.62 184.03C196.791 183.697 196.963 183.354 197.137 182.995C201.373 174.24 193.114 166.28 193.027 166.205L191.064 165.183C191.148 165.256 200.84 174.35 196.749 182.807C194.287 187.896 192.155 190.193 190.273 192.22C188.928 193.67 187.765 194.922 186.71 196.916C186.37 197.557 186.086 198.162 185.841 198.741C185.386 198.879 183.212 199.505 180.63 199.751C177.592 200.041 176.025 203.386 175.96 203.528L176.352 203.708C176.367 203.675 177.881 200.446 180.67 200.18C182.882 199.969 184.805 199.482 185.632 199.25C184.881 201.153 184.571 202.738 184.292 204.182C184.06 205.382 183.841 206.514 183.398 207.685L183.802 207.837C184.257 206.632 184.48 205.482 184.715 204.263C185.096 202.297 185.528 200.068 187.091 197.117C188.12 195.173 189.265 193.94 190.589 192.512C192.132 190.849 193.843 189.006 195.764 185.619C195.699 186.907 196.22 188.194 197.105 189.815C198.303 192.011 197.524 195.786 197.37 196.245L197.779 196.382C197.948 195.875 198.772 191.973 197.483 189.609C196.24 187.332 195.765 185.843 196.62 184.03Z" fill="#E0E0E0"/>
<rect x="554.204" y="201.864" width="98.8765" height="109.16" transform="rotate(-90 554.204 201.864)" fill="white" stroke="#E0E0E0"/>
<rect x="547.247" y="196.954" width="86.3271" height="97.9752" transform="rotate(-90 547.247 196.954)" stroke="#E0E0E0"/>
<line x1="454.954" y1="191.248" x2="460.547" y2="184.973" stroke="#E0E0E0"/>
<line x1="564.114" y1="191.914" x2="558.521" y2="185.639" stroke="#E0E0E0"/>
<line x1="558.522" y1="98.6468" x2="564.115" y2="92.3717" stroke="#E0E0E0"/>
<line x1="455.7" y1="92.3714" x2="461.293" y2="98.6465" stroke="#E0E0E0"/>
<path d="M503.434 137.224C503.434 137.224 503.123 132.026 501.566 127.077C500.01 122.127 498.661 118.58 493.369 118.828C488.076 119.075 482.785 120.56 477.077 131.037C471.37 141.514 468.049 155.292 467.842 160.984C467.634 166.676 466.804 175.669 476.247 174.431C485.69 173.194 484.237 168.903 495.133 168.987C506.029 169.069 508.727 162.717 507.481 158.344C506.236 153.971 502.396 142.751 503.434 137.224Z" fill="#E0E0E0"/>
<path d="M514.641 148.113C514.641 148.113 515.471 139.12 515.783 134.83C516.094 130.54 517.754 127.983 518.377 124.6C518.999 121.218 522.009 118.554 527.301 118.813C532.594 119.073 541.103 125.342 544.942 135.738C548.781 146.132 551.791 155.29 551.999 161.064C552.206 166.839 552.621 171.624 545.358 173.769C538.094 175.914 535.915 168.737 530.207 169.149C524.5 169.562 513.916 170.057 511.425 164.035C508.934 158.013 514.223 152.738 514.641 148.113Z" fill="#E0E0E0"/>
<path d="M541.828 160.515C542.901 161.781 545.426 161.698 547.847 161.533C547.847 161.533 543.976 161.488 542.554 160.598C541.133 159.707 541.897 158.673 539.718 158.48C537.998 158.328 535.873 157.747 534.9 156.995C534.603 155.656 534.602 154.143 534.824 153.104C534.864 152.914 534.893 152.747 534.914 152.591C535.186 152.575 535.554 152.507 536.051 152.541C537.297 152.623 538.819 152.266 539.545 153.97C540.2 155.508 541.421 155.277 543.227 154.531C542.453 154.811 541.138 155.116 540.478 154.273C539.51 153.036 539.752 152.046 537.849 151.798C536.309 151.598 535.29 151.456 534.812 151.138C534.649 150.652 534.38 150.167 534.149 149.228C533.682 147.33 531.294 146.753 530.776 144.979C530.6 144.376 530.422 143.9 530.171 143.523C531.005 142.844 532.559 141.5 533.22 140.405C535.184 138.746 536.943 138.587 538.818 140.002C540.858 141.542 543.28 140.58 543.28 140.58C539.855 140.992 539.268 138.737 536.708 138.16C535.341 137.852 534.341 138.413 533.703 139.003C533.841 137.842 533.42 136.662 532.868 135.685C532.107 134.338 532.696 134.228 534.114 132.716C535.532 131.203 534.771 129.691 534.771 129.691C534.667 131.973 532.938 132.826 531.9 134.008C530.862 135.191 532.418 135.685 532.696 137.528C532.972 139.371 532.281 140.251 530.586 141.295C529.712 141.833 529.263 142.305 529.031 142.637C528.592 142.469 528.035 142.361 527.299 142.299C525.871 142.178 524.888 140.968 524.183 139.878C524.591 139.123 525.389 137.537 525.466 136.538C525.497 136.129 525.47 135.652 525.393 135.165C525.638 134.673 525.983 133.999 526.261 133.541C526.746 132.743 527.783 133.183 528.994 132.248C530.205 131.313 529.893 130.323 529.893 130.323C529.201 132.192 528.094 132.44 526.4 132.742C525.48 132.907 525.092 133.248 524.927 133.527C524.712 133.035 524.44 132.615 524.117 132.357C523.184 131.615 522.284 131.697 522.699 130.735C523.114 129.773 522.907 128.562 522.975 126.885C523.044 125.207 524.54 124.19 524.54 124.19C521.954 125.373 522.387 126.967 522.318 128.755C522.249 130.542 521.661 130.542 521.834 131.394C522.006 132.246 522.906 131.449 524.151 133.731C525.089 135.45 524.105 137.808 523.561 138.867C523.361 138.542 523.192 138.29 523.044 138.173C522.37 137.636 520.502 137.472 517.078 136.646C513.653 135.821 512.72 132.604 512.46 129.593C512.201 126.582 512.305 112.888 512.253 111.073C512.201 109.258 507.791 109.629 506.938 110.247C506.085 110.866 506.753 116.806 506.909 122.416C507.064 128.026 506.546 131.614 506.546 131.614C505.952 133.934 504.551 135.952 500.959 136.743C500.581 136.288 500.125 135.859 499.59 135.464C499.799 134.816 499.926 133.719 499.075 132.522C497.726 130.624 496.827 131.092 496.896 129.277C496.965 127.462 496.896 125.84 494.752 124.244C494.738 124.234 496.494 126.186 496.377 128.177C496.239 130.542 496.274 130.624 497.346 131.587C498.303 132.446 498.927 133.765 498.631 134.841C497.277 134.064 495.544 133.453 493.402 133.071C489.391 132.356 488.284 128.397 488.698 130.157C488.71 130.205 488.722 130.252 488.734 130.3C489.185 131.983 490.484 133.168 493.714 133.677C496.222 134.071 498.571 136.065 499.571 137.018C496.155 137.732 494.378 138.821 491.448 139.699C491.101 139.803 490.801 139.92 490.538 140.047C490.177 139.699 489.54 139.114 488.663 138.434C488.476 138.289 488.282 138.151 488.08 138.022C488.195 137.691 488.344 137.17 488.455 136.454C488.663 135.107 487.313 134.171 485.982 132.879C484.65 131.586 484.962 129.717 484.962 129.717C484.339 130.706 484.166 132.356 486.345 134.391C487.927 135.867 487.395 136.967 486.984 137.46C485.825 137.001 484.37 136.83 482.333 137.168C479.186 137.691 478.459 139.231 478.459 139.231C481.191 137.554 480.119 138.131 483.959 137.774C487.061 137.485 488.875 139.871 489.458 140.798C488.845 141.417 488.561 142.165 488.115 142.979C487.448 142.592 485.856 141.816 483.855 141.816C481.191 141.816 480.638 142.091 479.721 142.834C478.805 143.576 477.317 143.081 476.245 143.164C475.173 143.246 473.72 143.769 473.166 144.649C473.166 144.649 475.83 143.164 477.317 143.631C478.804 144.099 479.842 143.989 480.707 143.301C481.544 142.636 484.938 142.306 486.975 144.552C486.943 144.584 486.914 144.617 486.881 144.649C486.555 144.973 486.297 145.294 486.081 145.616C485.327 145.88 484.168 146.358 483.163 147.096C481.814 148.086 481.434 148.911 480.119 149.186C478.805 149.461 477.594 149.708 476.245 150.781C474.896 151.854 472.924 152.981 472.924 152.981C472.924 152.981 474.1 152.761 476.382 151.331C478.665 149.901 480.568 149.901 480.568 149.901C480.049 151.578 478.764 153.869 476.279 154.686C473.793 155.503 472.75 157.655 472.75 157.655C472.75 157.655 474.411 155.922 477.282 154.686C480.153 153.448 481.26 151.275 482.263 149.323C482.889 148.106 484.457 147.177 485.548 146.65C485.011 148.086 485.154 149.661 485.014 151.785C484.855 154.174 484.817 155.341 484.371 156.327C483.472 157.141 482.365 158.178 480.465 158.124C478.562 158.068 477.905 158.784 476.557 160.049C475.208 161.314 471.749 161.176 471.749 161.176C474.689 161.452 476.695 160.956 477.975 159.719C479.255 158.481 480.05 158.564 481.746 158.701C482.294 158.746 482.754 158.616 483.128 158.422C482.828 159.153 482.708 159.882 482.16 161.025C481.331 162.758 479.981 163.335 477.699 164.16C475.416 164.985 475.623 166.016 475.623 166.016C476.142 164.572 477.595 164.738 479.204 163.995C480.597 163.352 482.104 162.678 482.719 161.651C482.933 161.978 483.267 162.637 482.853 163.087C482.282 163.706 481.59 163.967 481.729 165.012C481.867 166.057 481.971 168.065 480.57 169.013C479.169 169.962 478.494 170.499 478.494 170.499C478.494 170.499 480.674 169.921 481.556 168.546C482.438 167.171 482.265 166.167 482.386 165.026C482.507 163.885 482.61 164.146 483.372 163.404C484.132 162.662 483.392 160.888 483.071 160.762C483.528 159.592 484.536 158.463 485.379 156.528C485.539 156.161 485.65 155.893 485.732 155.672C486.296 156.237 487.507 157.604 487.454 158.894C487.385 160.571 484.929 162.496 490.532 165.163C490.532 165.163 487.765 163.376 487.731 162.083C487.696 160.791 488.664 159.25 488.216 157.436C487.865 156.021 486.53 154.893 485.957 154.464C485.992 153.818 486.024 152.757 486.365 150.259C486.928 146.135 487.647 145.479 489.149 143.972C489.229 144.93 489.487 146.495 490.325 147.288C491.778 148.664 493.126 149.873 492.885 150.891C492.643 151.908 489.841 153.118 489.91 154.988C489.979 156.858 490.844 157.243 491.985 158.453C493.127 159.662 493.472 160.085 493.472 161.249C493.472 161.249 493.68 159.47 491.985 157.655C490.291 155.84 490.117 155.318 491.467 153.888C492.816 152.458 494.269 152.321 493.819 150.038C493.819 150.038 496.517 150.89 496.621 155.84C496.724 160.79 498.316 160.378 498.316 160.378C498.316 160.378 497.036 160.542 497.14 157.793C497.244 155.043 497.901 153.036 495.411 150.396C492.921 147.756 491.329 147.151 490.81 144.786C490.591 143.789 490.509 143.063 490.486 142.554C490.548 142.483 490.609 142.413 490.673 142.337C492.247 140.486 493.972 139.94 495.713 139.696C496.121 140.042 496.61 140.646 496.639 141.568C496.691 143.163 497.365 143.327 497.262 144.318C497.162 145.276 495.078 146.427 495.693 147.958C495.613 147.68 495.589 147.062 496.587 146.422C497.936 145.556 498.697 144.717 498.316 143.96C498.316 143.96 499.336 144.153 499.284 145.308C499.232 146.463 498.973 146.586 500.114 147.246C501.256 147.906 501.73 147.988 501.7 148.896C501.7 148.896 502.389 148.181 500.927 147.177C499.756 146.374 499.699 147.023 499.907 145.773C500.114 144.524 500.322 144.179 498.818 143.3C497.313 142.42 497.323 141.536 497.416 140.522C497.456 140.095 497.378 139.769 497.276 139.53C497.881 139.476 498.484 139.423 499.077 139.327C501.878 138.874 504.732 138.997 506.133 137.636C507.535 136.275 510.388 136.192 512.048 136.935C513.709 137.677 515.421 138.626 517.704 138.76C519.987 138.894 521.491 139.039 522.062 140.73C522.254 141.3 522.843 141.852 523.569 142.356C522.589 142.202 521.46 142.218 521.145 142.998C520.557 144.456 519.555 143.74 519.243 144.648C518.931 145.556 519.831 145.363 518.863 146.655C517.894 147.947 517.064 148.03 517.963 149.268C517.963 149.268 517.444 148.47 518.378 147.893C519.312 147.315 520.038 146.954 519.97 145.774C519.901 144.593 520.454 144.566 521.561 144.07C522.668 143.575 522.287 142.805 523.083 142.943C523.551 143.023 525.021 143.475 526.154 143.832C526.75 144.138 527.237 144.389 527.459 144.565C527.986 144.983 528.586 145.762 529.625 146.643C529.502 147.087 529.158 147.763 528.203 148.442C527.036 149.271 525.875 150.03 525.706 150.931C524.879 150.832 522.51 150.697 522.253 152.374C521.942 154.409 522.703 154.877 521.215 155.591C521.215 155.591 522.598 155.481 522.806 153.914C523.013 152.347 522.91 151.797 524.051 151.659C524.659 151.586 525.325 151.646 525.815 151.717C525.869 151.832 525.934 151.95 526.023 152.072C527.095 153.529 528.518 154.905 527.685 156.857C526.853 158.809 524.916 160.651 527.891 162.411C527.891 162.411 526.369 160.871 527.095 159.551C527.821 158.231 528.928 157.598 528.859 155.784C528.79 153.969 528.167 152.291 527.337 151.357C527.104 151.094 527.116 150.868 527.28 150.655C528.336 149.964 529.171 150.917 529.205 151.989C529.239 153.061 530.831 152.951 530.831 152.951C529.309 152.759 529.759 152.126 529.551 150.878C529.42 150.09 528.668 150.006 528.131 150.037C528.721 149.708 529.462 149.354 530.001 148.882C530.494 148.451 530.767 147.998 530.92 147.61C531.09 147.722 531.266 147.835 531.454 147.946C533.221 149 533.65 151.436 533.705 153.747C532.83 154.227 530.367 155.701 530.139 157.214C529.861 159.057 530.588 159.772 530.831 161.642C531.073 163.512 530.658 162.99 530.831 164.365C531.003 165.74 531.938 165.63 533.182 166.318C534.428 167.005 535.189 168.38 535.189 168.38C535.189 168.38 534.878 166.593 533.045 165.658C531.212 164.722 531.523 165.108 531.695 163.843C531.868 162.577 531.356 160.735 531.111 159.608C530.866 158.48 530.52 157.986 531.66 156.968C532.413 156.298 533.223 155.796 533.689 155.531C533.687 155.588 533.686 155.647 533.684 155.703C533.58 158.426 534.41 159.951 536.641 160.735C538.872 161.519 539.702 162.633 540.532 165.438C541.362 168.243 545.201 167.747 545.201 167.747C541.518 167.995 541.31 166.221 541.154 164.489C540.999 162.756 537.989 160.694 536.381 159.663C535.862 159.331 535.473 158.731 535.198 158.007C535.839 158.471 536.85 158.978 538.197 158.949C540.653 158.893 540.755 159.251 541.828 160.515Z" fill="#F0F0F0"/>
<path d="M543.228 154.532C543.591 154.4 543.835 154.274 543.835 154.274C543.625 154.366 543.423 154.451 543.228 154.532Z" fill="#F0F0F0"/>
<path d="M495.69 147.958C495.719 148.056 495.754 148.113 495.754 148.113C495.727 148.06 495.712 148.01 495.69 147.958Z" fill="#F0F0F0"/>
<path d="M632.846 262.649C632.335 248.145 651.874 227.477 668.901 233.884C689.952 241.805 691.234 268.255 680.22 281.358C671.724 291.466 658.857 290.597 667.295 314.771C675.733 338.945 664.376 344.004 644.065 355.291C623.753 366.578 640.59 373.173 634.37 395.189C629.44 412.634 608.628 412.384 600.2 411.528L568.392 374.808C568.054 373.014 567.839 371.197 567.778 369.366C567.099 349.115 586.454 340.464 599.403 331.3C613.409 321.387 591.51 307.941 601.56 286.163C611.611 264.386 633.357 277.154 632.846 262.649Z" fill="#D880A6"/>
<path opacity="0.6" d="M632.846 262.649C632.335 248.145 651.874 227.477 668.901 233.884C689.952 241.805 691.234 268.255 680.22 281.358C671.724 291.466 658.857 290.597 667.295 314.771C675.733 338.945 664.376 344.004 644.065 355.291C623.753 366.578 640.59 373.173 634.37 395.189C629.44 412.634 608.628 412.384 600.2 411.528L568.392 374.808C568.054 373.014 567.839 371.197 567.778 369.366C567.099 349.115 586.454 340.464 599.403 331.3C613.409 321.387 591.51 307.941 601.56 286.163C611.611 264.386 633.357 277.154 632.846 262.649Z" fill="white"/>
<path d="M594.684 404.554C596.646 400.249 598.6 395.941 600.551 391.633C605.379 380.979 610.189 370.318 614.982 359.648C621.095 346.038 627.181 332.415 633.216 318.77C639.043 305.599 644.831 292.411 650.495 279.169C654.479 269.853 658.499 260.527 662.054 251.036C662.331 250.297 662.603 249.556 662.867 248.812C663.012 248.406 662.365 248.23 662.221 248.634C659.057 257.507 655.295 266.182 651.613 274.847C646.097 287.829 640.44 300.752 634.746 313.657C628.702 327.355 622.604 341.029 616.476 354.691C611.451 365.895 606.405 377.088 601.341 388.274C599.721 391.853 598.098 395.432 596.473 399.008C595.724 400.657 594.833 402.301 594.203 404C594.176 404.074 594.138 404.144 594.105 404.216C593.928 404.605 594.505 404.946 594.684 404.554Z" fill="#4D5A64"/>
<path d="M637.866 307.337C632.053 299.934 626.24 292.532 620.426 285.13C619.595 284.071 618.763 283.013 617.931 281.953C617.665 281.614 617.194 282.092 617.458 282.427C623.271 289.83 629.084 297.232 634.898 304.634C635.729 305.693 636.561 306.751 637.392 307.811C637.658 308.151 638.13 307.673 637.866 307.337Z" fill="#4D5A64"/>
<path d="M606.376 378.238C600.269 369.523 594.161 360.81 588.054 352.095C587.187 350.858 586.32 349.621 585.453 348.384C585.207 348.033 584.626 348.368 584.874 348.723C590.981 357.437 597.089 366.15 603.196 374.865C604.063 376.102 604.93 377.339 605.797 378.576C606.044 378.926 606.625 378.592 606.376 378.238Z" fill="#4D5A64"/>
<path d="M665.51 329.245C660.64 330.665 655.768 332.085 650.898 333.505C643.172 335.758 635.448 338.01 627.722 340.263C625.938 340.784 624.153 341.304 622.367 341.824C621.954 341.945 622.13 342.593 622.545 342.471C627.417 341.051 632.287 339.63 637.157 338.21C644.883 335.958 652.607 333.706 660.333 331.452C662.117 330.932 663.902 330.412 665.687 329.891C666.102 329.77 665.926 329.123 665.51 329.245Z" fill="#4D5A64"/>
<path d="M203.414 411.473H112.082C105.483 404.823 104.069 397.545 108.831 391.595C119.724 377.982 136.133 399.967 142.735 388.734C146.615 382.133 129.092 377.014 109.233 369.442C95.1289 364.063 97.0558 347.852 109.233 346.635C121.411 345.417 126.653 346.256 118.738 337.124C110.823 327.991 87.4634 309.936 100.648 300.465C116.951 288.755 128.944 317.375 141.12 328.335C153.298 339.295 141.709 309.398 159.365 315.486C177.022 321.575 156.321 362.368 168.498 367.239C180.675 372.111 196.505 328.272 215.989 364.804C225.757 383.117 215.787 399.593 203.414 411.473Z" fill="#D880A6"/>
<path opacity="0.7" d="M203.414 411.473H112.082C105.483 404.823 104.069 397.545 108.831 391.595C119.724 377.982 136.133 399.967 142.735 388.734C146.615 382.133 129.092 377.014 109.233 369.442C95.1289 364.063 97.0558 347.852 109.233 346.635C121.411 345.417 126.653 346.256 118.738 337.124C110.823 327.991 87.4634 309.936 100.648 300.465C116.951 288.755 128.944 317.375 141.12 328.335C153.298 339.295 141.709 309.398 159.365 315.486C177.022 321.575 156.321 362.368 168.498 367.239C180.675 372.111 196.505 328.272 215.989 364.804C225.757 383.117 215.787 399.593 203.414 411.473Z" fill="white"/>
<path d="M182.396 410.075C182.396 410.075 145.645 336.186 111.962 310.208" stroke="#4D5A64"/>
<path d="M160.5 371.006C160.5 371.006 146.799 359.908 107.302 355.47" stroke="#4D5A64"/>
<path d="M585.785 411.834H681.167C688.058 404.89 689.534 397.288 684.562 391.075C673.185 376.858 656.049 399.818 649.154 388.086C645.101 381.193 663.401 375.847 684.142 367.939C698.872 362.322 696.859 345.392 684.142 344.12C671.424 342.849 665.949 343.726 674.215 334.188C682.481 324.65 706.876 305.794 693.107 295.904C676.08 283.674 663.557 313.565 650.839 325.01C638.122 336.455 650.225 305.233 631.785 311.591C613.345 317.95 634.965 360.553 622.247 365.64C609.53 370.726 592.998 324.944 572.65 363.096C562.45 382.221 572.862 399.428 585.785 411.834Z" fill="#D880A6"/>
<g opacity="0.3">
<path d="M585.785 411.834H681.167C688.058 404.89 689.534 397.288 684.562 391.075C673.185 376.858 656.049 399.818 649.154 388.086C645.101 381.193 663.401 375.847 684.142 367.939C698.872 362.322 696.859 345.392 684.142 344.12C671.424 342.849 665.949 343.726 674.215 334.188C682.481 324.65 706.876 305.794 693.107 295.904C676.08 283.674 663.557 313.565 650.839 325.01C638.122 336.455 650.225 305.233 631.785 311.591C613.345 317.95 634.965 360.553 622.247 365.64C609.53 370.726 592.998 324.944 572.65 363.096C562.45 382.221 572.862 399.428 585.785 411.834Z" fill="white"/>
</g>
<path d="M607.735 410.374C607.735 410.374 646.116 333.208 681.293 306.077" stroke="#4D5A64"/>
<path d="M630.603 369.572C630.603 369.572 644.911 357.981 686.159 353.347" stroke="#4D5A64"/>
<path d="M384.056 227.513C384.056 227.513 320.377 235.982 284.151 263.811L317.65 309.759L382.083 268.636L384.056 227.513Z" fill="#D880A6"/>
<line x1="317.393" y1="309.358" x2="381.827" y2="268.236" stroke="#263238" stroke-width="0.9525"/>
<path d="M409.595 227.513C409.595 227.513 473.274 235.982 509.499 263.811L476.001 309.759L411.568 268.636L409.595 227.513Z" fill="#D880A6"/>
<line x1="475.745" y1="310.161" x2="411.312" y2="269.038" stroke="#263238" stroke-width="0.9525"/>
<path d="M390.823 411.835L394.021 386.801L400.276 386.234L402.916 411.835H448.833L446.017 350.708L346.302 351.257V411.835H390.823Z" fill="#D880A6"/>
<path d="M456.294 402.176L456.825 388.164V375.009H456.701C456.781 372.05 456.825 369.071 456.825 366.065C456.825 288.066 432.709 224.835 396.304 224.835C360.148 224.835 335.782 288.066 335.782 366.065C335.782 369.071 335.828 372.05 335.907 375.009V386.287V401.662L456.237 402.187L456.294 402.176Z" fill="#D880A6"/>
<path d="M442.128 269.337C451.52 293.492 456.826 325.593 456.826 360.822C456.826 363.716 456.781 366.585 456.702 369.433H456.826V386.233L456.318 402.256" stroke="#263238"/>
<path d="M349.589 271.917C340.773 297.068 335.782 329.857 335.782 365.718C335.782 368.771 335.828 371.798 335.907 374.804V392.529V401.881H456.411" stroke="#263238"/>
<path d="M442.582 290.896V310.264C442.582 315.85 438.054 320.378 432.468 320.378H425.131C419.545 320.378 415.017 315.85 415.017 310.264V290.896H442.582Z" fill="#D880A6" stroke="#263238"/>
<rect x="415.017" y="290.896" width="27.5647" height="7.18894" fill="#D880A6"/>
<rect opacity="0.6" x="415.017" y="290.896" width="27.5647" height="7.18894" fill="white"/>
<rect x="415.017" y="290.896" width="27.5647" height="7.18894" stroke="#263238"/>
<path d="M365.584 261.839C366.58 253.133 369.176 244.464 373.869 237.017C377.614 231.076 382.971 225.681 389.779 223.45C396.017 221.407 402.646 222.447 408.184 225.881C414.376 229.721 418.831 235.908 421.894 242.413C426.228 251.616 427.909 261.951 427.653 272.069C427.616 273.508 429.852 273.508 429.888 272.069C430.132 262.425 428.633 252.635 424.896 243.708C421.883 236.508 417.397 229.717 411.009 225.091C405.339 220.984 398.257 219.175 391.363 220.698C384.102 222.302 378.135 227.305 373.8 233.165C367.667 241.455 364.511 251.687 363.349 261.839C363.186 263.266 365.422 263.254 365.584 261.839Z" fill="#263238"/>
<path d="M434.153 278.085C434.153 281.822 431.124 284.851 427.386 284.851C423.65 284.851 420.62 281.822 420.62 278.085C420.62 274.349 423.65 271.319 427.386 271.319C431.124 271.319 434.153 274.349 434.153 278.085Z" fill="#E0E0E0" stroke="#4D5A64"/>
<path d="M431.034 278.086C431.034 280.1 429.401 281.733 427.386 281.733C425.372 281.733 423.739 280.1 423.739 278.086C423.739 276.071 425.372 274.438 427.386 274.438C429.401 274.439 431.034 276.071 431.034 278.086Z" fill="#FAFAFA"/>
<path d="M354.163 303.988C354.163 303.988 359.275 309.973 367.255 304.986C375.235 299.998 377.385 290.401 377.994 284.851" stroke="#E0E0E0"/>
<circle cx="353.568" cy="303.079" r="1.64881" fill="#E0E0E0"/>
<path d="M379.852 303.899C379.852 303.899 374.818 309.95 366.774 305.066C358.731 300.182 356.456 290.614 355.776 285.071" stroke="#E0E0E0"/>
<path d="M378.788 303.006C378.8 303.916 379.547 304.645 380.458 304.633C381.368 304.621 382.097 303.874 382.085 302.964C382.073 302.053 381.326 301.325 380.416 301.337C379.504 301.348 378.777 302.095 378.788 303.006Z" fill="#E0E0E0"/>
<path d="M356.952 285.703C356.077 281.396 356.079 276.85 357.193 272.585C358.002 269.489 359.459 266.181 362.078 264.19C367.85 259.803 373.246 266.543 375.121 271.567C376.874 276.264 377.306 281.488 376.492 286.425C376.26 287.833 378.413 288.438 378.648 287.02C379.474 282.01 379.204 276.763 377.61 271.923C376.391 268.221 374.365 264.526 371.111 262.244C368.437 260.369 365.06 260.012 362.135 261.518C358.835 263.217 356.796 266.743 355.608 270.124C353.8 275.273 353.72 280.986 354.798 286.296C355.082 287.706 357.238 287.11 356.952 285.703Z" fill="#4D5A64"/>
<path d="M367.145 245.767C365.225 250.94 364.022 256.399 363.4 261.838C363.244 263.2 365.378 263.189 365.533 261.838C366.133 256.592 367.318 251.359 369.188 246.396C368.343 245.564 367.648 245.538 367.145 245.767Z" fill="#4D5A64"/>
<path d="M315.655 340.185C304.406 336.447 282.086 319.961 300.307 297.11C302.987 293.749 306.686 290.481 310.937 287.376L294.901 261.159C273.716 275.085 260.02 292.83 261.812 315.1C264.692 350.886 307.303 368.955 322.334 372.118C337.364 375.282 343.235 385.63 347.061 382.486C349.29 380.655 340.8 371.448 337.024 368.697C340.91 371.052 347.62 380.296 351.043 377.135C353.57 374.802 343.149 366.772 340.206 363.665C343.404 366.357 351.922 375.052 354.307 372.374C357.287 369.031 342.399 356.734 342.399 356.734C346.032 359.125 350.442 363.645 353.62 365.884C356.149 367.666 359.597 368.591 358.682 364.632C358.2 362.541 354.904 360.147 352.667 358.133C343.906 350.248 324.616 343.162 315.655 340.185Z" fill="white" stroke="#263238"/>
<path d="M296.736 255.46C292.298 258.028 288.065 260.806 284.153 263.811L317.652 309.758L327.727 303.328L296.736 255.46Z" fill="#D880A6"/>
<path d="M284.151 263.811L317.65 309.759L327.726 303.328L296.735 255.46" stroke="#263238" stroke-width="0.9525"/>
<path d="M351.042 377.137C353.568 374.803 343.148 366.774 340.204 363.667C343.403 366.359 351.92 375.054 354.306 372.376C357.285 369.032 342.398 356.736 342.398 356.736C345.633 358.865 349.519 363.054 352.948 365.495C356.436 367.978 359.433 368.663 358.364 364.667C355.765 354.956 326.904 343.924 315.655 340.186C313.625 339.512 311.235 338.42 308.788 336.954C302.553 345.216 299.051 355.796 297.374 362.145C307.204 367.659 316.702 370.934 322.331 372.12C337.362 375.283 343.233 385.631 347.059 382.488C349.287 380.656 340.797 371.449 337.021 368.699C340.908 371.053 347.619 380.298 351.042 377.137Z" fill="#D880A6"/>
<path opacity="0.7" d="M351.041 377.137C353.568 374.803 343.147 366.774 340.204 363.667C343.402 366.359 351.92 375.054 354.305 372.376C357.285 369.032 342.397 356.736 342.397 356.736C347.556 362.791 361.742 372.555 358.086 364.146C354.025 354.808 326.904 343.924 315.655 340.186C313.625 339.512 311.235 338.42 308.788 336.954C302.553 345.216 299.051 355.796 297.374 362.145C307.204 367.659 316.702 370.934 322.331 372.12C337.362 375.283 343.233 385.631 347.059 382.488C349.287 380.656 340.797 371.449 337.021 368.699C340.907 371.053 347.618 380.298 351.041 377.137Z" fill="white"/>
<path d="M351.042 377.137C353.568 374.803 343.148 366.774 340.205 363.667C343.403 366.359 351.921 375.054 354.306 372.376C357.285 369.032 342.398 356.736 342.398 356.736C345.698 358.908 349.884 363.068 352.948 365.495C355.943 367.867 360.003 368.386 358.404 364.181C357.774 362.523 355.337 360.719 353.71 359.036C345.662 350.714 325.012 343.295 315.655 340.186C313.625 339.512 311.235 338.42 308.788 336.954C302.553 345.216 299.051 355.796 297.374 362.145C307.204 367.659 316.702 370.934 322.331 372.12C337.362 375.283 343.233 385.631 347.059 382.488C349.287 380.656 340.797 371.449 337.021 368.699C340.908 371.053 347.619 380.298 351.042 377.137Z" stroke="#263238"/>
<path d="M299.72 363.522C299.72 363.522 303.6 348.33 310.58 337.897" stroke="#263238"/>
<path d="M477.209 340.185C488.458 336.447 510.778 319.961 492.557 297.11C489.876 293.749 486.178 290.481 481.928 287.376L497.964 261.159C519.149 275.085 532.846 292.83 531.053 315.1C528.174 350.886 485.562 368.955 470.532 372.118C455.501 375.282 449.63 385.63 445.804 382.486C443.576 380.655 452.066 371.448 455.842 368.697C451.955 371.052 445.245 380.296 441.822 377.135C439.296 374.802 449.716 366.772 452.66 363.665C449.462 366.357 440.944 375.052 438.559 372.374C435.579 369.031 450.467 356.734 450.467 356.734C443.941 361.029 433.954 373.098 436.017 364.165C438.389 353.888 465.959 343.923 477.209 340.185Z" fill="white" stroke="#263238"/>
<path d="M496.127 255.46C500.565 258.028 504.797 260.806 508.709 263.811L475.211 309.758L465.136 303.328L496.127 255.46Z" fill="#D880A6"/>
<path d="M508.711 263.811L475.213 309.759L465.138 303.328L496.128 255.46" stroke="#263238" stroke-width="0.9525"/>
<path d="M441.821 377.136C439.294 374.802 449.715 366.773 452.658 363.666C449.46 366.358 440.942 375.053 438.556 372.375C435.577 369.031 450.465 356.735 450.465 356.735C445.864 359.763 439.544 366.654 436.937 367.327C435.846 367.609 434.449 367.062 435.057 364.426C435.473 362.626 437.618 360.575 439.357 358.826C447.544 350.589 467.927 343.268 477.207 340.184C479.236 339.51 481.627 338.419 484.074 336.952C490.309 345.214 493.811 355.794 495.488 362.143C485.657 367.657 476.16 370.932 470.53 372.118C455.5 375.282 449.629 385.629 445.803 382.486C443.574 380.654 452.064 371.447 455.84 368.697C451.954 371.052 445.245 380.297 441.821 377.136Z" fill="#D880A6"/>
<path opacity="0.7" d="M441.82 377.136C439.293 374.802 449.714 366.773 452.657 363.666C449.459 366.358 440.941 375.053 438.556 372.375C435.576 369.032 450.464 356.735 450.464 356.735C446.397 359.411 440.599 365.276 437.297 367.142C436.173 367.777 434.352 368.069 435.13 364.702C437.503 354.426 465.957 343.924 477.206 340.186C479.236 339.512 481.626 338.42 484.073 336.954C490.308 345.216 493.81 355.796 495.487 362.145C485.657 367.659 476.159 370.934 470.529 372.12C455.499 375.283 449.628 385.631 445.802 382.488C443.574 380.656 452.063 371.449 455.839 368.699C451.953 371.052 445.244 380.297 441.82 377.136Z" fill="white"/>
<path d="M441.822 377.135C439.295 374.801 449.715 366.772 452.659 363.665C449.46 366.357 440.943 375.052 438.557 372.374C435.578 369.031 450.465 356.734 450.465 356.734C446.573 359.296 441.449 364.624 438.385 366.611C436.665 367.726 435.055 367.992 434.819 365.929C434.576 363.797 437.353 360.991 438.773 359.437C446.531 350.953 467.699 343.344 477.208 340.184C479.237 339.51 481.627 338.419 484.075 336.952C490.309 345.214 493.812 355.794 495.488 362.143C485.658 367.657 476.16 370.932 470.531 372.118C455.5 375.282 449.629 385.629 445.803 382.486C443.575 380.654 452.065 371.447 455.841 368.697C451.955 371.051 445.245 380.296 441.822 377.135Z" stroke="#263238"/>
<path d="M493.145 363.52C493.145 363.52 489.264 348.328 482.284 337.896" stroke="#263238"/>
<path d="M396.134 251.413L379.733 229.401C382.47 227.843 385.273 226.656 388.131 225.875L388.024 213.958C387.986 209.836 391.329 206.433 395.451 206.395L398.644 206.367C402.766 206.329 406.169 209.671 406.206 213.793L406.32 226.397C409.711 227.523 413.019 229.222 416.226 231.434L396.134 251.413Z" fill="white" stroke="#263238"/>
<path d="M416.763 231.8L395.31 255.824L376.761 231.252C379.261 229.553 381.821 228.16 384.434 227.114L395.382 244.176L409.764 227.744C412.145 228.82 414.48 230.179 416.763 231.8Z" fill="#D880A6"/>
<path opacity="0.6" d="M416.763 231.8L395.31 255.824L376.761 231.252C379.261 229.553 381.821 228.16 384.434 227.114L395.382 244.176L409.764 227.744C412.145 228.82 414.48 230.179 416.763 231.8Z" fill="white"/>
<path d="M416.763 231.8L395.31 255.824L376.761 231.252C379.261 229.553 381.821 228.16 384.434 227.114L395.382 244.176L409.764 227.744C412.145 228.82 414.48 230.179 416.763 231.8Z" stroke="#263238"/>
<path d="M371.401 189.946C371.401 189.946 365.92 180.701 367.393 167.433C369.816 145.607 394.632 148.685 397.628 148.545C407.477 148.085 424.748 149.85 426.458 162.825C428.167 175.801 423.405 193.584 422.975 195.657C422.546 197.729 379.577 204.358 371.401 189.946Z" fill="#263238"/>
<path d="M362.821 193.56C362.704 197.392 365.741 200.594 369.604 200.712C373.466 200.829 376.693 197.818 376.81 193.987C376.927 190.155 373.889 186.953 370.027 186.836C366.164 186.718 362.938 189.729 362.821 193.56Z" fill="white" stroke="#263238"/>
<path d="M373.031 194.805C373.045 194.658 373.044 194.508 373.04 194.361C373.035 194.201 373.024 194.041 373.007 193.882C372.999 193.816 373.017 193.705 373.007 193.874C373.009 193.83 372.991 193.774 372.984 193.73C372.966 193.624 372.946 193.519 372.921 193.414C372.87 193.197 372.803 192.985 372.723 192.776C372.669 192.635 372.768 192.869 372.703 192.729C372.68 192.68 372.658 192.632 372.634 192.583C372.574 192.465 372.508 192.35 372.436 192.239C372.405 192.192 372.373 192.146 372.34 192.1C372.254 191.976 372.398 192.161 372.298 192.047C372.205 191.94 372.111 191.837 372.007 191.741C371.962 191.7 371.914 191.662 371.869 191.622C371.778 191.541 371.941 191.674 371.876 191.627C371.851 191.609 371.826 191.59 371.8 191.573C371.678 191.487 371.548 191.41 371.415 191.343C371.385 191.328 371.354 191.314 371.324 191.298C371.299 191.287 371.274 191.275 371.249 191.264C371.314 191.291 371.318 191.293 371.261 191.271C371.179 191.242 371.098 191.21 371.015 191.184C370.837 191.128 370.655 191.085 370.471 191.053C370.458 191.05 370.296 191.026 370.416 191.042C370.365 191.035 370.313 191.029 370.262 191.024C370.154 191.013 370.046 191.006 369.939 191.002C369.682 190.993 369.425 191.001 369.169 191.019C368.877 191.041 368.628 190.756 368.628 190.479C368.628 190.169 368.876 189.961 369.169 189.939C370.695 189.828 372.253 190.211 373.213 191.475C373.804 192.252 374.063 193.24 374.115 194.203C374.126 194.403 374.131 194.607 374.113 194.807C374.085 195.098 373.884 195.347 373.573 195.347C373.3 195.345 373.003 195.098 373.031 194.805Z" fill="#263238"/>
<path d="M431.456 194.546C431.339 198.378 428.113 201.389 424.25 201.271C420.387 201.153 417.35 197.952 417.467 194.12C417.584 190.288 420.81 187.278 424.673 187.395C428.536 187.514 431.572 190.715 431.456 194.546Z" fill="white" stroke="#263238"/>
<path d="M420.109 195.135C420.05 193.352 420.97 191.477 422.669 190.789C423.553 190.43 424.522 190.438 425.452 190.564C425.741 190.603 425.899 190.974 425.829 191.228C425.743 191.541 425.454 191.645 425.164 191.605C424.455 191.51 423.796 191.531 423.139 191.76C423.104 191.773 422.907 191.854 423.025 191.801C422.961 191.83 422.897 191.859 422.835 191.891C422.704 191.959 422.581 192.037 422.459 192.121C422.332 192.209 422.5 192.077 422.386 192.178C422.338 192.219 422.291 192.259 422.244 192.303C422.15 192.391 422.066 192.486 421.981 192.584C421.962 192.606 421.944 192.63 421.925 192.653C422.008 192.55 421.961 192.605 421.945 192.629C421.913 192.678 421.877 192.725 421.844 192.774C421.774 192.879 421.71 192.989 421.651 193.101C421.625 193.151 421.6 193.201 421.576 193.252C421.558 193.29 421.486 193.465 421.55 193.305C421.508 193.41 421.467 193.514 421.432 193.622C421.369 193.814 421.318 194.01 421.278 194.208C421.26 194.294 421.245 194.381 421.231 194.468C421.17 194.641 421.222 194.528 421.231 194.468C421.219 194.503 421.221 194.552 421.216 194.59C421.197 194.771 421.182 194.955 421.188 195.136C421.213 195.831 420.132 195.83 420.109 195.135Z" fill="#263238"/>
<path d="M419.259 196.134C419.154 206.595 410.508 215.068 400.046 214.962L393.868 214.899C383.406 214.793 374.934 206.148 375.039 195.686L375.246 175.165C375.352 164.703 383.997 156.23 394.459 156.336L400.637 156.399C411.098 156.504 419.571 165.15 419.466 175.611L419.259 196.134Z" fill="white" stroke="#263238"/>
<path d="M397.081 181.128L394.556 191.235L399.858 191.183L397.081 181.128Z" fill="#D880A6"/>
<path d="M387.019 195.578C386.755 198.644 384.056 200.916 380.991 200.651C377.926 200.387 375.654 197.689 375.918 194.623C376.182 191.557 378.882 189.285 381.947 189.549C385.012 189.814 387.284 192.512 387.019 195.578Z" fill="#D880A6"/>
<path d="M417.508 195.578C417.244 198.644 414.545 200.915 411.479 200.651C408.414 200.387 406.142 197.689 406.407 194.623C406.671 191.557 409.37 189.285 412.435 189.549C415.5 189.814 417.771 192.512 417.508 195.578Z" fill="#D880A6"/>
<path d="M393.599 198.769C393.85 200.938 395.661 202.638 397.901 202.66C400.141 202.682 401.987 201.019 402.282 198.856L393.599 198.769Z" fill="white" stroke="#263238"/>
<path d="M385.487 185.083C385.427 186.495 384.233 187.593 382.819 187.534C381.406 187.474 380.309 186.28 380.369 184.866C380.428 183.453 381.622 182.356 383.036 182.415C384.449 182.475 385.547 183.669 385.487 185.083Z" fill="#263238"/>
<path d="M412.598 185.082C412.539 186.495 411.344 187.593 409.931 187.534C408.517 187.474 407.42 186.28 407.48 184.866C407.54 183.453 408.733 182.356 410.147 182.415C411.56 182.474 412.658 183.668 412.598 185.082Z" fill="#263238"/>
<path d="M371.374 178.844C371.374 178.844 392.53 173.487 399.858 161.561C399.858 161.561 412.701 176.708 422.974 176.945C429.15 177.087 423.347 155.104 411.957 153.584C400.566 152.065 382.714 152.065 377.586 159.092C372.458 166.12 371.374 178.844 371.374 178.844Z" fill="#263238"/>
<path d="M416.493 128.846C417.506 137.533 410.879 145.444 401.693 146.515C392.506 147.586 384.237 141.412 383.224 132.725C382.211 124.037 388.838 116.127 398.024 115.055C407.212 113.984 415.48 120.158 416.493 128.846Z" fill="#263238"/>
<ellipse cx="383.349" cy="182.206" rx="9.68807" ry="10.8657" stroke="#4D5A64"/>
<ellipse cx="411.328" cy="182.206" rx="9.68807" ry="10.8657" stroke="#4D5A64"/>
<path d="M392.499 185.419C393.551 184.873 395.133 184.271 396.985 184.271C399.148 184.271 400.974 184.972 402.107 185.546" stroke="#4D5A64"/>
<path d="M490.355 386.801C490.355 386.801 475.618 395.631 466.351 385.53C457.084 375.429 453.099 360.21 464.034 324.495C474.969 288.78 502.636 260.607 525.779 247.819C548.922 235.03 556.892 236.328 563.935 236.513C570.978 236.698 527.196 364.345 527.196 364.345L490.355 386.801Z" fill="#EAEAEA"/>
<path d="M579.696 237.532C579.696 237.532 587.112 232.342 621.303 257.641C655.495 282.94 669.216 306.671 678.57 347.626C687.924 388.58 660.448 394.323 641.29 391.408C622.133 388.494 622.688 361.206 622.688 361.206L579.696 237.532Z" fill="#EAEAEA"/>
<path d="M605.334 411.834L604.444 393.254L531.208 391.409L529.958 411.834H605.334Z" fill="#D880A6"/>
<path opacity="0.3" d="M605.334 411.834L604.444 393.254L531.208 391.409L529.958 411.834H605.334Z" fill="black"/>
<path d="M629.431 405.178C631.659 392.353 632.883 378.647 632.883 364.385C632.883 293.186 602.815 235.468 565.723 235.468C528.631 235.468 502.763 293.421 498.563 364.385C497.72 378.622 499.787 392.353 502.015 405.178H629.431Z" fill="white" stroke="#0C0C0C" stroke-width="0.75"/>
<path d="M540.954 411.834L551.391 237.532C551.391 237.532 544.492 240.301 542.756 241.635C519.434 257.877 502.212 299.757 499.091 348.518C499.071 348.67 499.061 348.754 499.061 348.754L499.008 349.723V349.726L498.893 351.825L495.63 411.834H540.954Z" fill="#EAEAEA"/>
<rect x="4.83887" y="0.829102" width="100" height="100" stroke="black"/>
<path d="M510.14 293.421C504.319 309.753 500.37 328.539 499.091 348.518C499.071 348.67 499.061 348.754 499.061 348.754L499.008 349.724V349.727L498.893 351.826L495.63 411.834" stroke="#263238"/>
<path d="M521.853 411.834C522.603 401.654 522.207 391.409 522.207 391.409H500.059L496.728 391.639L495.63 411.834H521.853Z" fill="#EAEAEA" stroke="#263238"/>
<line x1="496.456" y1="397.856" x2="522.31" y2="397.856" stroke="#263238"/>
<path d="M546.766 239.292C544.229 246.393 534.823 273.661 534.823 273.661L540.659 275.018L540.66 275.28L531.649 281.476L541.058 393.255" stroke="#263238"/>
<path d="M638.004 411.834L634.74 351.824L634.626 349.725C634.626 349.724 634.626 349.723 634.626 349.723L634.573 348.753C634.573 348.753 634.562 348.67 634.542 348.517C631.422 299.756 612.394 258.106 589.071 241.865C587.334 240.53 582.241 237.532 582.241 237.532L592.679 411.834L638.004 411.834Z" fill="#EAEAEA"/>
<rect x="1.18848" y="0.829102" width="100" height="100" stroke="black"/>
<path d="M628.251 302.679L632.019 326.612C633.207 333.702 634.062 341.027 634.541 348.519C634.561 348.671 634.572 348.755 634.572 348.755L634.625 349.725V349.728L634.739 351.826L638.003 411.837" stroke="#263238"/>
<path d="M638.004 411.834L636.906 391.639L633.576 391.409H611.428C611.428 391.409 611.032 401.654 611.781 411.834H638.004Z" fill="#EAEAEA" stroke="#263238"/>
<line x1="611.321" y1="397.856" x2="637.27" y2="397.856" stroke="#263238"/>
<path d="M587.478 239.292C590.014 246.393 598.812 273.66 598.812 273.66L592.976 275.018L592.975 275.279L601.985 281.475L592.577 393.253" stroke="#263238"/>
<path d="M582.347 239.293C582.347 244.516 575.417 248.75 566.87 248.75C558.322 248.75 551.394 244.516 551.394 239.293C551.394 234.071 558.323 229.837 566.87 229.837C575.418 229.837 582.347 234.071 582.347 239.293Z" fill="#D880A6"/>
<path d="M554.5 153.657C554.5 153.657 581.216 145.895 596.309 176.705C607.896 200.356 604.384 216.9 602.126 223.311C601.499 225.091 599.924 226.291 598.127 226.342L535.527 228.114C533.52 228.171 531.739 226.783 531.19 224.741C527.669 211.636 518.062 165.27 554.5 153.657Z" fill="#263238"/>
<path d="M594.58 200.924C594.307 206.319 589.676 210.467 584.238 210.192C578.799 209.916 574.613 205.319 574.887 199.925C575.16 194.531 579.791 190.382 585.229 190.659C590.667 190.933 594.854 195.53 594.58 200.924Z" stroke="#263238" stroke-width="1.8801"/>
<path d="M553.218 168.44L565.587 169.068C573.809 169.485 580.149 177.487 579.674 186.849L578.701 206.022C578.673 206.562 578.619 207.094 578.548 207.62C578.653 208.192 578.701 208.782 578.671 209.386L578.079 221.058L578.046 221.708L577.453 233.379C577.238 237.615 573.596 240.903 569.362 240.689L564.456 240.44C560.22 240.226 556.931 236.585 557.146 232.349L557.67 222.02L550.518 221.657C542.295 221.239 535.956 213.238 536.43 203.876L537.403 184.703C537.879 175.341 544.995 168.022 553.218 168.44Z" fill="white" stroke="#263238" stroke-width="0.94"/>
<path d="M561.836 192.223C561.758 193.763 560.447 194.947 558.907 194.87C557.367 194.792 556.183 193.48 556.26 191.94C556.338 190.401 557.65 189.216 559.19 189.294C560.729 189.371 561.914 190.683 561.836 192.223Z" fill="#263238"/>
<path d="M543.604 190.889C543.538 192.203 542.418 193.215 541.103 193.148C539.789 193.082 538.778 191.962 538.844 190.648C538.911 189.333 540.03 188.322 541.345 188.389C542.66 188.455 543.671 189.575 543.604 190.889Z" fill="#263238"/>
<path d="M545.687 202.431C545.687 202.431 546.88 206.585 549.828 207.016C552.776 207.447 555.265 204.282 555.554 201.728L545.687 202.431Z" fill="white"/>
<path d="M545.235 202.555C545.651 203.987 546.468 205.475 547.607 206.448C549.688 208.227 552.476 207.553 554.204 205.626C555.18 204.536 555.841 203.181 556.025 201.727C556.056 201.486 555.786 201.242 555.556 201.258C552.68 201.462 549.805 201.667 546.929 201.873C546.515 201.902 546.101 201.932 545.687 201.961C545.088 202.004 545.084 202.943 545.687 202.899C548.563 202.695 551.438 202.49 554.314 202.284C554.728 202.255 555.142 202.225 555.556 202.196C555.399 202.039 555.243 201.883 555.086 201.726C554.819 203.845 553.085 206.203 550.88 206.547C548.88 206.859 547.481 205.246 546.673 203.627C546.461 203.203 546.272 202.761 546.14 202.305C545.972 201.727 545.066 201.973 545.235 202.555Z" fill="#263238"/>
<path d="M571.007 202.968C570.813 206.795 567.553 209.74 563.725 209.546C559.897 209.352 556.953 206.092 557.147 202.264C557.341 198.437 560.601 195.492 564.429 195.686C568.256 195.88 571.201 199.14 571.007 202.968Z" fill="#D880A6"/>
<path d="M538.407 196.617C537.985 196.595 537.575 196.629 537.176 196.703L536.811 203.891C536.756 204.965 536.744 206.006 536.91 207.029C537.197 207.093 537.568 207.152 537.871 207.167C540.785 207.314 543.266 205.073 543.414 202.16C543.562 199.245 541.319 196.764 538.407 196.617Z" fill="#D880A6"/>
<path d="M549.52 188.804L549.609 198.326L545.216 195.335L549.52 188.804Z" fill="#D880A6"/>
<path d="M535.134 184.43C535.134 184.43 545.323 181.306 551.331 171.611C551.331 171.611 556.807 186.032 574.809 194.141C598.367 204.753 586.582 175.875 580.058 168.414C573.535 160.952 540.229 151.67 535.134 184.43Z" fill="#263238"/>
<path d="M594.58 200.924C594.307 206.319 589.676 210.467 584.238 210.192C578.799 209.916 574.613 205.319 574.887 199.925C575.16 194.531 579.791 190.382 585.229 190.659C590.667 190.933 594.854 195.53 594.58 200.924Z" fill="white"/>
<path d="M579.919 201.444C579.916 201.239 579.934 201.031 579.956 200.827C579.961 200.777 579.967 200.729 579.973 200.68C579.986 200.553 579.95 200.811 579.976 200.658C579.998 200.529 580.018 200.4 580.043 200.272C580.097 200.003 580.165 199.737 580.248 199.476C580.619 198.308 581.418 197.198 582.573 196.705C583.608 196.265 584.756 196.257 585.866 196.428C586.175 196.477 586.488 196.35 586.578 196.024C586.653 195.75 586.485 195.361 586.174 195.312C584.139 194.997 581.93 195.226 580.457 196.815C579.538 197.808 579.034 199.121 578.848 200.447C578.801 200.776 578.759 201.111 578.763 201.444C578.772 202.188 579.929 202.191 579.919 201.444Z" fill="#263238"/>
<path d="M470.53 372.116C470.53 372.116 468.053 357.756 473.39 350.705C478.727 343.653 478.8 342.68 487.713 337.944C496.626 333.209 511.069 328.664 511.069 328.664C511.069 328.664 518.748 326.232 522.163 330.684C525.579 335.136 535.175 355.834 535.175 355.834C535.175 355.834 536.837 362.414 532.493 365.472C528.15 368.531 486.923 388.431 486.923 388.431C486.923 388.431 473.566 388.884 470.53 372.116Z" fill="#EAEAEA"/>
<path d="M470.53 372.117C470.53 372.117 467.934 360.55 472.761 351.635C476.972 343.858 478.8 342.68 487.712 337.944C496.625 333.209 511.068 328.664 511.068 328.664C511.068 328.664 518.747 326.232 522.163 330.684C525.579 335.136 535.174 355.834 535.174 355.834C535.174 355.834 536.837 362.414 532.493 365.472C528.149 368.531 486.923 388.431 486.923 388.431" stroke="#263238"/>
<path d="M511.07 337.894C511.07 337.894 507.502 350.479 520.125 361.459" stroke="#263238"/>
<path d="M522.54 353.384C522.54 353.384 515.722 347.692 517.088 338.302C518.17 330.867 521.043 326.178 529.92 321.738C532.255 320.57 535.004 319.421 538.246 318.242C541.567 317.035 544.903 321.178 547.66 322.57C553.034 325.28 556.055 328.149 557.078 331.362C558.625 336.223 556.884 341.294 553.557 345.402C550.228 349.51 533.084 363.561 522.54 353.384Z" fill="white" stroke="#263238"/>
<path d="M522.884 308.057C526.786 314.146 530.687 320.234 534.589 326.323C535.144 327.189 535.7 328.057 536.255 328.923C537.2 330.398 539.277 331.135 540.843 330.126C542.318 329.174 543.058 327.118 542.045 325.538C538.143 319.449 534.242 313.361 530.34 307.271C529.785 306.405 529.23 305.538 528.674 304.671C527.729 303.196 525.652 302.459 524.086 303.469C522.611 304.42 521.872 306.477 522.884 308.057Z" fill="#4D5A64"/>
<path d="M525.099 340.28C525.099 340.28 522.135 333.169 522.788 330.479C523.442 327.79 525.874 326.455 530.465 324.923C535.055 323.39 546.789 319.767 548.89 319.812C550.992 319.857 552.241 321.301 552.438 322.139C552.636 322.976 552.931 324.494 553.574 324.866C554.218 325.238 555.328 326.109 555.47 326.898C555.611 327.687 555.671 328.418 556.737 328.53C557.802 328.643 557.476 331.56 557.448 335.3C557.422 339.041 548.439 349.63 546.068 350.754C543.696 351.879 535.967 353.598 533.576 351.287C531.185 348.974 525.474 341.226 525.099 340.28Z" fill="white"/>
<path d="M527.196 326.684C527.196 326.684 547.264 318.83 549.951 319.824C552.637 320.82 554.113 324.454 550.637 326.507C547.163 328.56 530.024 334.641 530.024 334.641" stroke="#263238"/>
<path d="M534.593 343.246C534.593 343.246 548.93 336.48 552.804 332.989C556.678 329.498 556.54 325.441 552.477 324.493" stroke="#263238"/>
<path d="M539.546 349.884C539.546 349.884 553.766 340.185 556.419 336.493C559.073 332.801 557.356 326.634 555.519 328.832" stroke="#263238"/>
<path d="M604.689 399.407H547.186C542.03 399.407 537.849 395.226 537.849 390.069V307.917C537.849 302.76 542.029 298.579 547.186 298.579H604.689C609.845 298.579 614.026 302.759 614.026 307.917V390.07C614.026 395.226 609.846 399.407 604.689 399.407Z" fill="#263238"/>
<path d="M590.256 306.595H561.62C559.125 306.595 557.103 304.573 557.103 302.078V300.27C557.103 297.775 559.125 295.753 561.62 295.753H590.256C592.75 295.753 594.773 297.775 594.773 300.27V302.078C594.773 304.573 592.75 306.595 590.256 306.595Z" fill="#4D5A64"/>
<path d="M575.937 288.007C571.312 288.007 567.562 291.757 567.562 296.382C567.562 301.008 571.312 304.758 575.937 304.758C580.562 304.758 584.312 301.008 584.312 296.382C584.312 291.756 580.563 288.007 575.937 288.007ZM575.937 300.955C573.411 300.955 571.363 298.907 571.363 296.381C571.363 293.855 573.411 291.808 575.937 291.808C578.463 291.808 580.51 293.855 580.51 296.381C580.51 298.907 578.463 300.955 575.937 300.955Z" fill="#4D5A64"/>
<path d="M644.028 391.756L624.121 387.587C624.121 387.587 619.024 386.083 618.344 378.407C617.789 372.14 623.704 348.104 624.195 346.222C625.068 342.872 627.108 337.993 638.005 340.563C648.629 343.07 664.713 345.014 668.086 359.019C671.458 373.023 667.963 380.888 667.089 382.344C666.214 383.801 651.151 391.873 644.028 391.756Z" fill="#EAEAEA"/>
<path d="M644.028 391.756L624.121 387.587C624.121 387.587 619.024 386.083 618.344 378.407C617.789 372.14 623.704 348.104 624.195 346.222C625.068 342.872 627.108 337.993 638.005 340.563C648.629 343.07 664.713 345.014 668.086 359.019C668.777 361.888 669.179 364.501 669.376 366.852" stroke="#263238"/>
<path d="M629.182 349.058C625.386 344.546 613.932 341.997 613.932 341.997L614.027 348.584C614.027 348.584 592.395 345.07 589.24 345.635C585.178 346.363 583.84 351.291 590.548 353.227C591.39 353.47 589.813 352.991 589.813 352.991C582.708 352.208 582.927 359.673 587.631 360.866C589.578 361.361 589.2 361.242 589.2 361.242C587.169 360.849 586.075 363.869 589.433 366.335C590.24 366.928 591.737 367.48 593.54 367.979L593.312 368.1C593.312 368.1 590.878 369.23 594.178 371.707C597.479 374.183 609.033 376.239 616.848 375.735C624.663 375.231 628.541 367.319 629.897 363.598C631.254 359.876 632.744 353.293 629.182 349.058Z" fill="white"/>
<path d="M609.996 365.104C609.996 365.104 591.149 361.759 587.63 360.866C582.927 359.672 582.708 352.208 589.812 352.99" stroke="#263238"/>
<path d="M608.005 370.577C608.005 370.577 592.791 368.8 589.433 366.334C586.074 363.868 587.168 360.848 589.2 361.241" stroke="#263238"/>
<path d="M593.312 368.099C593.312 368.099 590.877 369.229 594.177 371.706C597.479 374.182 609.033 376.238 616.848 375.734C624.662 375.23 628.54 367.318 629.897 363.597C631.253 359.876 632.744 353.292 629.181 349.058C625.386 344.546 613.932 341.997 613.932 341.997L613.885 348.484C613.885 348.484 592.394 345.07 589.24 345.635C585.177 346.363 583.839 351.29 590.547 353.227C597.255 355.163 613.097 357.611 613.097 357.611" stroke="#263238"/>
<path d="M628.251 375.381C628.251 375.381 637.67 370.429 636.351 351.581" stroke="#263238"/>
<path d="M340.323 411.833C341.402 394.261 340.497 362.77 327.069 323.743C306.131 262.884 272.387 235.028 252.167 229.946C231.946 224.864 214.745 224.464 178.958 255.459C143.172 286.453 122.072 324.365 114.738 351.008C107.404 377.652 118.547 387.981 118.547 387.981L224.876 350.707L239.954 411.834L340.323 411.833Z" fill="#D880A6"/>
<path opacity="0.3" d="M239.954 411.834H340.323C341.402 394.262 340.497 362.771 327.069 323.743C306.131 262.884 272.387 235.028 252.167 229.946C231.946 224.864 214.745 224.464 178.958 255.459C143.172 286.453 122.072 324.365 114.738 351.008C107.404 377.652 118.547 387.981 118.547 387.981L224.876 350.707L239.954 411.834Z" fill="black"/>
<path d="M303.965 411.834C303.991 409.833 304.006 407.824 304.006 405.806C304.006 305.972 273.747 225.04 236.42 225.04C199.093 225.04 168.833 305.972 168.833 405.806C168.833 407.825 168.848 409.833 168.874 411.834H303.965Z" fill="#D880A6"/>
<g opacity="0.3">
<path d="M303.965 411.834C303.991 409.833 304.006 407.824 304.006 405.806C304.006 305.972 273.747 225.04 236.42 225.04C199.093 225.04 168.833 305.972 168.833 405.806C168.833 407.825 168.848 409.833 168.874 411.834H303.965Z" fill="black"/>
</g>
<path d="M181.256 301.335C173.432 330.835 168.833 366.884 168.833 405.805C168.833 407.824 168.848 409.832 168.874 411.834H303.965C303.991 409.832 304.006 407.823 304.006 405.805C304.006 367.605 299.576 332.173 292.015 302.983" stroke="#263238"/>
<path d="M271.832 180.268C271.832 180.268 272.642 169.005 271.499 162.01C270.356 155.015 263.133 147.19 255.151 144.938C247.168 142.686 239.439 144.819 232.723 147.427C226.007 150.036 216.758 146.124 212.196 156.438C207.634 166.752 211.816 167.7 207.508 174.932C203.2 182.164 204.974 186.551 206.114 192.952C207.254 199.354 201.386 198.58 203.291 207.508C204.957 215.319 208.014 221.37 222.713 223.268C231.53 224.405 257.939 213.699 260.346 207.416C262.752 201.133 271.832 180.268 271.832 180.268Z" fill="#D880A6"/>
<path opacity="0.3" d="M271.832 180.268C271.832 180.268 272.642 169.005 271.499 162.01C270.356 155.015 263.133 147.19 255.151 144.938C247.168 142.686 239.439 144.819 232.723 147.427C226.007 150.036 216.758 146.124 212.196 156.438C207.634 166.752 211.816 167.7 207.508 174.932C203.2 182.164 204.974 186.551 206.114 192.952C207.254 199.354 201.386 198.58 203.291 207.508C204.957 215.319 208.014 221.37 222.713 223.268C231.53 224.405 257.939 213.699 260.346 207.416C262.752 201.133 271.832 180.268 271.832 180.268Z" fill="black"/>
<path d="M223.408 202.651C223.408 202.651 222.774 205.497 218.339 209.053" stroke="#263238"/>
<path d="M222.268 201.466C222.268 201.466 217.706 203.481 213.905 204.311" stroke="#263238"/>
<path d="M221.635 176.214C221.635 176.214 217.454 176.926 215.173 176.214" stroke="#263238"/>
<path d="M220.875 177.874C220.875 177.874 216.947 179.771 215.173 179.889" stroke="#263238"/>
<path d="M227.975 173.938C227.661 173.414 225.156 171.665 222.096 170.589C221.148 174.951 219.358 184.69 221.173 189.111C223.55 194.902 224.013 202.983 224.013 202.983L227.242 209.173C231.067 211.254 237.226 216.492 237.226 216.492C237.226 216.492 228.592 174.967 227.975 173.938Z" fill="#2A2936"/>
<path d="M244.448 150.599H247.544C260.795 150.599 271.536 161.266 271.536 174.425V176.597C271.536 163.438 260.795 152.771 247.544 152.771C234.294 152.771 223.552 163.438 223.552 176.597V195.584C223.552 202.948 226.918 209.53 232.202 213.901C225.171 209.746 220.456 202.127 220.456 193.412V174.425C220.457 161.266 231.198 150.599 244.448 150.599Z" fill="#D880A6"/>
<path opacity="0.3" d="M244.448 150.599H247.544C260.795 150.599 271.536 161.266 271.536 174.425V176.597C271.536 163.438 260.795 152.771 247.544 152.771C234.294 152.771 223.552 163.438 223.552 176.597V195.584C223.552 202.948 226.918 209.53 232.202 213.901C225.171 209.746 220.456 202.127 220.456 193.412V174.425C220.457 161.266 231.198 150.599 244.448 150.599Z" fill="black"/>
<path d="M232.202 213.901C225.171 209.746 220.456 202.127 220.456 193.412V174.425C220.456 161.266 231.197 150.599 244.448 150.599H247.544C260.795 150.599 271.536 161.266 271.536 174.425V176.597" stroke="#263238"/>
<path d="M210.815 193.104C210.815 198.778 215.452 203.378 221.173 203.378C226.893 203.378 231.53 198.778 231.53 193.104C231.53 187.431 226.893 182.831 221.173 182.831C215.452 182.831 210.815 187.431 210.815 193.104Z" stroke="#263238" stroke-width="2"/>
<path d="M255.938 161.228H242.928C234.279 161.228 227.203 169.285 227.203 179.132V199.298C227.203 199.867 227.232 200.428 227.278 200.983C227.137 201.578 227.055 202.194 227.055 202.83C227.055 202.83 226.903 214.866 226.899 215.36L226.765 229.424C226.74 229.432 226.715 229.441 226.69 229.449L228.472 231.126L246.162 231.649L248.545 228.937C248.488 228.922 248.431 228.901 248.373 228.886C248.401 228.617 248.415 228.343 248.415 228.067V217.203H255.937C264.586 217.203 271.662 209.146 271.662 199.298V179.132C271.664 169.284 264.587 161.228 255.938 161.228Z" fill="white" stroke="#263238"/>
<path d="M247.545 152.771C234.295 152.771 223.554 163.438 223.554 176.597V188.594C223.576 188.611 223.596 188.641 223.619 188.653C223.619 188.653 227.984 194.257 230.799 184.791C232.551 178.898 231.859 177.796 238.026 178.27C244.193 178.743 248.716 172.594 249.127 169.192C249.466 166.392 259.054 178.475 271.383 173.93C270.048 162.027 259.887 152.771 247.545 152.771Z" fill="#263238"/>
<path d="M247.214 185.72C247.214 187.127 248.355 188.269 249.763 188.269C251.171 188.269 252.312 187.128 252.312 185.72C252.312 184.313 251.171 183.171 249.763 183.171C248.356 183.171 247.214 184.313 247.214 185.72Z" fill="#263238"/>
<path d="M264.755 185.468C264.755 186.737 265.783 187.766 267.052 187.766C268.321 187.766 269.349 186.737 269.349 185.468C269.349 184.199 268.321 183.171 267.052 183.171C265.783 183.17 264.755 184.199 264.755 185.468Z" fill="#263238"/>
<path d="M260.206 194.18L260.21 193.773L260.301 184.042L264.83 193.104L260.206 194.18Z" fill="#D880A6"/>
<path d="M210.815 193.104C210.815 198.778 215.452 203.378 221.173 203.378C226.893 203.378 231.53 198.778 231.53 193.104C231.53 187.431 226.893 182.831 221.173 182.831C215.452 182.831 210.815 187.431 210.815 193.104Z" fill="white"/>
<path d="M227.39 194.462C227.547 192.006 226.386 189.237 224.068 188.178C222.816 187.604 221.423 187.503 220.065 187.644C219.735 187.678 219.45 187.902 219.45 188.259C219.45 188.565 219.733 188.909 220.065 188.874C221.191 188.757 222.25 188.793 223.303 189.181C223.574 189.281 223.997 189.513 224.31 189.747C224.225 189.683 224.421 189.838 224.446 189.859C224.515 189.918 224.581 189.98 224.646 190.044C224.786 190.18 224.915 190.324 225.036 190.476C224.953 190.372 225.103 190.569 225.125 190.601C225.174 190.67 225.221 190.741 225.266 190.814C225.363 190.968 225.452 191.128 225.533 191.292C225.572 191.372 225.609 191.454 225.647 191.535C225.688 191.625 225.592 191.398 225.65 191.543C225.665 191.58 225.68 191.616 225.694 191.654C225.758 191.819 225.815 191.988 225.866 192.158C225.951 192.444 226.018 192.736 226.069 193.031C226.079 193.095 226.089 193.159 226.099 193.223C226.128 193.403 226.088 193.104 226.106 193.28C226.119 193.402 226.133 193.524 226.142 193.646C226.163 193.916 226.176 194.192 226.159 194.463C226.109 195.252 227.34 195.249 227.39 194.462Z" fill="#263238"/>
<path d="M268.622 192.678C259.833 187.624 255.979 193.148 246.574 195.968C240.655 197.743 237.706 195.795 236.333 194.107C235.882 193.553 234.998 193.777 234.902 194.484C234.539 197.138 234.05 201.919 234.184 207.78C234.28 212.038 241.99 214.996 248.416 217.482V217.201H255.938C264.587 217.201 271.664 209.144 271.664 199.296V194.526C270.806 193.975 269.811 193.363 268.622 192.678Z" fill="#D880A6"/>
<g opacity="0.7">
<path d="M268.622 192.678C259.833 187.624 255.979 193.148 246.574 195.968C240.655 197.743 237.706 195.795 236.333 194.107C235.882 193.553 234.998 193.777 234.902 194.484C234.539 197.138 234.05 201.919 234.184 207.78C234.28 212.038 241.99 214.996 248.416 217.482V217.201H255.938C264.587 217.201 271.664 209.144 271.664 199.296V194.526C270.806 193.975 269.811 193.363 268.622 192.678Z" fill="white"/>
</g>
<path d="M268.622 192.678C259.833 187.624 255.979 193.148 246.574 195.968C240.655 197.743 237.706 195.795 236.333 194.107C235.882 193.553 234.998 193.777 234.902 194.484C234.539 197.138 234.05 201.919 234.184 207.78C234.28 212.038 241.99 214.996 248.416 217.482V217.201H255.938C264.587 217.201 271.664 209.144 271.664 199.296V194.526C270.806 193.975 269.811 193.363 268.622 192.678Z" stroke="#263238"/>
<path d="M243.474 201.756C243.474 201.756 247.432 202.963 252.31 200.276C257.189 197.588 269.109 194.006 271.536 201.543" stroke="#263238" stroke-width="0.75"/>
<path d="M245.142 206.991C245.142 206.991 252.316 208.193 259.738 208.338C267.8 208.495 270.786 205.183 270.786 205.183" stroke="#263238" stroke-width="0.75"/>
<path d="M249.472 211.606C249.472 211.606 256.347 215.171 267.356 211.657" stroke="#263238" stroke-width="0.75"/>
<path d="M229.457 187.048C231.021 189.051 232.586 191.054 234.151 193.057C234.372 193.34 234.593 193.622 234.814 193.905C235 194.143 235.41 194.1 235.605 193.905C235.84 193.67 235.791 193.353 235.605 193.115C234.04 191.112 232.475 189.109 230.911 187.106C230.69 186.823 230.469 186.54 230.247 186.257C230.061 186.02 229.652 186.062 229.457 186.257C229.221 186.493 229.27 186.809 229.457 187.048Z" fill="#263238"/>
<path d="M227.636 206.009C229.715 203.754 231.794 201.5 233.873 199.245C234.166 198.928 234.459 198.61 234.752 198.293C235.239 197.764 234.45 196.972 233.961 197.502C231.882 199.757 229.803 202.012 227.724 204.267C227.431 204.584 227.138 204.902 226.846 205.219C226.358 205.747 227.147 206.54 227.636 206.009Z" fill="#263238"/>
<path d="M250.212 234.333H225.336C223.453 234.333 221.927 232.807 221.927 230.924V226.76C221.927 224.877 223.453 223.351 225.336 223.351H250.212C252.095 223.351 253.622 224.877 253.622 226.76V230.924C253.621 232.807 252.095 234.333 250.212 234.333Z" fill="#D880A6"/>
<path opacity="0.3" d="M250.212 234.333H225.336C223.453 234.333 221.927 232.807 221.927 230.924V226.76C221.927 224.877 223.453 223.351 225.336 223.351H250.212C252.095 223.351 253.622 224.877 253.622 226.76V230.924C253.621 232.807 252.095 234.333 250.212 234.333Z" fill="black"/>
<path d="M250.212 234.333H225.336C223.453 234.333 221.927 232.807 221.927 230.924V226.76C221.927 224.877 223.453 223.351 225.336 223.351H250.212C252.095 223.351 253.622 224.877 253.622 226.76V230.924C253.621 232.807 252.095 234.333 250.212 234.333Z" stroke="#263238"/>
<path d="M262.264 375.881L206.36 389.346C201.347 390.553 196.304 387.468 195.096 382.454L175.858 302.586C174.651 297.572 177.736 292.529 182.749 291.321L238.653 277.856C243.667 276.649 248.71 279.734 249.918 284.748L269.155 364.616C270.362 369.63 267.278 374.673 262.264 375.881Z" fill="#263238"/>
<path d="M226.499 289.029L198.658 295.734C196.233 296.318 193.793 294.826 193.209 292.4L192.786 290.642C192.202 288.216 193.694 285.777 196.12 285.192L223.96 278.487C226.386 277.903 228.825 279.395 229.41 281.821L229.833 283.578C230.417 286.005 228.924 288.445 226.499 289.029Z" fill="#4D5A64"/>
<path d="M208.225 274.31C203.729 275.393 200.961 279.916 202.044 284.414C203.127 288.91 207.651 291.678 212.148 290.595C216.645 289.512 219.412 284.989 218.329 280.491C217.247 275.994 212.722 273.227 208.225 274.31ZM211.258 286.898C208.802 287.49 206.332 285.978 205.741 283.523C205.15 281.068 206.661 278.597 209.116 278.006C211.571 277.415 214.042 278.926 214.633 281.382C215.224 283.837 213.713 286.307 211.258 286.898Z" fill="#4D5A64"/>
<path d="M210.666 346.975L207.608 342.483L226.77 326.841L244.482 312.583C244.482 312.583 248.318 309.116 250.992 309.802C253.667 310.488 252.397 312.575 252.36 313.107C252.323 313.638 247.944 319.827 247.944 319.827L246.243 322.117L256.053 315.416L257.111 314.612L256.265 310.882C256.265 310.882 259.608 310.141 261.653 310.997C263.698 311.855 264.823 313.575 264.439 315.052C264.056 316.528 262.71 318.554 262.71 318.554C262.71 318.554 264.099 317.313 265.554 318.454C267.01 319.594 265.273 323.588 265.273 323.588L263.791 325.825C263.791 325.825 264.625 324.505 265.771 325.188C266.917 325.871 267.4 327.861 266.799 328.999C266.199 330.137 265.173 331.556 265.173 331.556C265.173 331.556 266.455 331.123 266.755 332.566C267.056 334.009 267.318 334.374 265.842 337.363C264.368 340.352 260.011 343.549 258.656 345.032C257.301 346.514 247.143 352.888 247.143 352.888L228.212 363.894L225.144 365.513C225.146 365.511 211.778 349.707 210.666 346.975Z" fill="#D880A6"/>
<path opacity="0.7" d="M210.666 346.975L207.608 342.483L226.77 326.841L244.482 312.583C244.482 312.583 248.318 309.116 250.992 309.802C253.667 310.488 252.397 312.575 252.36 313.107C252.323 313.638 247.944 319.827 247.944 319.827L246.243 322.117L256.053 315.416L257.111 314.612L256.265 310.882C256.265 310.882 259.608 310.141 261.653 310.997C263.698 311.855 264.823 313.575 264.439 315.052C264.056 316.528 262.71 318.554 262.71 318.554C262.71 318.554 264.099 317.313 265.554 318.454C267.01 319.594 265.273 323.588 265.273 323.588L263.791 325.825C263.791 325.825 264.625 324.505 265.771 325.188C266.917 325.871 267.4 327.861 266.799 328.999C266.199 330.137 265.173 331.556 265.173 331.556C265.173 331.556 266.455 331.123 266.755 332.566C267.056 334.009 267.318 334.374 265.842 337.363C264.368 340.352 260.011 343.549 258.656 345.032C257.301 346.514 247.143 352.888 247.143 352.888L228.212 363.894L225.144 365.513C225.146 365.511 211.778 349.707 210.666 346.975Z" fill="white"/>
<path d="M256.265 311.101C256.265 311.101 261.091 309.523 263.793 312.305C266.494 315.086 262.07 319.735 259.639 321.414C257.209 323.093 249.312 329 249.312 329" stroke="#263238"/>
<path d="M253.706 333.61C253.706 333.61 261.656 328.558 263.792 325.824C268.846 319.358 264.922 316.278 262.403 318.915" stroke="#263238"/>
<path d="M264.324 325.038C264.324 325.038 266.526 324.573 267.035 326.844C267.545 329.116 265.742 331.629 257.86 339.042" stroke="#263238"/>
<path d="M265.369 331.31C265.369 331.31 270.163 331.779 263.793 340.258C258.153 347.766 227.348 364.516 225.402 365.349C223.455 366.182 207.608 342.482 207.608 342.482C207.608 342.482 236.75 318.634 243.229 313.533C249.708 308.432 252.166 309.12 252.613 311.866C252.989 314.18 245.152 322.982 245.152 322.982L258.491 313.646" stroke="#263238"/>
<path d="M120.784 390.524C120.784 390.524 113.176 382.471 114.38 376.448C115.585 370.424 114.658 364.956 123.74 358.469C132.822 351.982 138.663 350.896 154.729 347.229C170.795 343.561 197.886 337.375 197.886 337.375C197.886 337.375 206.957 333.487 211.905 337.221C216.853 340.954 222.538 350.485 223.866 354.999C225.194 359.512 228.48 364.014 227.019 368.543C225.557 373.073 226.624 372.062 222.92 376.039C219.216 380.016 202.373 390.117 191.901 393.963C181.429 397.809 164.898 402.281 151.623 401.574C138.348 400.867 127.744 398.022 120.784 390.524Z" fill="#D880A6"/>
<path opacity="0.3" d="M120.784 390.524C120.784 390.524 113.176 382.471 114.38 376.448C115.585 370.424 114.658 364.956 123.74 358.469C132.822 351.982 138.663 350.896 154.729 347.229C170.795 343.561 197.886 337.375 197.886 337.375C197.886 337.375 206.957 333.487 211.905 337.221C216.853 340.954 222.538 350.485 223.866 354.999C225.194 359.512 228.48 364.014 227.019 368.543C225.557 373.073 226.624 372.062 222.92 376.039C219.216 380.016 202.373 390.117 191.901 393.963C181.429 397.809 164.898 402.281 151.623 401.574C138.348 400.867 127.744 398.022 120.784 390.524Z" fill="black"/>
<path d="M139.494 350.707L204.279 335.915C204.279 335.915 211.635 332.52 218.564 345.124C225.494 357.728 230.333 365.485 224.855 373.746C219.378 382.007 188.068 399.772 157.757 401.454C127.446 403.137 116.326 388.495 113.546 378.115" stroke="#263238"/>
<path d="M199.694 346.183C199.694 346.183 209.523 341.918 217.036 342.534" stroke="#263238"/>
<path d="M218.132 344.329C218.132 344.329 213.34 349.262 207.224 352.228" stroke="#263238"/>
<path d="M210.296 363.584C210.296 363.584 218.882 357.239 224.875 357.159" stroke="#263238"/>
<path d="M218.636 367.689C218.636 367.689 223.261 365.563 226.369 361.089" stroke="#263238"/>
<path d="M342.55 145.866C346.154 140.841 348.283 134.687 348.283 128.032C348.283 111.113 334.568 97.3975 317.649 97.3975C300.73 97.3975 287.015 111.113 287.015 128.032C287.015 144.951 300.73 158.666 317.649 158.666C324.016 158.666 329.928 156.722 334.827 153.398L345.769 157.966L342.55 145.866Z" fill="white" stroke="#263238"/>
<path d="M330.67 123.402C330.108 120.204 327.234 117.34 323.991 117.502C322.076 117.598 320.306 118.691 319.067 120.155C318.525 120.795 318.156 121.261 317.865 121.737C317.62 121.236 317.299 120.736 316.821 120.046C315.731 118.468 314.075 117.208 312.178 116.927C308.966 116.451 305.828 119.021 304.958 122.15C304.088 125.278 305.115 128.689 306.94 131.375C308.765 134.06 311.85 137.536 317.287 139.063C320.949 138.405 325.72 134.886 327.799 132.391C329.876 129.895 331.231 126.6 330.67 123.402Z" fill="#D880A6"/>
<path d="M690.684 411.275C685.419 411.275 680.155 411.275 674.889 411.275C660.689 411.275 646.489 411.275 632.29 411.275C611.237 411.275 590.186 411.275 569.133 411.275C543.449 411.275 517.763 411.275 492.079 411.275C464.045 411.275 436.012 411.275 407.977 411.275C379.487 411.275 350.997 411.275 322.507 411.275C296.123 411.275 269.74 411.275 243.356 411.275C220.981 411.275 198.605 411.275 176.23 411.275C160.142 411.275 144.056 411.275 127.968 411.275C120.37 411.275 112.754 411.124 105.157 411.275C104.825 411.281 104.492 411.275 104.16 411.275C103.441 411.275 103.439 412.393 104.16 412.393C109.425 412.393 114.69 412.393 119.955 412.393C134.155 412.393 148.354 412.393 162.554 412.393C183.607 412.393 204.658 412.393 225.711 412.393C251.395 412.393 277.081 412.393 302.765 412.393C330.799 412.393 358.833 412.393 386.867 412.393C415.357 412.393 443.847 412.393 472.337 412.393C498.721 412.393 525.104 412.393 551.487 412.393C573.862 412.393 596.238 412.393 618.613 412.393C634.701 412.393 650.787 412.393 666.875 412.393C674.473 412.393 682.089 412.544 689.686 412.393C690.019 412.387 690.352 412.393 690.683 412.393C691.403 412.393 691.404 411.275 690.684 411.275Z" fill="#263238"/>
</svg>
