<svg width="752" height="661" viewBox="0 0 752 661" fill="none" xmlns="http://www.w3.org/2000/svg">
<ellipse cx="376" cy="620.953" rx="234.939" ry="39.388" fill="#EBEBEB"/>
<ellipse cx="96.2904" cy="619.286" rx="86.6224" ry="18.2792" fill="#EBEBEB"/>
<ellipse cx="637.081" cy="619.286" rx="86.6224" ry="18.2792" fill="#EBEBEB"/>
<path d="M0 530.025L94.0001 529.608L188 529.452L376 529.174L564 529.452L658 529.608L752 530.025L658 530.459L564 530.615L376 530.893L188 530.615L94.0001 530.459L0 530.025Z" fill="#263238"/>
<rect x="283.754" y="284.897" width="133.284" height="244.869" fill="#455A64"/>
<rect x="283.754" y="284.897" width="133.284" height="15.9705" fill="#263238"/>
<rect x="14.3906" y="272.034" width="459.88" height="12.8805" fill="#455A64"/>
<path d="M42.8246 284.915L42.3906 300.868L36.7836 529.783H26.5938V284.915H42.8246Z" fill="#455A64"/>
<path d="M26.5938 284.915H42.8246L42.3906 300.868H26.5938V284.915Z" fill="#263238"/>
<rect x="417.037" y="284.897" width="45.1686" height="244.869" fill="#37474F"/>
<rect x="417.037" y="284.897" width="45.1686" height="15.9705" fill="#263238"/>
<path d="M148.992 430.332C143.09 424.551 135.469 417.573 126.425 420.055C117.954 422.399 114.708 431.669 113.18 439.376C111.236 449.306 109.708 459.339 108.129 469.355C106.549 479.372 105.039 489.579 103.581 499.699C102.771 505.416 101.96 511.127 101.15 516.833L99.9873 525.408C99.6054 528.22 99.1367 531.015 98.9805 533.845C98.9805 534.748 100.352 534.886 100.543 534.018C101.636 529.245 102.088 524.297 102.782 519.454C103.477 514.611 104.188 509.733 104.917 504.855C106.329 495.192 107.77 485.534 109.24 475.882C110.709 466.231 112.214 456.573 113.753 446.91C115.055 438.716 115.663 428.561 122.919 423.163C126.917 420.416 132.051 419.93 136.494 421.878C141.267 423.701 145.173 427.086 148.819 430.558C148.94 430.61 149.096 430.436 148.992 430.332Z" fill="#263238"/>
<path d="M140.92 424.5C140.92 424.5 128.873 420.16 122.919 428.944C116.965 437.728 124.082 460.19 178.954 472.724C177.339 455.573 172.874 438.811 165.744 423.129C153.992 397.42 132.97 407.141 140.92 424.5Z" fill="#2684EF"/>
<path d="M175.796 469.008C174.969 467.466 174.047 465.976 173.036 464.547C172.116 463.141 171.196 461.735 170.258 460.329C169.546 459.27 168.835 458.228 168.106 457.187C168.106 456.926 168.106 456.666 168.21 456.406C168.314 456.145 168.331 455.451 168.401 454.982C168.54 453.94 168.679 452.916 168.835 451.892C168.991 450.868 169.147 449.861 169.356 448.837C169.478 447.739 169.716 446.656 170.067 445.608C170.067 445.452 169.859 445.365 169.824 445.608C169.709 446.199 169.547 446.779 169.338 447.344L168.974 448.733C168.713 449.774 168.453 450.816 168.21 451.875C167.967 452.934 167.811 453.802 167.654 454.791C167.573 455.266 167.504 455.734 167.446 456.197C166.456 454.791 165.467 453.42 164.443 452.066C161.526 448.229 158.437 444.532 155.26 440.921C155.26 440.921 155.26 440.921 155.26 440.834C155.555 435.054 155.416 429.36 156.701 423.683C156.701 423.527 156.492 423.44 156.458 423.597C155.007 428.941 154.317 434.464 154.409 440.001C153.264 438.716 152.118 437.449 150.937 436.199C148.264 433.318 145.539 430.494 142.761 427.728C142.657 427.624 142.483 427.728 142.588 427.902C147.205 432.866 151.597 438.057 155.867 443.334C152.525 443.282 149.181 443.404 145.851 443.699C142.119 443.976 138.439 444.462 134.741 444.966C134.585 444.966 134.62 445.226 134.741 445.209C138.418 444.68 142.121 444.35 145.834 444.219C149.427 444.063 152.986 444.219 156.562 444.219C158.871 447.084 161.162 449.965 163.401 452.899H160.381C158.645 452.899 157.03 453.055 155.381 453.194C151.972 453.47 148.585 453.974 145.244 454.704C145.176 454.704 145.122 454.759 145.122 454.826C145.122 454.893 145.176 454.947 145.244 454.947C148.611 454.565 151.996 454.253 155.381 454.132C156.996 454.132 158.61 454.132 160.242 454.132H162.759C163.225 454.198 163.7 454.156 164.148 454.01C165.623 455.919 167.099 457.846 168.557 459.773C169.714 461.301 170.872 462.846 172.029 464.408C173.192 466.005 174.233 467.741 175.501 469.234C175.692 469.251 175.848 469.13 175.796 469.008Z" fill="#263238"/>
<path d="M146.164 436.894C144.22 436.631 142.257 436.532 140.296 436.599C138.335 436.599 136.391 436.599 134.429 436.72C134.255 436.72 134.255 436.981 134.429 436.963C136.408 436.825 138.387 436.79 140.383 436.825C142.38 436.859 144.22 437.033 146.146 436.981C146.233 436.981 146.233 436.894 146.164 436.894Z" fill="#263238"/>
<path d="M163.383 441.302C163.608 439.427 163.851 437.553 164.251 435.712C164.251 435.539 164.025 435.469 164.008 435.712C163.73 437.553 163.365 439.375 163.088 441.233C162.949 442.153 162.827 443.073 162.723 444.01C162.553 444.867 162.477 445.74 162.497 446.614C162.497 446.7 162.567 446.77 162.654 446.77C162.74 446.77 162.81 446.7 162.81 446.614C162.978 445.75 163.076 444.873 163.105 443.993C163.192 443.09 163.279 442.205 163.383 441.302Z" fill="#263238"/>
<path d="M159.773 420.542C159.305 422.278 158.819 424.222 158.489 426.079C158.315 427.017 158.176 427.954 158.037 428.909C157.867 429.824 157.809 430.757 157.864 431.686C157.864 431.686 157.985 431.686 158.003 431.686C158.219 430.82 158.364 429.938 158.437 429.048C158.558 428.128 158.697 427.225 158.853 426.323C159.183 424.413 159.53 422.521 160.016 420.629C160.051 420.472 159.825 420.386 159.773 420.542Z" fill="#263238"/>
<path d="M88.3401 531.814C88.0276 528.342 87.6978 524.87 87.3333 521.398C86.6216 514.559 85.771 507.736 84.8683 500.932C83.9656 494.127 83.1324 487.339 81.9866 480.569C81.5723 477.444 80.8691 474.364 79.8862 471.369C79.1547 468.735 77.2251 466.599 74.6784 465.606C68.2208 463.366 63.881 470.067 61.2598 474.806C61.2598 474.945 61.3986 475.049 61.4854 474.928C63.0478 472.671 67.3528 466.387 72.2481 466.665C75.5464 466.873 78.185 469.199 79.7647 477.427C83.7052 497.894 87.2638 539.434 87.6805 542.142C87.8888 543.583 88.9129 543.531 88.9303 541.986C89.0345 538.601 88.6352 535.199 88.3401 531.814Z" fill="#263238"/>
<path d="M63.0997 472.272C63.0997 472.272 68.7415 452.274 56.2602 462.307C35.4292 478.885 34.7695 514.958 34.7695 514.958C34.7695 514.958 71.6752 493.519 76.258 479.389C83.0975 458.332 63.0997 472.272 63.0997 472.272Z" fill="#2684EF"/>
<path d="M70.0778 482.045C67.1788 482.635 64.2451 483.017 61.3982 483.451L57.232 484.024C56.3119 484.163 55.3572 484.25 54.4198 484.354C57.1625 480.57 59.94 476.803 62.5786 472.932C62.6827 472.793 62.4397 472.637 62.3182 472.758C60.1318 475.013 58.0743 477.389 56.1557 479.875L54.5239 475.24C53.899 473.504 53.222 471.682 52.788 469.859C52.788 469.703 52.5102 469.772 52.545 469.859C53.0484 471.682 53.4129 473.539 53.899 475.379C54.385 477.219 54.9058 478.851 55.5307 480.587C54.1767 482.323 52.8748 484.146 51.6249 485.951C50.9826 484.215 50.2015 482.479 49.646 480.587C49.646 480.431 49.3509 480.587 49.4029 480.587C50.0626 482.618 50.4271 484.718 51.0521 486.75C50.2015 487.982 49.3162 489.232 48.535 490.482C47.0595 492.773 45.6534 495.117 44.2646 497.425C44.0502 497.522 43.9237 497.747 43.9522 497.981C41.6087 502.026 39.4041 506.122 37.2168 510.237C37.2168 510.393 37.3557 510.514 37.4251 510.358C39.6124 506.279 42.06 502.321 44.5945 498.415C44.9888 498.287 45.3965 498.206 45.8096 498.172L47.0768 497.894C48.0316 497.686 48.9863 497.443 49.9237 497.217C51.7985 496.748 53.6559 496.297 55.5481 495.985C55.7043 495.985 55.5481 495.707 55.5481 495.742C53.3088 496.158 51.0694 496.419 48.8127 496.679C47.7538 496.8 46.6949 496.939 45.636 497.113H45.4798C46.7991 495.099 48.1531 493.103 49.5071 491.124C50.8611 489.145 52.2325 487.253 53.6212 485.343C54.8885 485.152 56.1557 484.823 57.4403 484.58L61.7106 483.746C64.5749 483.173 67.4218 482.531 70.2861 482.01C70.3034 482.254 70.234 482.01 70.0778 482.045Z" fill="#263238"/>
<path d="M47.9108 484.006C47.7546 483.485 47.581 482.965 47.4248 482.426C47.0802 481.332 46.7963 480.219 46.5741 479.093C46.5742 478.937 46.2964 479.007 46.3311 479.093C46.5742 480.222 46.8345 481.333 47.0949 482.461C47.3338 483.59 47.6588 484.698 48.0671 485.777C48.1222 485.866 48.2311 485.905 48.3303 485.872C48.4295 485.839 48.4929 485.742 48.4837 485.638C48.3101 485.134 48.0844 484.579 47.9108 484.006Z" fill="#263238"/>
<path d="M73.9481 477.445C72.2122 477.688 70.4763 477.81 68.8618 477.948C67.2474 478.087 65.39 478.348 63.793 478.591V478.747C65.5289 478.625 67.2648 478.504 68.8792 478.278C70.4936 478.053 72.2469 477.81 73.9481 477.688C73.9481 477.671 73.9481 477.41 73.9481 477.445Z" fill="#263238"/>
<path d="M115.49 506.59C114.848 491.922 113.911 477.288 112.435 462.672C111.706 455.398 110.89 448.125 109.866 440.886C108.947 433.767 107.538 426.719 105.648 419.795C104.37 414.42 102.007 409.363 98.7039 404.935C95.3622 400.561 90.0015 398.218 84.5214 398.738C78.0985 399.536 72.9255 403.581 68.4642 407.973C63.4474 412.903 58.8472 418.284 54.2123 423.596C53.0318 424.933 51.8688 426.27 50.7404 427.624C50.6363 427.745 50.7404 427.919 50.9314 427.797C55.4621 422.589 60.1838 417.503 65.1312 412.66C69.6793 408.181 74.3837 403.286 80.7545 401.429C83.6928 400.493 86.8378 400.421 89.816 401.22C92.1817 401.969 94.3115 403.321 95.9958 405.143C99.3568 409.045 101.737 413.693 102.94 418.701C106.897 432.189 108.304 446.319 109.762 460.242C111.22 474.164 112.261 488.572 112.973 502.772C113.685 516.971 114.24 531.362 115.612 545.597C115.785 547.333 116.011 549.069 116.237 550.804C116.393 551.985 118.216 551.985 118.129 550.804C116.827 536.066 116.15 521.346 115.49 506.59Z" fill="#263238"/>
<path d="M67.578 409.571C67.578 409.571 75.9625 394.069 66.0678 389.087C56.173 384.105 23.0343 421.028 13.3652 475.154C13.3652 475.154 66.8663 451.493 85.0414 427.902C103.216 404.311 82.6284 399.12 67.578 409.571Z" fill="#2684EF"/>
<path d="M75.4585 422.172C69.4348 422.172 63.4459 421.721 57.4223 421.756L60.8941 417.885C62.5774 416.17 64.1488 414.35 65.5985 412.434C65.5985 412.295 65.5985 412.121 65.3901 412.225C63.7548 413.624 62.2339 415.15 60.842 416.791C59.3318 418.388 57.8215 419.985 56.346 421.599C54.0372 424.082 51.7805 426.616 49.5412 429.151C49.5412 428.908 49.5412 428.665 49.5412 428.422C49.5412 427.363 49.5412 426.321 49.5412 425.262V419.152C49.5412 415.003 49.5412 410.854 49.871 406.723C49.871 406.566 49.628 406.584 49.6106 406.723C49.3329 410.871 48.8989 414.986 48.6906 419.152C48.6906 421.183 48.5517 423.231 48.517 425.262C48.517 426.321 48.517 427.38 48.517 428.422C48.517 428.994 48.517 429.602 48.517 430.157C48.1698 430.557 47.8053 430.939 47.4407 431.338C42.6496 436.823 38.0841 442.5 33.6402 448.263C33.6402 447.951 33.6402 447.621 33.6402 447.308L33.4319 445.399C33.2756 444.027 33.0847 442.656 32.8764 441.285C32.6681 439.913 32.4771 438.698 32.2688 437.414C32.0605 436.129 31.6612 434.497 31.5571 433.039C31.5571 432.972 31.5027 432.918 31.4356 432.918C31.3685 432.918 31.314 432.972 31.314 433.039C31.5684 434.498 31.7365 435.97 31.8175 437.448L32.182 441.424C32.3035 442.743 32.425 444.062 32.5639 445.399C32.5639 446.024 32.6854 446.666 32.7549 447.291L32.859 448.246C32.8888 448.516 32.9777 448.777 33.1194 449.01L30.828 451.995C27.8075 456.005 24.8217 460.067 21.8359 464.147C21.8359 464.268 21.8359 464.442 22.0269 464.32C24.8391 460.64 27.7381 457.03 30.7065 453.454C32.9111 453.454 35.1504 453.454 37.3551 453.349C39.5597 453.245 41.99 453.349 44.2987 453.349C44.3659 453.349 44.4203 453.295 44.4203 453.228C44.4203 453.161 44.3659 453.106 44.2987 453.106H37.3551C35.2372 453.106 33.0673 453.002 30.9669 453.106C33.5592 449.97 36.1631 446.84 38.7785 443.715C39.7333 442.587 40.7054 441.458 41.6601 440.243C42.5456 440.367 43.4418 440.397 44.3335 440.33H47.5102C49.4718 440.33 51.4507 440.33 53.4297 440.243C57.5091 440.243 61.6059 440.052 65.6853 440.035C65.7524 440.035 65.8068 439.98 65.8068 439.913C65.8068 439.846 65.7524 439.792 65.6853 439.792C61.5885 439.792 57.5091 439.566 53.4123 439.462C51.4334 439.462 49.4544 439.34 47.4755 439.323H44.3161C43.7085 439.323 43.101 439.323 42.5802 439.323C44.8195 436.667 47.0589 433.994 49.3155 431.338C49.3648 431.3 49.4062 431.253 49.4371 431.199C51.6243 428.607 53.8232 426.026 56.0336 423.457L56.9536 422.415C63.1855 422.606 69.4175 422.19 75.6494 422.311C75.6708 422.259 75.6539 422.2 75.6085 422.167C75.5632 422.134 75.5012 422.136 75.4585 422.172Z" fill="#263238"/>
<path d="M72.3684 432.797H70.9102C70.7714 432.797 70.7887 433.023 70.9102 433.023H72.3684C72.542 433.058 72.542 432.797 72.3684 432.797Z" fill="#263238"/>
<path d="M69.1409 432.813C67.214 432.813 65.2872 432.813 63.3603 432.692L60.4613 432.605C59.5738 432.492 58.6755 432.492 57.788 432.605C57.74 432.605 57.7012 432.644 57.7012 432.692C57.7012 432.739 57.74 432.778 57.788 432.778C58.6721 432.964 59.5773 433.028 60.4787 432.969H63.3603H69.1409C69.173 432.922 69.173 432.86 69.1409 432.813Z" fill="#263238"/>
<path d="M52.3194 450.868C48.4039 450.229 44.4472 449.875 40.4805 449.809L40.4805 449.896C44.421 450.278 48.3615 450.486 52.25 451.111C52.3171 451.13 52.3871 451.091 52.4062 451.024C52.4254 450.957 52.3866 450.887 52.3194 450.868Z" fill="#263238"/>
<path d="M36.2264 433.664C36.2264 433.317 36.2264 432.97 36.1049 432.623C36.0181 431.859 35.8965 431.078 35.775 430.314C35.532 428.838 35.2716 427.38 34.9939 425.922C34.9939 425.783 34.7335 425.818 34.7508 425.922C34.9418 427.432 35.098 428.943 35.2542 430.47C35.2542 431.217 35.3758 431.963 35.4452 432.692C35.4156 433.446 35.5214 434.198 35.7577 434.914C35.8618 435.14 36.209 435.036 36.2784 434.827C36.3467 434.441 36.3289 434.044 36.2264 433.664Z" fill="#263238"/>
<path d="M114.969 389.659C113.06 386.083 110.612 381.379 105.838 381.674C101.898 381.934 100.11 385.962 99.2765 389.277C96.6553 399.571 96.5164 410.438 95.9783 421.027C94.902 443.334 93.9299 465.658 93.791 487.982C93.791 494.162 93.791 500.359 93.791 506.539C93.791 512.718 93.791 519.211 94.225 525.512C94.268 525.732 94.4608 525.891 94.685 525.891C94.9093 525.891 95.1021 525.732 95.145 525.512C95.145 520.113 94.9888 514.715 94.9714 509.316C94.9541 503.917 94.9714 498.779 95.0756 493.502C95.2492 482.843 95.5327 472.179 95.9262 461.509C96.3255 450.903 96.7941 440.313 97.2455 429.707L97.9225 413.823C98.1655 408.615 98.3738 403.547 98.9641 398.443C99.2939 395.579 99.7279 392.732 100.318 389.902C100.618 387.814 101.469 385.842 102.783 384.191C104.666 382.354 107.599 382.141 109.727 383.688C111.928 385.222 113.669 387.329 114.761 389.781C114.83 389.92 115.039 389.781 114.969 389.659Z" fill="#263238"/>
<path d="M113.684 388.045C113.684 388.045 109.744 374.157 118.44 381.101C132.901 392.645 133.404 417.781 133.404 417.781C133.404 417.781 107.695 402.852 104.501 392.992C99.7446 378.237 113.684 388.045 113.684 388.045Z" fill="#2684EF"/>
<path d="M128.005 407.382L127.276 406.254C127.302 405.861 127.302 405.466 127.276 405.073C127.276 404.466 127.276 403.875 127.276 403.337C127.276 402.157 127.276 400.994 127.398 399.865C127.398 399.709 127.172 399.709 127.155 399.865C127.155 401.029 127.051 402.174 127.016 403.337V405.073C127.016 405.282 127.016 405.542 127.016 405.802C126.009 404.24 124.968 402.695 123.891 401.167C123.579 400.716 123.266 400.282 122.937 399.848C122.815 398.34 122.815 396.825 122.937 395.317C122.937 393.703 122.937 392.089 122.937 390.492C122.937 390.318 122.694 390.335 122.694 390.492C122.694 392.227 122.572 393.842 122.485 395.526C122.381 396.715 122.346 397.909 122.381 399.102C119.899 395.734 117.26 392.47 114.604 389.242C114.517 389.137 114.326 389.242 114.413 389.398C116.062 391.481 117.642 393.633 119.187 395.803C116.166 395.092 113.094 394.692 110.021 394.241C109.865 394.241 109.796 394.467 110.021 394.484C113.285 394.97 116.479 395.786 119.69 396.498C120.906 398.234 122.138 399.97 123.336 401.706C123.839 402.417 124.308 403.146 124.794 403.858H124.655L123.666 403.719C122.954 403.632 122.242 403.58 121.53 403.528C120.038 403.407 118.562 403.337 117.069 403.251C117.002 403.251 116.948 403.305 116.948 403.372C116.948 403.439 117.002 403.494 117.069 403.494C118.545 403.494 119.985 403.65 121.444 403.806C122.207 403.806 122.971 403.997 123.752 404.084L124.742 404.205H125.037L127.519 407.851C128.96 409.986 130.262 412.295 131.807 414.36C131.911 414.482 132.085 414.36 132.015 414.239C130.807 411.88 129.469 409.591 128.005 407.382Z" fill="#263238"/>
<path d="M121.6 391.708C121.6 391.17 121.6 390.632 121.6 390.094C121.574 388.935 121.62 387.775 121.738 386.622C121.738 386.555 121.684 386.5 121.617 386.5C121.55 386.5 121.495 386.555 121.495 386.622C121.495 387.733 121.374 388.861 121.322 389.99C121.322 390.545 121.322 391.118 121.322 391.726C121.322 391.986 121.322 392.246 121.322 392.507C121.278 392.771 121.278 393.041 121.322 393.305C121.322 393.363 121.368 393.409 121.426 393.409C121.484 393.409 121.53 393.363 121.53 393.305C121.573 393.058 121.573 392.806 121.53 392.559L121.6 391.708Z" fill="#263238"/>
<path d="M118.422 397.471C117.462 397.321 116.494 397.223 115.523 397.176C114.464 397.072 113.406 396.985 112.347 396.846C112.173 396.846 112.138 397.089 112.347 397.089C114.378 397.228 116.409 397.593 118.44 397.662C118.477 397.642 118.498 397.603 118.494 397.561C118.49 397.519 118.462 397.484 118.422 397.471Z" fill="#263238"/>
<path d="M126.495 397.541C126.53 397.718 126.53 397.901 126.495 398.079V398.461C126.495 398.791 126.495 399.103 126.495 399.433V400.405C126.443 400.686 126.443 400.974 126.495 401.256C126.495 401.256 126.495 401.256 126.599 401.256C126.633 401.119 126.633 400.976 126.599 400.839V400.405C126.599 400.075 126.599 399.745 126.599 399.433V398.009C126.599 397.871 126.599 397.593 126.599 397.471C126.599 397.35 126.339 397.315 126.495 397.541Z" fill="#263238"/>
<path d="M115.61 463.697C110.194 459.652 105.334 453.819 98.06 453.524C92.0711 453.299 87.8528 457.812 85.4572 462.846C84.2502 465.521 83.2633 468.291 82.5061 471.126C81.4299 474.922 80.4115 478.741 79.4509 482.584C77.5414 490.152 75.9212 497.755 74.5904 505.394C73.8613 509.664 73.1843 513.934 72.6461 518.239C71.9644 522.597 71.5413 526.99 71.3789 531.398C71.4048 531.729 71.6617 531.995 71.9916 532.033C72.3216 532.071 72.6323 531.87 72.7329 531.554C73.462 527.96 73.7571 524.246 74.2953 520.618C74.8334 516.99 75.3715 513.309 76.0312 509.664C77.2579 502.373 78.6929 495.128 80.3363 487.93C81.8812 481.125 83.4088 474.216 85.544 467.585C87.1064 462.846 89.6408 457.291 94.7617 455.59C102.573 452.986 109.656 459.6 115.367 463.888C115.61 463.974 115.697 463.801 115.61 463.697Z" fill="#263238"/>
<path d="M109.969 459.826C109.969 459.826 104.987 445.591 112.191 442.796C123.006 438.613 151.284 470.467 145.746 519.177C145.746 519.177 123.891 507.147 107.764 493.607C91.6377 480.066 87.5062 462.36 94.6061 457.812C101.706 453.264 109.969 459.826 109.969 459.826Z" fill="#2684EF"/>
<path d="M142.483 508.796C141.724 507.096 140.842 505.454 139.844 503.883C138.924 502.147 137.987 500.55 137.032 498.901C135.157 495.69 133.282 492.461 131.355 489.284L130.418 487.739C130.418 487.548 130.418 487.357 130.54 487.166L130.852 485.76C131.095 484.701 131.286 483.625 131.477 482.566C131.876 480.483 132.223 478.365 132.796 476.317C132.796 476.25 132.742 476.195 132.675 476.195C132.608 476.195 132.553 476.25 132.553 476.317C132.102 478.4 131.442 480.466 130.817 482.497C130.505 483.503 130.192 484.51 129.915 485.535C129.915 485.882 129.741 486.229 129.637 486.576C127.328 482.757 124.967 478.973 122.416 475.31C122.579 474.805 122.661 474.278 122.659 473.748L122.919 471.613C123.11 469.998 123.283 468.401 123.527 466.804C123.94 463.657 124.52 460.534 125.262 457.447C125.262 457.291 125.071 457.256 125.019 457.447C124.256 460.52 123.405 463.593 122.815 466.7C122.537 468.227 122.259 469.772 122.051 471.3C121.947 472.081 121.877 472.845 121.791 473.626C121.791 473.852 121.791 474.095 121.791 474.321C121.009 473.209 120.228 472.116 119.395 471.04C116.913 467.759 114.326 464.547 111.705 461.353C111.705 461.232 111.41 461.353 111.514 461.492C115.982 467.208 120.082 473.203 123.787 479.441C124.516 480.587 125.21 481.733 125.922 482.913L125.21 482.826C124.308 482.722 123.37 482.653 122.468 482.566L116.947 482.097C113.267 481.802 109.57 481.577 105.907 481.177C105.751 481.177 105.699 481.403 105.907 481.42C109.639 481.854 113.337 482.445 117.034 482.983C118.77 483.243 120.68 483.486 122.52 483.712C123.903 483.991 125.31 484.137 126.721 484.146C128.179 486.46 129.625 488.81 131.06 491.194C130.737 491.167 130.412 491.167 130.088 491.194L124.881 491.194C122.502 491.194 120.141 491.194 117.763 491.194C117.607 491.194 117.642 491.437 117.763 491.437C120.159 491.437 122.554 491.593 124.95 491.714C126.096 491.714 127.224 491.836 128.422 491.923L130.158 492.044C130.65 492.149 131.158 492.149 131.651 492.044C132.883 494.041 134.133 496.037 135.348 498.033C136.563 500.03 137.622 501.713 138.82 503.536C139.919 505.483 141.16 507.346 142.535 509.108C142.621 509.094 142.679 509.012 142.665 508.926C142.651 508.84 142.569 508.781 142.483 508.796Z" fill="#263238"/>
<path d="M132.067 469.355C131.847 470.925 131.522 472.479 131.095 474.007C130.678 475.587 130.227 477.149 129.706 478.694C129.677 478.775 129.72 478.865 129.802 478.893C129.883 478.922 129.973 478.879 130.001 478.798C130.487 477.253 130.921 475.708 131.303 474.128C131.685 472.549 131.928 470.969 132.31 469.407C132.345 469.25 132.084 469.198 132.067 469.355Z" fill="#263238"/>
<path d="M116.011 478.884C115.68 478.607 115.262 478.453 114.83 478.45L112.764 478.173L108.928 477.704C106.255 477.391 103.599 477.131 100.925 476.801C100.769 476.801 100.734 477.027 100.925 477.044C103.443 477.339 105.925 477.721 108.442 478.051L112.122 478.537L113.858 478.728C114.544 478.729 115.225 478.846 115.872 479.075C116.011 479.145 116.097 478.971 116.011 478.884Z" fill="#263238"/>
<path d="M132.032 500.359C130.765 500.238 129.498 500.203 128.248 500.168H126.338H125.418C125.025 500.204 124.63 500.204 124.238 500.168C124.047 500.168 124.029 500.446 124.238 500.411C124.607 500.377 124.979 500.377 125.349 500.411H126.338L128.248 500.533C129.515 500.533 130.782 500.689 132.032 500.689C132.171 500.62 132.188 500.359 132.032 500.359Z" fill="#263238"/>
<path d="M139.722 494.891C139.884 494.174 140.023 493.462 140.139 492.756L140.92 488.52C140.92 488.453 140.866 488.399 140.798 488.399C140.731 488.399 140.677 488.453 140.677 488.52L139.74 492.635C139.583 493.312 139.444 494.006 139.288 494.683C139.288 495.013 139.167 495.325 139.097 495.638C138.994 495.963 138.959 496.305 138.993 496.645C138.993 496.766 139.184 496.853 139.254 496.645C139.518 496.095 139.677 495.5 139.722 494.891Z" fill="#263238"/>
<path d="M136.823 536.952L135.608 557.123L132.015 616.665H58.3945L54.8011 557.123L53.5859 536.952H136.823Z" fill="#455A64"/>
<path d="M136.823 536.952L135.608 557.123H54.8011L53.5859 536.952H136.823Z" fill="#263238"/>
<rect x="47.9629" y="522.682" width="94.5035" height="20.1887" fill="#455A64"/>
<path d="M364.924 517.508C364.924 517.508 354.769 592.24 354.769 592.292C354.578 606.596 354.161 619.129 353.345 625.587C353.353 625.621 353.353 625.656 353.345 625.691C353.33 627.222 352.95 628.728 352.234 630.083L352.147 630.187C347.86 632.999 233.584 634.874 229.574 633.659C225.564 632.443 228.897 620.865 233.272 617.254C237.646 613.643 281.096 593.351 281.096 593.351L291.963 518.706L364.924 517.508Z" fill="#AD6359"/>
<path d="M354.613 601.563C354.387 611.979 353.988 620.658 353.346 625.658C353.354 625.692 353.354 625.727 353.346 625.762C353.331 627.293 352.95 628.799 352.235 630.154C352.235 630.154 352.235 630.154 352.235 630.24C347.93 633.07 233.654 634.927 229.644 633.712C225.634 632.497 228.967 620.918 233.342 617.308C235.442 615.572 246.483 610.052 257.419 604.74C253.947 607.465 250.475 610.815 252.055 612.169C254.78 614.426 324.078 611.979 354.613 601.563Z" fill="#263238"/>
<path d="M263.771 601.562C263.771 601.562 283.995 592.361 318.679 609.009L263.771 601.562Z" fill="#263238"/>
<path d="M382.006 569.014L282.416 567.417L332.532 193.743H400.042L382.006 569.014Z" fill="#263238"/>
<path d="M400.042 193.743L387.248 459.929L353.676 193.743H400.042Z" fill="#37474F"/>
<path d="M377.213 551.708C374.21 551.378 371.138 551.395 368.117 551.274C365.097 551.152 362.319 551.117 359.437 551.065C353.431 550.961 347.442 550.857 341.436 550.788C329.58 550.683 317.723 550.597 305.867 550.631C299.132 550.631 292.431 550.857 285.696 551.152C285.624 551.175 285.576 551.242 285.576 551.317C285.576 551.392 285.624 551.459 285.696 551.482C297.621 552.194 309.53 552.385 321.473 552.541C333.416 552.697 345.186 552.732 357.042 552.714C360.375 552.714 363.69 552.714 367.023 552.714C370.356 552.714 373.863 552.714 377.213 552.402C377.405 552.402 377.56 552.246 377.56 552.055C377.56 551.863 377.405 551.708 377.213 551.708Z" fill="#455A64"/>
<path d="M345.273 213.219C339.405 255.662 333.972 298.14 328.208 340.601C322.445 383.061 316.369 425.088 310.224 467.323C306.753 491.018 303.159 514.679 299.982 538.495C299.982 538.86 300.486 538.999 300.555 538.634C308.315 496.504 314.443 454.06 320.605 411.669C326.768 369.278 332.409 327.165 337.635 284.825C340.568 261.043 343.415 237.244 345.828 213.41C345.863 212.976 345.325 212.906 345.273 213.219Z" fill="#455A64"/>
<path d="M400.129 518.602C400.129 518.602 409.711 589.861 409.711 589.913C409.798 604.2 410.128 616.733 410.909 623.208C410.902 623.243 410.902 623.278 410.909 623.312C410.933 624.844 411.301 626.351 411.985 627.722C411.985 627.722 411.985 627.722 412.072 627.809C416.342 630.655 518.38 633.259 522.407 632.009C526.434 630.76 523.171 619.216 518.814 615.57C514.457 611.925 483.366 591.372 483.366 591.372L471.371 516.727L400.129 518.602Z" fill="#AD6359"/>
<path d="M522.424 632.01C518.414 633.259 416.377 630.656 412.089 627.809C412.089 627.809 412.089 627.809 412.089 627.704C411.381 626.342 411.006 624.831 410.995 623.295C410.987 623.261 410.987 623.225 410.995 623.191C410.165 615.699 409.805 608.161 409.919 600.624C426.584 611.196 469.739 615.9 483.453 612.897C495.604 610.224 492.931 600.433 490.396 596.024C499.805 602.291 515.862 613.071 518.935 615.622C523.188 619.198 526.451 630.76 522.424 632.01Z" fill="#263238"/>
<path d="M490.292 595.972C490.292 595.972 455.956 590.382 432.469 608.94L490.292 595.972Z" fill="#263238"/>
<path d="M339.389 193.622C339.684 195.01 344.405 216.918 349.301 235.735C352.859 249.483 356.522 261.565 358.623 262.815C361.001 264.221 372.597 269.36 376.485 270.974L391.622 568.32L494.667 566.011L440.853 241.811L431.792 193.622H339.389Z" fill="#263238"/>
<path d="M352.478 259.864C360.752 262.876 368.75 266.599 376.381 270.991C376.502 271.064 376.55 271.215 376.492 271.343C376.435 271.472 376.29 271.537 376.156 271.495C368.101 268.023 359.89 264.725 352.044 260.819C351.78 260.699 351.664 260.388 351.783 260.124C351.903 259.861 352.214 259.744 352.478 259.864Z" fill="#455A64"/>
<path d="M350.047 204.714C350.047 204.436 350.55 204.367 350.55 204.714C350.55 214.279 351.106 222.698 351.904 231.621C352.286 235.77 355.619 258.701 362.806 257.035C364.021 256.74 364.542 255.559 364.82 253.754C364.794 251.38 364.473 249.018 363.865 246.723C363.066 241.915 362.424 237.106 362.007 232.263C361.177 223.233 361.276 214.141 362.303 205.131C362.332 205.025 362.428 204.952 362.537 204.952C362.646 204.952 362.742 205.025 362.771 205.131C362.552 217.643 363.284 230.155 364.958 242.557C365.861 248.529 368.864 257.503 362.632 258.423C356.4 259.343 352.217 244.328 351.384 240.214C349.411 228.487 348.961 216.555 350.047 204.714Z" fill="#455A64"/>
<path d="M362.616 257.59C363.265 259.135 363.804 260.725 364.23 262.346C364.694 263.595 364.924 264.919 364.907 266.252C364.886 266.363 364.801 266.45 364.69 266.473C364.58 266.496 364.467 266.449 364.404 266.356C363.639 265.182 363.054 263.901 362.668 262.554C362.13 261.079 361.539 259.621 361.036 258.145C360.883 257.709 361.112 257.231 361.548 257.077C361.984 256.924 362.462 257.153 362.616 257.59Z" fill="#455A64"/>
<path d="M488.833 551.81C485.83 551.567 482.74 551.654 479.719 551.619C476.699 551.585 473.939 551.619 471.04 551.619C465.051 551.619 459.044 551.758 453.055 551.862C441.199 552.088 429.343 552.349 417.487 552.713C410.751 552.921 404.051 553.321 397.35 553.807C397.279 553.83 397.23 553.897 397.23 553.972C397.23 554.047 397.279 554.113 397.35 554.137C409.293 554.518 421.201 554.362 433.145 554.137C445.088 553.911 456.857 553.651 468.696 553.303L478.678 552.956C482.045 552.817 485.517 552.765 488.85 552.349C488.944 552.289 488.999 552.185 488.995 552.075C488.992 551.964 488.93 551.863 488.833 551.81Z" fill="#455A64"/>
<path d="M443.7 511.797C442.815 502.718 441.842 493.639 440.905 484.561C439.03 466.576 437.098 448.604 435.107 430.643C431.161 394.709 427.11 358.776 422.956 322.842C420.647 302.688 418.737 282.465 416.116 262.346C416.116 262.172 415.804 262.172 415.821 262.346C417.383 280.538 419.605 298.661 421.445 316.819C423.285 334.976 425.056 352.77 426.931 370.736C430.657 406.693 434.488 442.632 438.423 478.554C439.534 488.64 440.645 498.726 441.894 508.811C443.144 518.897 444.481 528.965 445.748 539.051C445.748 539.294 446.165 539.294 446.13 539.051C445.262 529.955 444.585 520.876 443.7 511.797Z" fill="#455A64"/>
<path d="M331.732 234.728L349.317 235.856L400.579 239.189L440.887 241.811L431.791 193.622H339.388H332.444L331.732 234.728Z" fill="#263238"/>
<path d="M356.349 5.69059C339.51 20.1161 344.197 41.1728 337.167 52.5604C332.862 59.5041 318.87 66.9165 316.075 74.9538C311.51 88.1815 322.707 92.9206 320.207 100.107C316.735 110.28 303.039 109.499 300.574 126.146C298.109 142.794 316.44 160.5 359.925 165.308C403.41 170.117 427.278 154.181 428.841 140.051C430.403 125.92 415.943 121.233 414.953 110.679C414.329 103.944 423.251 99.2393 423.633 86.8448C424.015 74.4504 412.002 70.4057 410.266 59.8687C408.531 49.3316 414.12 23.7268 398.636 10.6553C383.151 -2.41613 364.646 -1.42667 356.349 5.69059Z" fill="#263238"/>
<path d="M358.293 6.14224C353.585 9.47434 349.75 13.8928 347.113 19.0228C344.388 24.4631 342.302 30.201 340.899 36.1216C340.173 39.648 339.043 43.0789 337.531 46.3461C336.029 49.0741 334.054 51.5134 331.698 53.5502C326.994 57.8032 321.369 61.0494 317.151 65.8232C312.933 70.5969 310.034 76.4123 311.631 82.5748C312.499 85.9251 314.721 88.6678 316.092 91.7925C317.464 94.9172 317.828 98.4584 315.381 100.923C313.193 103.024 310.051 103.996 307.586 105.715C305.149 107.412 303.004 109.493 301.233 111.877C297.611 116.64 296.156 122.706 297.223 128.594C299.792 142.117 312.482 149.807 324.199 154.633C325.831 155.31 327.463 155.969 329.112 156.612C329.372 156.716 329.58 156.351 329.32 156.247C317.568 151.039 303.923 144.807 299.41 131.649C297.291 125.833 298.01 119.36 301.354 114.151C303.018 111.621 305.123 109.41 307.569 107.624C309.93 105.888 312.673 104.795 315.068 103.145C317.5 101.603 318.913 98.8698 318.766 95.9935C318.396 92.8844 317.289 89.9086 315.537 87.3139C313.71 84.6338 312.741 81.4613 312.759 78.2177C313.112 75.0642 314.312 72.065 316.231 69.5381C319.894 64.3303 325.31 60.9626 330.119 57.0394C335.096 53.3932 338.801 48.2737 340.708 42.4056C341.61 39.2983 342.166 36.1042 342.947 32.9796C343.648 30.0407 344.511 27.143 345.534 24.3C347.454 18.6358 350.595 13.4624 354.734 9.1454C355.821 8.04091 357.019 7.05194 358.31 6.19434C358.64 6.14224 358.431 5.96866 358.293 6.14224Z" fill="#263238"/>
<path d="M430.766 129.705C430.237 127.406 429.212 125.249 427.763 123.387C426.253 121.477 424.43 119.915 422.746 118.179C421.035 116.587 419.802 114.549 419.188 112.294C418.882 109.539 419.565 106.764 421.115 104.465C422.585 102.036 423.885 99.5067 425.003 96.8965C427.984 88.8198 426.974 79.8094 422.278 72.5936C420.802 70.1633 419.136 67.8545 417.625 65.4416C415.972 62.8128 414.676 59.9758 413.772 57.005C411.81 50.4606 411.393 43.5517 409.796 36.9205C408.109 30.1267 405.742 23.52 402.731 17.2004C402.731 17.0442 402.419 17.2004 402.505 17.3393C405.179 23.0433 407.245 29.0131 408.668 35.1498C410.057 40.9652 410.595 46.902 411.619 52.7694C412.073 55.6589 412.811 58.4965 413.824 61.2407C414.856 63.7744 416.117 66.2089 417.591 68.5142C420.542 73.3053 423.562 78.0271 424.378 83.7209C425.189 89.3018 424.21 94.9962 421.583 99.9864C419.292 104.309 416.098 109.083 418.111 114.134C419.847 118.422 423.875 121.078 426.6 124.55C429.489 128.507 430.556 133.507 429.534 138.298C427.19 150.45 415.004 156.508 403.582 157.116C403.428 157.115 403.304 157.24 403.304 157.393C403.304 157.547 403.428 157.671 403.582 157.671C413.511 157.549 424.326 153.192 428.978 143.888C431.208 139.513 431.841 134.497 430.766 129.705Z" fill="#263238"/>
<path d="M366.087 92.3818C362.997 105.019 326.282 223.478 319.008 225.128C297.604 229.953 271.878 233.495 272.26 215.927C272.868 188.361 324.685 115.799 349.508 91.6874C365.843 75.8038 369.142 79.9005 366.087 92.3818Z" fill="#AD6359"/>
<path d="M366.087 92.3818C362.997 105.019 326.282 223.478 319.008 225.128C297.604 229.953 271.878 233.495 272.26 215.927C272.868 188.361 324.685 115.799 349.508 91.6874C365.843 75.8038 369.142 79.9005 366.087 92.3818Z" fill="#AD6359"/>
<path d="M272.121 222.247C263.233 191 338.346 99.1528 352.963 87.4527C367.579 75.7526 369.471 79.4154 366.503 94.1881C363.534 108.961 328.017 220.789 320.449 224.868C312.88 228.948 276.148 236.412 272.121 222.247Z" fill="#EBEBEB"/>
<path d="M333.503 163.261L325.258 219.991C325.258 219.991 417.713 221.362 440.662 219.748C440.662 219.748 421.949 113.683 397.264 86.8978C384.921 73.4965 370.426 74.486 361.191 83.8599C358.865 86.2382 330.969 123.092 328.035 137.17C325.466 149.582 333.503 163.261 333.503 163.261Z" fill="#2684EF"/>
<path d="M387.039 79.0513C387.039 79.0513 376.276 374.783 381.987 388.826C387.698 402.87 473.644 416.809 473.644 416.809C473.644 416.809 448.421 205.131 425.541 140.885C404.329 81.308 387.039 79.0513 387.039 79.0513Z" fill="#EBEBEB"/>
<path d="M444.464 260.872C436.661 261.949 428.801 262.563 420.925 262.712C409.92 262.712 399.001 261.635 395.841 261.601C395.564 261.601 395.425 262.521 395.616 262.538C403.954 263.542 412.337 264.121 420.734 264.274C428.421 264.22 436.088 263.494 443.649 262.104C443.648 264.43 443.648 266.253 443.648 268.596C435.889 270.089 420.925 272.676 396.779 269.569C396.692 268.596 396.779 263.406 396.622 261.983C396.622 261.774 395.685 261.722 395.65 261.983C395.459 263.389 394.887 275.87 394.869 278.404C394.869 284.654 395.251 302.291 396.796 305.71C400.268 313.453 415.388 313.47 419.571 313.505C423.755 313.539 437.191 313.956 442.225 309.026C444.916 306.405 445.489 292.101 445.089 279.515C444.829 273.474 444.812 260.993 444.464 260.872ZM420.682 312.046C407.35 312.046 401.587 309.269 399.504 306.474C397.108 303.245 396.9 297.586 396.727 291.354C396.588 286.459 396.727 271.131 396.727 270.818C404.486 272.381 424.987 274.516 443.596 270.193C443.596 277.45 443.596 283.265 443.596 290.538C443.596 295.746 443.267 304.634 440.593 307.707C438.493 310.276 430.317 312.029 420.682 312.046Z" fill="#A6A6A6"/>
<path d="M330.361 390.128C325.604 401.376 297.17 409.014 297.17 409.014L332.999 162.236C328.464 154.807 326.694 146.017 328 137.412C330.413 123.525 359.385 83.408 364.072 81.3423C359.235 102.059 355.877 123.094 354.021 144.287C345.984 231.031 335.568 377.855 330.361 390.128Z" fill="#EBEBEB"/>
<path d="M337.132 118.664C339.718 114.55 342.339 110.47 344.909 106.339C344.909 106.217 344.787 106.078 344.7 106.2C342.114 109.672 339.597 113.022 337.097 116.476C337.93 114.636 338.729 112.779 339.475 110.887C339.475 110.678 339.267 110.488 339.163 110.713C338.017 113.143 336.975 115.608 335.951 118.091C333.717 121.18 331.743 124.449 330.049 127.864C326.33 134.948 325.218 143.114 326.907 150.934C327.437 153.115 328.211 155.229 329.216 157.236C329.91 158.607 332.132 161.576 332.115 161.662C330.674 169.752 329.58 177.928 328.435 186.069C327.289 194.211 326.109 202.526 325.154 210.789C324.616 215.476 324.269 220.18 323.574 224.833C323.574 225.006 323.817 225.076 323.852 224.833C324.442 220.77 325.31 216.76 326.039 212.681C326.768 208.602 327.445 204.592 328.088 200.53C329.407 192.336 330.587 184.125 331.768 175.914C332.445 171.262 333.174 166.627 333.695 162.027C332.933 160.264 332.045 158.559 331.039 156.923C330.203 155.205 329.524 153.416 329.008 151.577C327.94 147.852 327.61 143.954 328.035 140.102C328.938 132.256 333 125.26 337.132 118.664Z" fill="#263238"/>
<path d="M363.848 82.2446C361.129 86.3761 358.363 90.4671 355.551 94.5176C352.721 98.5623 349.961 102.659 347.079 106.669V105.714L354.023 112.988L354.596 113.578L353.988 114.168C351.072 116.998 348.103 119.758 345.152 122.553L345.395 121.824C346.472 129.34 347.617 136.857 348.572 144.391C349.527 151.924 350.551 159.476 351.384 166.958C349.944 159.493 348.642 152.011 347.392 144.512C346.142 137.013 344.961 129.514 343.764 121.945V121.528L344.076 121.233C347.01 118.421 349.926 115.592 352.895 112.832V114.012L345.916 106.825L345.482 106.357L345.847 105.853C348.763 101.878 351.801 97.9721 354.752 94.0315C357.703 90.091 360.776 86.1157 363.848 82.2446Z" fill="#A6A6A6"/>
<path d="M394.885 100.003C402.784 110.419 438.405 151.786 440.662 155.431C442.189 157.879 433.596 169.423 433.718 171.054C434.482 177.824 448.421 221.274 454.185 216.535C461.771 210.321 496.697 167.01 491.628 148.366C486.559 129.722 407.037 84.9353 394.816 81.3072C382.595 77.6791 387.074 89.8132 394.885 100.003Z" fill="#AD6359"/>
<path d="M439.741 156.005C439.741 153.366 398.079 109.014 390.423 94.1887C382.768 79.364 386.656 76.2046 406.203 85.7175C425.749 95.2303 485.76 130.07 492.877 147.395C499.995 164.719 460.936 212.335 460.936 212.335L433.613 166.351C433.613 166.351 439.706 158.175 439.741 156.005Z" fill="#EBEBEB"/>
<path d="M466.267 199.071C456.841 181.556 444.29 164.579 442.311 161.471C442.207 161.315 441.981 161.471 442.085 161.628C444.186 164.579 456.441 185.549 466.024 199.245C466.076 199.401 466.267 199.245 466.267 199.071Z" fill="#263238"/>
<path d="M424.275 136.822C422.539 134.67 420.907 132.465 419.067 130.347C417.227 128.229 415.422 126.077 413.564 123.976C409.826 119.706 406.019 115.505 402.142 111.374C402.142 111.374 401.986 111.374 402.038 111.374C404.029 113.896 406.048 116.385 408.096 118.838C406.812 117.762 405.44 116.772 404.052 115.817C404.052 115.817 403.93 115.817 404.052 115.922C405.249 117.102 406.499 118.265 407.801 119.393L409.711 120.956C409.888 121.11 410.074 121.255 410.266 121.39C411.1 122.379 412.002 123.369 412.749 124.341C414.485 126.476 416.377 128.611 418.252 130.712C420.126 132.812 422.175 134.878 424.119 136.996C424.171 137.1 424.379 136.944 424.275 136.822Z" fill="#263238"/>
<path d="M429.274 227.922C425.212 224.45 431.67 221.621 431.67 221.621C431.67 221.621 421.41 223.357 418.616 218.149C415.821 212.941 423.823 210.008 424.414 209.782C423.875 209.869 414.415 211.257 412.141 205.702C409.867 200.147 418.268 198.203 418.824 198.082C418.286 198.082 411.168 196.867 410.405 192.266C409.103 184.351 429.743 185.878 434.708 181.712C434.708 181.712 433.892 171.296 433.77 171.071C434.828 173.48 436.661 175.466 438.978 176.713C443.283 178.448 447.189 179.681 448.751 182.024C450.211 184.128 450.147 186.932 448.595 188.968C448.595 188.968 454.289 188.968 456.216 193.291C457.188 195.495 454.48 199.036 454.48 199.036C457.106 199.184 459.43 200.785 460.503 203.185C461.701 206.31 458.767 209.383 458.767 209.383C458.767 209.383 463.055 211.605 463.211 215.198C463.732 222.541 437.988 235.404 429.274 227.922Z" fill="#AD6359"/>
<path d="M458.56 210.026C458.647 210.026 458.716 210.026 458.647 210.147C450.94 216.718 441.416 220.787 431.341 221.813C431.011 221.813 430.837 221.327 431.184 221.24C440.804 218.846 450.025 215.069 458.56 210.026Z" fill="#263238"/>
<path d="M454.74 199.124C454.844 199.124 454.931 199.21 454.844 199.297C446.27 206.453 435.424 210.313 424.257 210.181C423.875 210.181 423.528 209.765 423.979 209.747C431.548 209.487 446.806 204.036 454.74 199.124Z" fill="#263238"/>
<path d="M418.043 197.804C428.962 197.804 438.787 194.332 448.369 189.35C448.491 189.35 448.56 189.472 448.473 189.541C444.463 193.273 438.058 195.842 432.85 197.405C428.073 198.953 422.974 199.223 418.06 198.186C417.834 198.134 417.8 197.804 418.043 197.804Z" fill="#263238"/>
<path d="M459.22 209.469C461.239 207.827 462.17 205.194 461.633 202.647C461.267 201.454 460.484 200.431 459.428 199.766C458.13 199.143 456.7 198.845 455.262 198.898C457.13 196.812 457.529 193.795 456.268 191.294C455.56 190.219 454.467 189.455 453.213 189.159C451.764 188.855 450.282 188.744 448.804 188.829C450.199 187.541 450.895 185.664 450.679 183.778C450.364 181.709 449.072 179.919 447.207 178.969C445.053 177.893 442.781 177.071 440.437 176.522C439.228 176.201 438.062 175.734 436.965 175.133C435.993 174.543 434.622 173.397 434.483 172.234C434.483 171.991 434.118 172.147 434.24 172.234C434.712 173.031 435.228 173.802 435.785 174.543C436.439 175.254 437.186 175.872 438.007 176.383C440.069 177.44 442.204 178.351 444.395 179.108C446.311 179.844 447.925 181.201 448.978 182.962C449.94 184.84 449.752 187.102 448.492 188.795C448.456 188.838 448.451 188.899 448.477 188.948C448.504 188.997 448.557 189.026 448.613 189.02C449.935 189.162 451.236 189.465 452.484 189.923C453.512 190.332 454.395 191.04 455.019 191.954C456.14 194.237 455.955 196.945 454.533 199.054C455.943 199.335 457.293 199.858 458.525 200.599C459.321 201.208 459.923 202.034 460.261 202.977C461.034 205.176 460.496 207.624 458.872 209.296V209.383C458.872 209.383 460.226 210.147 460.296 210.164C460.365 210.181 460.296 210.164 460.296 210.077C459.948 209.856 459.589 209.653 459.22 209.469Z" fill="#263238"/>
<path d="M388.411 81.4106C390.512 85.872 392.578 90.368 394.574 94.8814C396.57 99.3948 398.601 103.891 400.511 108.439L400.754 109.012L400.233 109.359L391.918 114.983L392.161 113.82C394.418 117.188 396.605 120.608 398.81 124.027L399.018 124.357L398.914 124.722C396.674 131.666 394.522 138.609 392.196 145.431C389.87 152.254 387.561 159.197 385.113 166.037C386.988 159.006 388.984 152.028 391.033 145.067C393.081 138.106 395.216 131.179 397.334 124.236V124.93C395.095 121.458 392.856 118.16 390.668 114.74L390.2 114.029L390.894 113.577L399.313 108.109L399.035 109.029C397.143 104.464 395.407 99.8461 393.567 95.2633C391.727 90.6805 390.113 85.9935 388.411 81.4106Z" fill="#A6A6A6"/>
<path d="M397.265 90.0044C396.831 79.9013 384.245 77.2627 376.625 77.0544C367.58 76.8114 361.748 78.2174 358.415 87.3137C354.943 96.9133 353.71 107.745 353.051 117.901C353.008 118.715 352.312 119.341 351.497 119.298C350.682 119.255 350.057 118.559 350.1 117.744C350.864 106.044 351.436 84.3105 362.164 76.8114C372.059 69.8677 399.487 73.0271 400.216 90.1606C400.216 92.0527 397.334 91.8965 397.265 90.0044Z" fill="#455A64"/>
<path d="M344.509 123.057C344.322 126.801 347.205 129.988 350.949 130.175C354.693 130.362 357.88 127.478 358.067 123.734C358.254 119.99 355.37 116.804 351.626 116.617C347.889 116.449 344.714 119.322 344.509 123.057Z" fill="#263238"/>
<path d="M347.218 123.195C347.106 125.443 348.837 127.358 351.086 127.471C353.335 127.585 355.251 125.856 355.366 123.607C355.482 121.358 353.754 119.441 351.506 119.323C350.422 119.262 349.359 119.637 348.554 120.364C347.748 121.091 347.267 122.11 347.218 123.195Z" fill="#EBEBEB"/>
<path d="M390.546 122.553C386.241 151.56 388.151 158.313 390.842 161.299C392.861 163.349 395.326 164.906 398.045 165.847L398.705 163.885C396.316 163.039 394.15 161.662 392.369 159.858C390.425 157.706 388.324 151.526 392.577 122.814L390.546 122.553Z" fill="#C7C7C7"/>
<path d="M398.337 169.235C397.771 168.999 397.504 168.349 397.74 167.783L398.577 165.779C398.813 165.213 399.463 164.946 400.029 165.182L404.564 167.075C405.13 167.311 405.397 167.962 405.161 168.527L404.324 170.531C404.088 171.097 403.438 171.364 402.872 171.128L398.337 169.235Z" fill="#263238"/>
<path d="M408.98 121.215C416.914 141.838 419.552 153.313 417.278 157.34C415.935 159.486 414.125 161.301 411.984 162.652L413.043 164.388C415.484 162.844 417.544 160.767 419.066 158.312C421.774 153.521 419.413 142.55 410.907 120.452L408.98 121.215Z" fill="#C7C7C7"/>
<path d="M411.449 166.934C410.949 167.288 410.256 167.169 409.902 166.668L408.648 164.895C408.294 164.394 408.413 163.702 408.914 163.348L412.927 160.511C413.427 160.157 414.12 160.276 414.474 160.776L415.728 162.55C416.082 163.05 415.963 163.743 415.462 164.097L411.449 166.934Z" fill="#263238"/>
<path d="M411.534 119.516C410.078 114.916 408.339 110.412 406.326 106.028C405.21 104.118 403.604 102.542 401.674 101.462C401.275 101.462 401.049 97.8687 400.927 94.9176C400.841 92.3311 400.771 89.2932 400.059 88.5294C399.228 87.822 397.986 87.8987 397.247 88.703C396.622 89.5363 396.917 92.5568 397.108 95.1433C397.334 98.0944 397.542 101.688 397.108 101.722C395.472 103.102 394.187 104.852 393.359 106.826C391.876 111.536 390.756 116.353 390.009 121.234C389.696 124.324 390.72 124.584 391.623 124.793C392.89 125.071 393.584 124.151 394.175 120.713C395.112 115.245 396.049 106.114 399.73 105.732C403.427 105.732 405.962 114.968 407.715 120.106C408.809 123.317 409.451 123.578 410.77 123.126C411.569 122.849 412.454 122.449 411.534 119.516Z" fill="#263238"/>
<path d="M384.921 80.7857C384.244 82.5216 377.596 94.1696 369.298 94.1696C364.09 94.1696 365.34 76.2376 365.34 76.2376V75.1266L364.125 59.5033L383.567 50.6501L386.345 49.5044C386.345 49.5044 386.345 53.8095 386.345 59.1561V59.9546C386.345 60.2671 386.345 60.5448 386.345 60.8226C386.345 61.6211 386.345 62.437 386.345 63.2529C386.345 64.0688 386.345 64.4854 386.345 65.1277C386.345 65.77 386.345 66.4122 386.345 67.0719C386.181 71.6701 385.705 76.2518 384.921 80.7857Z" fill="#AD6359"/>
<path d="M386.311 59.1563C381.973 67.3208 374.268 73.1668 365.237 75.1441L364.021 59.5209L383.464 50.6677L386.241 49.522C386.241 49.522 386.293 53.8097 386.311 59.1563Z" fill="#263238"/>
<path d="M344.474 36.2246C341.905 63.6348 358.049 68.2697 363.951 68.8079C369.315 69.3113 387.646 70.3007 393.028 43.3072C398.409 16.3136 386.414 6.45361 374.262 4.68298C362.111 2.91235 347.026 8.81446 344.474 36.2246Z" fill="#AD6359"/>
<path d="M353.431 30.1333C354.056 30.0586 354.676 29.9485 355.289 29.8035C355.968 29.785 356.622 29.5406 357.146 29.1091C357.421 28.7573 357.421 28.2632 357.146 27.9113C356.536 27.2816 355.634 27.0295 354.785 27.2517C353.903 27.353 353.089 27.7727 352.494 28.4321C352.236 28.7659 352.201 29.2208 352.405 29.5901C352.608 29.9594 353.012 30.1728 353.431 30.1333Z" fill="#263238"/>
<path d="M372.215 30.8616C371.594 30.7402 370.979 30.5837 370.375 30.3929C369.725 30.312 369.117 30.0262 368.639 29.577C368.37 29.2231 368.37 28.7332 368.639 28.3792C369.296 27.7918 370.219 27.6058 371.052 27.8932C371.925 28.056 372.705 28.5389 373.24 29.2472C373.473 29.5907 373.48 30.0401 373.258 30.3908C373.035 30.7416 372.626 30.9266 372.215 30.8616Z" fill="#263238"/>
<path d="M368.014 37.6665C368.014 37.6665 368.152 37.6665 368.152 37.8401C367.979 39.6975 368.152 41.8674 369.749 42.5965C369.749 42.5965 369.749 42.718 369.749 42.7007C367.684 42.284 367.562 39.4024 368.014 37.6665Z" fill="#263238"/>
<path d="M369.802 35.8091C372.84 35.8091 372.701 41.8154 369.906 41.8501C367.111 41.8848 367.32 35.8438 369.802 35.8091Z" fill="#263238"/>
<path d="M370.982 36.1556C371.503 36.5028 372.006 37.1277 372.718 37.1972C373.43 37.2666 374.02 36.6764 374.454 36.0688H374.558C374.558 37.2319 374.072 38.4123 372.822 38.5512C371.572 38.6901 370.895 37.6485 370.635 36.4681C370.583 36.3292 370.791 36.0168 370.982 36.1556Z" fill="#263238"/>
<path d="M356.714 37.1099C356.714 37.1099 356.557 37.1099 356.557 37.2834C356.557 39.1582 356.314 41.3108 354.613 41.901C354.613 41.901 354.613 42.0225 354.613 42.0051C356.696 41.7448 357.044 38.8805 356.714 37.1099Z" fill="#263238"/>
<path d="M355.063 35.1317C352.043 34.8713 351.73 40.9123 354.525 41.1554C357.32 41.3984 357.58 35.3574 355.063 35.1317Z" fill="#263238"/>
<path d="M353.778 35.4616C353.292 35.7567 352.789 36.3122 352.216 36.3296C351.643 36.3469 351.088 35.6525 350.706 35.0103C350.706 35.0103 350.619 35.0103 350.602 35.0103C350.515 36.1733 350.827 37.3885 351.921 37.6662C353.014 37.9439 353.657 36.9718 354.056 35.9303C354.125 35.6525 353.987 35.3401 353.778 35.4616Z" fill="#263238"/>
<path d="M366.486 52.5779C366.052 53.0293 365.618 53.6369 364.941 53.7063C364.248 53.7074 363.562 53.5656 362.927 53.2897C362.927 53.2897 362.805 53.2897 362.84 53.2897C363.399 54.0304 364.319 54.4039 365.236 54.2618C366.026 54.0318 366.596 53.3445 366.677 52.5259C366.711 52.5432 366.555 52.5085 366.486 52.5779Z" fill="#263238"/>
<path d="M358.884 45.53C358.884 45.53 358.415 48.3248 358.363 49.6441C358.363 49.7656 358.675 49.835 359.127 49.8698C361.422 50.3632 363.8 49.5324 365.289 47.7172C365.393 47.5957 365.289 47.4568 365.116 47.5263C363.392 48.6286 361.357 49.1404 359.318 48.9844C359.318 48.6199 360.307 44.2454 360.099 44.2106C359.071 44.2773 358.056 44.4756 357.078 44.8008C357.911 38.9682 359.665 33.3264 360.411 27.4417C360.411 27.3458 360.333 27.2681 360.238 27.2681C360.142 27.2681 360.064 27.3458 360.064 27.4417C357.994 33.4373 356.529 39.6248 355.69 45.9118C355.603 46.6409 358.363 45.7383 358.884 45.53Z" fill="#263238"/>
<path d="M360.029 49.1936C360.667 50.1702 361.546 50.9655 362.581 51.5024C363.124 51.7502 363.727 51.8347 364.317 51.7454C365.688 51.5024 365.81 50.2873 365.636 49.211C365.556 48.6145 365.398 48.031 365.168 47.4751C363.682 48.5816 361.882 49.1837 360.029 49.1936Z" fill="#263238"/>
<path d="M362.58 51.501C363.123 51.7489 363.726 51.8333 364.316 51.7441C365.687 51.501 365.809 50.2859 365.635 49.2096C364.216 49.1959 362.964 50.1349 362.58 51.501Z" fill="#FF9CBD"/>
<path d="M346.09 26.5396C349.319 27.5812 360.828 20.4292 365.445 10.1352C366.248 16.1311 369.122 21.6576 373.569 25.7585C381.069 32.7021 388.186 33.2229 388.186 33.2229C388.186 33.2229 390.408 45.6174 392.456 45.8951C394.505 46.1729 407.402 3.72965 371.33 3.24358C371.33 3.24358 360.776 2.18468 354.179 8.34721C347.583 14.5097 346.09 26.5396 346.09 26.5396Z" fill="#263238"/>
<path d="M388.48 42.301C388.48 42.301 394.538 33.7603 398.427 35.9128C402.315 38.0653 397.715 50.5119 393.115 52.1957C391.955 52.7095 390.636 52.7276 389.463 52.2459C388.29 51.7641 387.364 50.8243 386.9 49.6439L388.48 42.301Z" fill="#AD6359"/>
<path d="M397.02 39.4536C397.02 39.4536 397.107 39.4536 397.02 39.5751C393.808 40.8597 392.09 43.8108 390.892 46.9007C391.274 46.2514 391.921 45.8023 392.663 45.672C393.404 45.5417 394.166 45.7434 394.746 46.2237C394.833 46.2237 394.746 46.4147 394.659 46.3799C393.503 46.0168 392.242 46.4115 391.5 47.3694C390.899 48.1555 390.387 49.0055 389.972 49.9038C389.816 50.1989 389.295 50.0427 389.417 49.7129C389.399 45.5467 392.628 39.8355 397.02 39.4536Z" fill="#263238"/>
<path d="M365.184 80.5602C363.987 81.1851 365.74 103.509 366.504 104.759C366.781 105.228 381.433 93.649 386.31 78.7201C386.31 78.7722 377.735 74.0678 365.184 80.5602Z" fill="#AD6359"/>
<rect x="275.828" y="216.36" width="69.9923" height="91.1011" transform="rotate(-17.2901 275.828 216.36)" fill="#455A64"/>
<rect x="323.229" y="135.905" width="33.1734" height="10.051" transform="rotate(162.64 323.229 135.905)" fill="#A6A6A6"/>
<path d="M295.764 133.958L299.67 132.743L298.282 128.316L307.76 125.348L309.148 129.774L313.037 128.559L310.52 120.504L293.195 125.92L295.764 133.958Z" fill="#A6A6A6"/>
<path d="M352.442 158.399C354.553 160.56 355.1 163.806 353.813 166.54C356.267 167.048 358.466 168.399 360.028 170.359C362.614 173.935 358.135 179.577 358.135 179.577C360.574 180.632 362.637 182.399 364.055 184.646C366.19 188.309 362.493 194.645 362.493 194.645C364.194 196.855 365.044 199.602 364.888 202.387C364.177 209.799 353.987 214.868 347.529 218.166C341.071 221.465 319.754 224.78 315.744 225.822L294.236 184.663C294.236 184.663 318.921 161.68 327.045 158.885C333.902 156.524 348.345 154.51 352.442 158.399Z" fill="#AD6359"/>
<path d="M297.171 181.991C289.811 187.65 267.661 209.436 272.869 220.528C278.076 231.621 295.852 230.51 320.45 224.868L297.171 181.991Z" fill="#AD6359"/>
<path d="M297.171 181.991C289.811 187.65 266.549 208.915 272.434 223.167C277.121 234.485 298.022 235.856 322.689 230.11L297.171 181.991Z" fill="#EBEBEB"/>
<path d="M310.033 230.579C302.326 212.265 291.424 194.125 289.758 190.879C289.743 190.821 289.693 190.779 289.633 190.774C289.574 190.77 289.518 190.804 289.495 190.86C289.472 190.915 289.487 190.978 289.532 191.018C291.268 194.16 301.527 216.189 309.773 230.753C309.843 230.909 310.033 230.77 310.033 230.579Z" fill="#263238"/>
<path d="M353.171 166.038C345.308 166.784 338.086 169.839 330.709 172.478C330.642 172.502 330.607 172.576 330.631 172.643C330.655 172.71 330.728 172.745 330.795 172.721C338.104 170.03 345.863 168.798 353.258 166.402C353.341 166.365 353.386 166.273 353.365 166.184C353.344 166.096 353.263 166.034 353.171 166.038Z" fill="#263238"/>
<path d="M357.737 179.109C355.961 179.461 354.239 180.045 352.616 180.845C350.88 181.592 349.144 182.338 347.408 183.137C343.936 184.716 340.464 186.365 337.079 188.136C336.923 188.136 337.079 188.466 337.079 188.379C340.551 186.817 344.023 185.307 347.599 183.883C349.335 183.171 351.071 182.477 352.928 181.8C354.649 181.253 356.307 180.526 357.876 179.63C358.019 179.592 358.105 179.444 358.066 179.3C358.028 179.156 357.88 179.071 357.737 179.109Z" fill="#263238"/>
<path d="M362.338 194.698C360.745 195.015 359.219 195.602 357.824 196.434L353.085 198.656C349.926 200.131 346.766 201.589 343.555 202.961C343.399 202.961 343.555 203.273 343.642 203.204C346.923 201.85 350.203 200.53 353.467 199.142L358.258 197.059C359.769 196.549 361.179 195.779 362.424 194.785C362.424 194.785 362.424 194.698 362.338 194.698Z" fill="#263238"/>
<path d="M296.147 182.372C293.566 184.274 291.119 186.35 288.822 188.587L287.086 190.323L286.34 190.809C285.298 191.503 284.256 192.215 283.284 192.996C281.4 194.531 279.614 196.183 277.938 197.943C277.816 198.082 277.938 198.256 278.146 198.134C279.979 196.484 281.934 194.975 283.996 193.621L284.795 193.083C283.822 194.142 282.885 195.235 282.017 196.364C279.676 199.36 277.52 202.496 275.559 205.755C275.473 205.911 275.716 206.033 275.802 205.876C279.396 200.113 295.054 184.698 296.772 182.841C298.491 180.983 297.501 181.313 296.147 182.372Z" fill="#263238"/>
<path d="M666.09 497.268V523.862H655.466V508.725H618.647V523.862H608.023V497.268H666.09Z" fill="#2684EF"/>
<rect opacity="0.1" x="608.023" y="512.163" width="10.6238" height="11.7001" fill="black"/>
<rect opacity="0.1" x="655.467" y="512.163" width="10.6238" height="11.7001" fill="black"/>
<path d="M715.807 616.508H558.342L567.021 518.012H707.127L715.807 616.508Z" fill="#2684EF"/>
<path opacity="0.1" d="M637.083 616.508H558.342L567.021 518.012H637.083V616.508Z" fill="black"/>
<path d="M661.316 561.533V572.99H642.812V591.495H631.354V572.99H612.85V561.533H631.354V543.028H642.812V561.533H661.316Z" fill="#FFFFFD"/>
</svg>
