<svg width="33" height="33" viewBox="0 0 33 33" fill="none" xmlns="http://www.w3.org/2000/svg">
<path d="M16.4612 8.421C11.9893 8.421 8.38225 12.028 8.38225 16.4999C8.38225 20.9718 11.9893 24.5788 16.4612 24.5788C20.933 24.5788 24.5401 20.9718 24.5401 16.4999C24.5401 12.028 20.933 8.421 16.4612 8.421ZM16.4612 21.7522C13.5713 21.7522 11.2088 19.3968 11.2088 16.4999C11.2088 13.603 13.5643 11.2476 16.4612 11.2476C19.358 11.2476 21.7135 13.603 21.7135 16.4999C21.7135 19.3968 19.351 21.7522 16.4612 21.7522ZM26.7549 8.09053C26.7549 9.13818 25.9112 9.9749 24.8705 9.9749C23.8229 9.9749 22.9862 9.13115 22.9862 8.09053C22.9862 7.0499 23.8299 6.20615 24.8705 6.20615C25.9112 6.20615 26.7549 7.0499 26.7549 8.09053ZM32.1057 10.003C31.9862 7.47881 31.4096 5.24287 29.5604 3.40068C27.7182 1.5585 25.4823 0.981933 22.958 0.855371C20.3565 0.707715 12.5588 0.707715 9.95725 0.855371C7.44006 0.974902 5.20413 1.55146 3.35491 3.39365C1.50569 5.23584 0.936157 7.47178 0.809595 9.996C0.661938 12.5976 0.661938 20.3952 0.809595 22.9968C0.929126 25.521 1.50569 27.7569 3.35491 29.5991C5.20413 31.4413 7.43303 32.0179 9.95725 32.1444C12.5588 32.2921 20.3565 32.2921 22.958 32.1444C25.4823 32.0249 27.7182 31.4483 29.5604 29.5991C31.4026 27.7569 31.9791 25.521 32.1057 22.9968C32.2533 20.3952 32.2533 12.6046 32.1057 10.003ZM28.7448 25.7882C28.1963 27.1663 27.1346 28.228 25.7494 28.7835C23.6752 29.6062 18.7533 29.4163 16.4612 29.4163C14.169 29.4163 9.24006 29.5991 7.17288 28.7835C5.79475 28.2351 4.73303 27.1733 4.17756 25.7882C3.35491 23.714 3.54475 18.7921 3.54475 16.4999C3.54475 14.2077 3.36194 9.27881 4.17756 7.21162C4.726 5.8335 5.78772 4.77178 7.17288 4.21631C9.24709 3.39365 14.169 3.5835 16.4612 3.5835C18.7533 3.5835 23.6823 3.40068 25.7494 4.21631C27.1276 4.76475 28.1893 5.82646 28.7448 7.21162C29.5674 9.28584 29.3776 14.2077 29.3776 16.4999C29.3776 18.7921 29.5674 23.721 28.7448 25.7882Z" fill="white"/>
</svg>
