<svg xmlns="http://www.w3.org/2000/svg" width="256" height="49" viewBox="0 0 256 49" fill="none">
<path d="M11.6855 15.7949L0.902344 42.2539H13.4376L17.9516 31.1747L24.2205 15.7949L17.9516 0.412598L11.6855 15.7949Z" fill="#CCEACE"/>
<path d="M186.727 8.56885C177.374 8.56885 169.792 16.1511 169.792 25.5046C169.792 34.858 177.374 42.4403 186.727 42.4403C196.08 42.4403 203.662 34.858 203.662 25.5046C203.662 16.1511 196.08 8.56885 186.727 8.56885ZM186.727 34.1404C181.958 34.1404 178.091 30.2741 178.091 25.5046C178.091 20.7351 181.958 16.8687 186.727 16.8687C191.496 16.8687 195.363 20.7351 195.363 25.5046C195.363 30.2741 191.496 34.1404 186.727 34.1404Z" fill="#31C137"/>
<path d="M75.2353 34.3109C73.8924 34.3109 72.6214 34.0037 71.4887 33.4549L74.0318 32.0607L83.7902 26.7102L89.1305 23.7814L91.7913 22.3221C91.2231 19.5186 89.9601 16.9668 88.1907 14.8548C85.0924 11.1557 80.4383 8.80322 75.2353 8.80322C65.9054 8.80322 58.3428 16.3662 58.3428 25.6963C58.3428 35.0265 65.9054 42.5903 75.2353 42.5903C82.3137 42.5903 88.3754 38.2362 90.8887 32.0607H81.0412C79.51 33.4588 77.472 34.3109 75.2353 34.3109ZM66.6218 25.6963C66.6218 25.0385 66.6961 24.3972 66.8354 23.7814C67.706 19.9458 71.1367 17.0826 75.2353 17.0826C77.2842 17.0826 79.1658 17.7973 80.6445 18.9922L71.9108 23.7814L66.6746 26.653C66.6395 26.3385 66.6218 26.0198 66.6218 25.6963Z" fill="#31C137"/>
<g opacity="0.211761">
<mask id="mask0_1_5624" style="mask-type:alpha" maskUnits="userSpaceOnUse" x="22" y="0" width="24" height="43">
<rect x="22.5586" y="0.410645" width="23.317" height="41.8426" fill="#31C137"/>
</mask>
<g mask="url(#mask0_1_5624)">
<path d="M45.8756 15.7932L39.6252 31.131L39.6084 31.173L35.093 42.2531H22.5586L28.7809 26.9826L33.3412 15.7932L39.6084 0.410645L39.6252 0.452687L45.8756 15.7932Z" fill="#31C137"/>
</g>
</g>
<g filter="url(#filter0_d_1_5624)">
<path d="M35.0053 42.2531H22.4653L17.9527 31.173L11.6855 15.7932L17.9527 0.410645L24.2199 15.7932L28.7802 26.9826L35.0053 42.2531Z" fill="#31C137"/>
</g>
<g filter="url(#filter1_d_1_5624)">
<path d="M56.693 42.2531H44.1558L39.6404 31.173L39.6236 31.131L33.376 15.7932L39.6236 0.452687L39.6404 0.410645L45.9104 15.7932L56.693 42.2531Z" fill="#31C137"/>
</g>
<path d="M122.235 0.410645V11.0871C119.69 9.56228 116.713 8.68495 113.535 8.68495C104.176 8.68495 96.5889 16.2725 96.5889 25.6316C96.5889 34.9906 104.176 42.5754 113.535 42.5754C116.713 42.5754 119.69 41.7009 122.235 40.1761V42.2419H129.738V0.410645H122.235ZM113.535 34.3319C110.681 34.3319 108.148 32.9582 106.562 30.8364C105.477 29.3847 104.834 27.5827 104.834 25.6302C104.834 20.8254 108.729 16.9304 113.534 16.9304C115.036 16.9304 116.449 17.311 117.682 17.9812C120.394 19.4542 122.235 22.3269 122.235 25.6316C122.235 30.4358 118.339 34.3319 113.535 34.3319Z" fill="#31C137"/>
<path d="M149.221 8.68495C146.039 8.68495 143.063 9.56228 140.521 11.0871V0.410645H133.057V42.2419H140.521V40.1761C143.063 41.7009 146.039 42.5754 149.221 42.5754C158.58 42.5754 166.167 34.9906 166.167 25.6316C166.167 16.2725 158.58 8.68495 149.221 8.68495ZM149.221 34.3319C146.968 34.3319 144.916 33.4754 143.37 32.0705C141.619 30.479 140.52 28.1831 140.52 25.6302C140.52 20.8254 144.416 16.9304 149.22 16.9304C151.923 16.9304 154.338 18.1628 155.934 20.0963C157.175 21.6001 157.921 23.5285 157.921 25.6316C157.921 30.4358 154.025 34.3319 149.221 34.3319Z" fill="#31C137"/>
<path d="M247.567 0.410645V11.0871C245.022 9.56228 242.046 8.68495 238.867 8.68495C229.508 8.68495 221.921 16.2725 221.921 25.6316C221.921 34.9906 229.508 42.5754 238.867 42.5754C242.046 42.5754 245.022 41.7009 247.567 40.1761V42.2419H255.017V0.410645H247.567ZM247.391 27.3703L247.387 27.3876C247.361 27.5132 247.332 27.6377 247.301 27.7613C247.296 27.7817 247.291 27.8022 247.286 27.8227C247.257 27.9339 247.225 28.0441 247.192 28.1537C247.182 28.187 247.172 28.2204 247.162 28.2535C247.131 28.3502 247.098 28.446 247.064 28.5411C247.048 28.5887 247.031 28.6361 247.013 28.6829C246.983 28.7628 246.952 28.8418 246.919 28.9203C246.893 28.9859 246.865 29.0512 246.837 29.1159C246.823 29.1473 246.81 29.1796 246.796 29.211C246.74 29.3399 246.682 29.466 246.611 29.5922C246.601 29.6143 246.587 29.6362 246.576 29.6583C246.543 29.7205 246.511 29.7825 246.477 29.8436C246.463 29.868 246.452 29.8932 246.438 29.9173C246.421 29.9453 246.404 29.9762 246.387 30.0042C246.375 30.0269 246.359 30.0488 246.346 30.0712C246.313 30.1258 246.28 30.1799 246.246 30.234C246.237 30.2486 246.229 30.264 246.219 30.2789C246.211 30.2909 246.202 30.3024 246.195 30.3145C246.113 30.4415 246.029 30.5665 245.941 30.689C245.935 30.6971 245.93 30.7052 245.925 30.7133C245.919 30.7209 245.913 30.7282 245.908 30.736C245.86 30.8016 245.812 30.8664 245.762 30.9306C245.744 30.9541 245.727 30.9785 245.709 31.002C245.691 31.025 245.671 31.0472 245.653 31.0702C245.601 31.1341 245.549 31.1971 245.496 31.2596C245.478 31.2809 245.461 31.3036 245.443 31.3244C245.398 31.3776 245.35 31.4309 245.305 31.4813C245.21 31.5851 245.115 31.686 245.017 31.7841C244.918 31.8822 244.818 31.9775 244.714 32.0728C244.618 32.1588 244.519 32.2435 244.419 32.3264C244.372 32.3657 244.323 32.4032 244.275 32.4414C244.243 32.4669 244.211 32.4935 244.179 32.5184C244.169 32.526 244.159 32.5322 244.15 32.5395C244.095 32.5815 244.04 32.623 243.984 32.6639C243.971 32.6729 243.959 32.6835 243.946 32.6922C243.932 32.7018 243.919 32.7102 243.905 32.7197C243.794 32.7987 243.681 32.8755 243.566 32.9495C243.548 32.9613 243.53 32.9748 243.511 32.9865C243.488 33.0022 243.463 33.0157 243.439 33.0308C243.403 33.053 243.367 33.0754 243.331 33.097C243.309 33.1104 243.287 33.125 243.265 33.1379C243.203 33.1743 243.139 33.2108 243.077 33.2444C243.07 33.2483 243.062 33.2517 243.056 33.2553C242.966 33.3049 242.875 33.3515 242.783 33.3977C242.734 33.4227 242.686 33.4499 242.637 33.4742C242.508 33.5359 242.379 33.592 242.25 33.648C242.186 33.6761 242.121 33.7013 242.054 33.7293C242.007 33.7472 241.958 33.7635 241.911 33.7812C241.871 33.7963 241.83 33.8109 241.789 33.8255C241.744 33.8417 241.7 33.8599 241.653 33.8751C241.627 33.8838 241.6 33.8896 241.574 33.8983C241.393 33.9575 241.211 34.0127 241.025 34.0601C240.976 34.0727 240.926 34.0828 240.876 34.0945C240.723 34.1307 240.569 34.1627 240.413 34.1907C240.354 34.2013 240.295 34.2131 240.235 34.2226C240.048 34.2521 239.859 34.275 239.668 34.2924C239.606 34.298 239.543 34.3022 239.48 34.3067C239.3 34.3193 239.117 34.3277 238.934 34.3291C238.91 34.3291 238.888 34.3319 238.864 34.3319C234.06 34.3319 230.164 30.4358 230.164 25.6316C230.164 23.3155 231.07 21.2133 232.545 19.6546C234.131 17.9781 236.375 16.9304 238.865 16.9304C239.07 16.9304 239.273 16.9402 239.475 16.9542C239.514 16.957 239.553 16.9598 239.592 16.9632C240.124 17.0072 240.642 17.0986 241.143 17.234C241.178 17.2435 241.212 17.2522 241.247 17.262C241.265 17.267 241.282 17.2735 241.3 17.2785C241.399 17.3074 241.497 17.3377 241.594 17.3699C241.614 17.3761 241.634 17.3817 241.653 17.3881C241.667 17.3926 241.679 17.3985 241.692 17.403C242.206 17.5796 242.697 17.8024 243.162 18.067C243.211 18.0947 243.261 18.1214 243.31 18.1505C243.316 18.1544 243.322 18.1592 243.329 18.1631C243.481 18.2537 243.629 18.349 243.774 18.4482C243.778 18.451 243.782 18.4532 243.786 18.456C243.881 18.5205 243.977 18.5906 244.069 18.6579C244.11 18.6884 244.149 18.7209 244.189 18.7523C244.919 19.3182 245.558 19.9963 246.077 20.7629L246.079 20.7657C246.141 20.8554 246.199 20.9451 246.253 21.0348C246.261 21.0474 246.268 21.0605 246.276 21.0732C246.296 21.1051 246.315 21.1373 246.334 21.1696C246.341 21.1819 246.35 21.1931 246.356 21.2057C246.396 21.2674 246.432 21.3291 246.466 21.3935C246.475 21.4101 246.483 21.4272 246.492 21.4437C246.525 21.5045 246.557 21.5668 246.589 21.6287C246.595 21.641 246.603 21.6528 246.609 21.6654L246.614 21.671C246.634 21.7077 246.65 21.7461 246.669 21.7834C246.692 21.8311 246.715 21.8793 246.738 21.9275C246.751 21.9561 246.767 21.9841 246.78 22.013C246.791 22.0382 246.802 22.0634 246.813 22.0859C246.827 22.1181 246.84 22.1512 246.854 22.1837C246.875 22.2336 246.896 22.284 246.917 22.3345C246.953 22.4219 246.988 22.5099 247.021 22.5991C247.035 22.6375 247.049 22.6764 247.063 22.7154C247.099 22.816 247.134 22.9172 247.166 23.0195C247.174 23.0467 247.182 23.0742 247.19 23.1016C247.225 23.2154 247.258 23.3298 247.288 23.4453C247.292 23.4604 247.295 23.4756 247.299 23.4907C247.472 24.1755 247.567 24.8919 247.567 25.6316C247.567 26.2269 247.505 26.808 247.391 27.3703Z" fill="#31C137"/>
<path d="M214.796 11.0878V8.5708H207.307V42.2426H214.796V25.6324C214.796 25.5595 214.796 25.4922 214.799 25.4221V25.3829C214.802 25.3352 214.802 25.2876 214.804 25.2399C214.807 25.2063 214.807 25.1755 214.81 25.1418C214.813 25.0774 214.818 25.0129 214.821 24.9512C214.827 24.8812 214.832 24.8111 214.841 24.741C214.846 24.6794 214.855 24.6149 214.863 24.5504C214.863 24.5336 214.866 24.5168 214.869 24.5C214.874 24.4495 214.883 24.3962 214.891 24.3458C214.9 24.2701 214.914 24.1944 214.928 24.1188C214.93 24.0907 214.936 24.0627 214.942 24.0319C214.95 23.9926 214.958 23.9506 214.967 23.9113C214.97 23.8833 214.975 23.8581 214.981 23.8329C214.989 23.802 214.995 23.7712 215.001 23.7432L215.026 23.6338C215.04 23.5806 215.051 23.5273 215.065 23.4741C215.076 23.432 215.087 23.3928 215.099 23.3507C215.11 23.3059 215.124 23.2583 215.135 23.2134C215.146 23.177 215.157 23.1405 215.169 23.1013C215.18 23.0677 215.191 23.034 215.2 23.0004C215.222 22.9331 215.244 22.8686 215.267 22.8014C215.286 22.7481 215.303 22.6949 215.323 22.6388C215.348 22.5771 215.371 22.5155 215.396 22.451C215.396 22.4454 215.401 22.4398 215.401 22.4342C215.427 22.3753 215.449 22.3165 215.474 22.2604C215.497 22.2015 215.522 22.1455 215.547 22.0894C215.569 22.0418 215.589 21.9969 215.612 21.9493C215.612 21.9465 215.614 21.9437 215.617 21.9409C215.637 21.896 215.656 21.8512 215.679 21.8063L215.754 21.655C215.785 21.5989 215.816 21.54 215.847 21.484C215.869 21.4391 215.895 21.3943 215.92 21.3522L215.987 21.2345C216.04 21.142 216.099 21.0495 216.155 20.9598C216.183 20.915 216.214 20.8701 216.242 20.8253C216.273 20.7804 216.301 20.7384 216.332 20.6936C216.363 20.6487 216.393 20.6067 216.424 20.5618C216.492 20.4693 216.559 20.3796 216.629 20.2871C216.654 20.2591 216.677 20.2283 216.699 20.2002C216.707 20.189 216.716 20.1778 216.727 20.1666C216.755 20.1302 216.786 20.0937 216.814 20.0601C216.881 19.976 216.951 19.8975 217.024 19.8162C217.058 19.777 217.094 19.7377 217.131 19.7013C217.203 19.6228 217.276 19.5443 217.352 19.4715C217.425 19.3986 217.498 19.3285 217.573 19.2612C217.604 19.2304 217.635 19.2024 217.666 19.1744C217.688 19.1519 217.714 19.1323 217.739 19.1099C217.837 19.0202 217.941 18.9333 218.047 18.8492C218.056 18.8408 218.067 18.8324 218.078 18.824C218.112 18.7988 218.145 18.7707 218.179 18.7455C218.218 18.7147 218.255 18.6866 218.294 18.6586C218.328 18.6306 218.364 18.6054 218.398 18.5801L218.448 18.5465C218.49 18.5157 218.535 18.4848 218.58 18.454C218.622 18.4232 218.667 18.3951 218.711 18.3643C218.756 18.3363 218.801 18.3054 218.846 18.2774C218.93 18.2242 219.017 18.1709 219.107 18.1204C219.112 18.1148 219.118 18.112 219.126 18.1064C219.165 18.084 219.205 18.0616 219.247 18.0392C219.252 18.0336 219.261 18.0308 219.269 18.0251C219.311 18.0027 219.356 17.9775 219.398 17.9551C219.494 17.9046 219.589 17.8542 219.687 17.8093C219.735 17.7841 219.782 17.7617 219.833 17.7392C219.88 17.7168 219.928 17.6944 219.978 17.672H219.981C220.029 17.6495 220.079 17.6271 220.127 17.6075C220.177 17.5879 220.225 17.5655 220.275 17.5458V8.99124C218.308 9.36964 216.458 10.09 214.796 11.0878ZM220.13 42.2426C220.18 42.2538 220.228 42.2623 220.275 42.2707V42.2426H220.13Z" fill="#31C137"/>
<path d="M180.309 25.4204C180.306 25.4902 180.306 25.5597 180.306 25.6303V25.4204H180.309Z" fill="#31C137"/>
<defs>
<filter id="filter0_d_1_5624" x="8.68555" y="0.410645" width="29.3198" height="47.8424" filterUnits="userSpaceOnUse" color-interpolation-filters="sRGB">
<feFlood flood-opacity="0" result="BackgroundImageFix"/>
<feColorMatrix in="SourceAlpha" type="matrix" values="0 0 0 0 0 0 0 0 0 0 0 0 0 0 0 0 0 0 127 0" result="hardAlpha"/>
<feOffset dy="3"/>
<feGaussianBlur stdDeviation="1.5"/>
<feComposite in2="hardAlpha" operator="out"/>
<feColorMatrix type="matrix" values="0 0 0 0 0 0 0 0 0 0 0 0 0 0 0 0 0 0 0.160784 0"/>
<feBlend mode="normal" in2="BackgroundImageFix" result="effect1_dropShadow_1_5624"/>
<feBlend mode="normal" in="SourceGraphic" in2="effect1_dropShadow_1_5624" result="shape"/>
</filter>
<filter id="filter1_d_1_5624" x="30.376" y="0.410645" width="29.317" height="47.8424" filterUnits="userSpaceOnUse" color-interpolation-filters="sRGB">
<feFlood flood-opacity="0" result="BackgroundImageFix"/>
<feColorMatrix in="SourceAlpha" type="matrix" values="0 0 0 0 0 0 0 0 0 0 0 0 0 0 0 0 0 0 127 0" result="hardAlpha"/>
<feOffset dy="3"/>
<feGaussianBlur stdDeviation="1.5"/>
<feComposite in2="hardAlpha" operator="out"/>
<feColorMatrix type="matrix" values="0 0 0 0 0 0 0 0 0 0 0 0 0 0 0 0 0 0 0.160784 0"/>
<feBlend mode="normal" in2="BackgroundImageFix" result="effect1_dropShadow_1_5624"/>
<feBlend mode="normal" in="SourceGraphic" in2="effect1_dropShadow_1_5624" result="shape"/>
</filter>
</defs>
</svg>