<svg width="205" height="35" viewBox="0 0 205 35" fill="none" xmlns="http://www.w3.org/2000/svg">
<path d="M0.706444 14.7957C0.54348 14.6371 0.427437 14.4586 0.345703 14.2705C0.426949 14.4577 0.543968 14.6371 0.706444 14.7957Z" fill="#FFDC69"/>
<path d="M34.034 12.009L23.8435 10.5284L19.286 1.2948C18.9867 0.6875 18.404 0.383789 17.8213 0.383789V29.0612L26.9354 33.8528C28.1337 34.4828 29.5345 33.4655 29.3058 32.1308L27.5655 21.982L34.9392 14.7948C35.9088 13.8499 35.374 12.2035 34.034 12.009Z" fill="#FFDC69"/>
<path d="M8.70852 33.8528L17.8226 29.0612V0.383789C17.6771 0.383789 17.5315 0.403107 17.3898 0.440826C16.9662 0.554443 16.5823 0.839264 16.3579 1.2948L14.2675 5.53076L11.8009 10.5283L9.03492 10.9302L1.61086 12.0089C1.19209 12.0699 0.852149 12.272 0.611831 12.5511C0.563957 12.6067 0.519462 12.6656 0.479812 12.7271C0.400504 12.8499 0.336677 12.9819 0.292197 13.1207C0.26995 13.1898 0.251579 13.2604 0.238525 13.332C0.224983 13.4036 0.216758 13.4765 0.21289 13.5491C0.200805 13.7914 0.244804 14.0375 0.34539 14.2696C0.42662 14.4573 0.543159 14.6361 0.706115 14.7947L8.07989 21.9819L6.53638 30.9794L6.33908 32.1303C6.32989 32.183 6.32797 32.2343 6.32362 32.2855C6.32071 32.3155 6.31539 32.3464 6.31442 32.3764C6.31248 32.4572 6.31636 32.5359 6.32555 32.6134C6.4566 33.6931 7.66017 34.404 8.70852 33.8528Z" fill="#FFC864"/>
<path d="M42.976 14.7957L50.3497 21.9828L48.8067 30.9803L50.3503 21.9818L42.976 14.7957Z" fill="#FFDC69"/>
<path d="M76.3036 12.009L66.1131 10.5284L61.5556 1.2948C61.2557 0.6875 60.6735 0.383789 60.0908 0.383789V29.0612L69.2049 33.8528C70.4032 34.4828 71.804 33.4655 71.5753 32.1308L69.8349 21.982L77.2088 14.7948C78.1783 13.8499 77.6435 12.2035 76.3036 12.009Z" fill="#FFDC69"/>
<path d="M50.9772 33.8528L60.0913 29.0612V0.383789C59.9457 0.383789 59.8002 0.403107 59.6585 0.440826C59.2349 0.554443 58.8509 0.839264 58.6261 1.2948L56.9873 4.61487L54.0686 10.5288L51.2248 10.9423L43.8786 12.0099C43.5434 12.0583 43.2591 12.1975 43.0357 12.3939C42.924 12.492 42.8278 12.6047 42.748 12.7275C42.6285 12.9113 42.5464 13.1183 42.5062 13.333C42.4927 13.4045 42.4845 13.4775 42.4806 13.5501C42.468 13.7923 42.5125 14.0385 42.6131 14.2706C42.6943 14.4582 42.8109 14.6371 42.9738 14.7957L50.3476 21.9829L48.8041 30.9814L48.6068 32.1322C48.5976 32.1849 48.5956 32.2362 48.5913 32.2875C48.5894 32.3175 48.5831 32.3484 48.5821 32.3784C48.5802 32.4591 48.5841 32.5379 48.5932 32.6153C48.7252 33.6931 49.9288 34.404 50.9772 33.8528Z" fill="#FFC864"/>
<path d="M118.573 12.009L108.383 10.5284L103.825 1.2948C103.525 0.6875 102.943 0.383789 102.36 0.383789V29.0612L111.474 33.8528C112.673 34.4828 114.074 33.4655 113.845 32.1308L112.104 21.982L119.478 14.7948C120.448 13.8499 119.913 12.2035 118.573 12.009Z" fill="#FFDC69"/>
<path d="M85.2435 14.7957C85.0806 14.6371 84.964 14.4586 84.8828 14.2705C84.9645 14.4577 85.081 14.6371 85.2435 14.7957L92.6173 21.9828L91.0743 30.9803L92.6178 21.9818L85.2435 14.7957Z" fill="#FFDC69"/>
<path d="M93.2477 33.8528L102.362 29.0612V0.383789C102.173 0.383789 101.988 0.427277 101.809 0.491119C101.436 0.624115 101.099 0.883789 100.897 1.29428L99.2583 4.61438L96.3395 10.5283L93.5741 10.9302L86.1501 12.0089C85.7313 12.0699 85.3913 12.272 85.151 12.5511C85.0548 12.6628 84.975 12.7866 84.9121 12.9176C84.8492 13.0486 84.8038 13.1889 84.7777 13.332C84.7642 13.4036 84.756 13.4765 84.7521 13.5491C84.7395 13.7914 84.784 14.0375 84.8846 14.2696C84.9658 14.4573 85.0824 14.6361 85.2453 14.7947L92.6191 21.9819L91.0756 30.9804L90.8783 32.1313C90.8691 32.184 90.8672 32.2352 90.8628 32.2865C90.8609 32.3165 90.8546 32.3474 90.8536 32.3774C90.8517 32.4581 90.8555 32.537 90.8647 32.6143C90.9953 33.6931 92.1993 34.404 93.2477 33.8528Z" fill="#FFC864"/>
<path d="M127.515 14.7957L134.889 21.9828L133.346 30.9803L134.889 21.9818L127.515 14.7957Z" fill="#FFDC69"/>
<path d="M160.844 12.009L150.654 10.5284L146.096 1.2948C145.797 0.6875 145.214 0.383789 144.632 0.383789V29.0612L153.746 33.8528C154.944 34.4828 156.344 33.4655 156.116 32.1308L154.375 21.982L161.749 14.7948C162.719 13.8499 162.183 12.2035 160.844 12.009Z" fill="#FFDC69"/>
<path d="M135.517 33.8528L144.631 29.0612V0.383789C144.486 0.383789 144.34 0.403107 144.199 0.440826C143.775 0.554443 143.392 0.839264 143.166 1.2948L141.076 5.53076L138.609 10.5283L135.844 10.9302L128.42 12.0089C128.001 12.0699 127.661 12.272 127.421 12.5511C127.373 12.6067 127.329 12.6656 127.289 12.7271C127.209 12.8499 127.145 12.9819 127.101 13.1207C127.079 13.1898 127.06 13.2604 127.047 13.332C127.034 13.4036 127.025 13.4765 127.022 13.5491C127.009 13.7914 127.054 14.0375 127.154 14.2696C127.235 14.4573 127.352 14.6361 127.515 14.7948L134.889 21.9819L133.346 30.9804L133.148 32.1313C133.139 32.184 133.137 32.2352 133.133 32.2866C133.131 32.3165 133.125 32.3474 133.124 32.3774C133.122 32.4582 133.125 32.537 133.135 32.6143C133.265 33.6931 134.469 34.404 135.517 33.8528Z" fill="#FFC864"/>
<path d="M190.087 14.4296L189.094 12.4171L186.9 7.97168L184.706 12.4171L183.713 14.4296L181.492 14.7526L176.586 15.4653L180.136 18.9257L181.743 20.4924L181.364 22.7037L180.525 27.5896L184.914 25.2825L186.9 24.2385L188.886 25.2825L193.274 27.5896L192.436 22.7037L192.057 20.4924L193.664 18.9257L197.214 15.4653L192.308 14.7526L190.087 14.4296Z" fill="white"/>
<path d="M203.112 12.009L192.922 10.5288L188.365 1.2948C188.066 0.687408 187.483 0.383789 186.9 0.383789C186.317 0.383789 185.735 0.687408 185.435 1.2948L180.878 10.5288L170.687 12.009C169.348 12.2039 168.813 13.8503 169.782 14.7952L177.155 21.9833L175.415 32.1327C175.234 33.1888 176.073 34.0457 177.025 34.0457C177.276 34.0457 177.535 33.9857 177.785 33.8546L186.899 29.0631L196.014 33.8546C196.264 33.9857 196.523 34.0457 196.774 34.0457C197.726 34.0457 198.564 33.1883 198.384 32.1327L196.643 21.9833L204.017 14.7952C204.987 13.8503 204.452 12.2039 203.112 12.009ZM193.664 18.9263L192.057 20.493L192.436 22.7053L193.275 27.5906L188.887 25.2841L186.9 24.2401L184.914 25.2841L180.526 27.5906L181.364 22.7053L181.744 20.493L180.137 18.9263L176.587 15.4659L181.492 14.7532L183.713 14.4311L184.706 12.4185L186.9 7.97324L189.094 12.4185L190.087 14.4311L192.308 14.7532L197.214 15.4659L193.664 18.9263Z" fill="#FFC864"/>
</svg>
