<svg width="33" height="33" viewBox="0 0 33 33" fill="none" xmlns="http://www.w3.org/2000/svg">
<path d="M28.9746 0.75H4.22461C2.36133 0.75 0.849609 2.26172 0.849609 4.125V28.875C0.849609 30.7383 2.36133 32.25 4.22461 32.25H28.9746C30.8379 32.25 32.3496 30.7383 32.3496 28.875V4.125C32.3496 2.26172 30.8379 0.75 28.9746 0.75ZM25.5363 11.9156C25.5504 12.1125 25.5504 12.3164 25.5504 12.5133C25.5504 18.6094 20.9098 25.6336 12.4301 25.6336C9.81445 25.6336 7.38867 24.8742 5.34961 23.5664C5.72227 23.6086 6.08086 23.6227 6.46055 23.6227C8.61914 23.6227 10.602 22.8914 12.184 21.6539C10.159 21.6117 8.45742 20.2828 7.87383 18.4547C8.58398 18.5602 9.22383 18.5602 9.95508 18.3703C7.8457 17.9414 6.26367 16.0852 6.26367 13.8422V13.7859C6.87539 14.1305 7.59258 14.3414 8.34492 14.3695C7.06021 13.515 6.28927 12.0734 6.2918 10.5305C6.2918 9.67266 6.5168 8.88516 6.91758 8.20312C9.18867 11.0016 12.5988 12.8297 16.4238 13.0266C15.7699 9.89766 18.1113 7.35937 20.9238 7.35937C22.2527 7.35937 23.448 7.91484 24.2918 8.81484C25.3324 8.61797 26.3309 8.23125 27.2168 7.70391C26.8723 8.77266 26.148 9.67266 25.1918 10.2422C26.1199 10.1438 27.0199 9.88359 27.8496 9.525C27.2238 10.4461 26.4363 11.2617 25.5363 11.9156Z" fill="white"/>
</svg>
